<svg width="61" height="60" viewBox="0 0 61 60" fill="none" xmlns="http://www.w3.org/2000/svg">
<g clip-path="url(#clip0_13728_3980)">
<g filter="url(#filter0_ii_13728_3980)">
<circle cx="30.5" cy="30" r="30" fill="#A086D7"/>
</g>
<path fill-rule="evenodd" clip-rule="evenodd" d="M30.3125 9C38.1631 9.00031 44.5381 16.6359 44.5381 25.6084V44.6992H44.583V49.5322C44.5828 50.2223 44.023 50.782 43.333 50.7822C42.6428 50.7822 42.0833 50.2224 42.083 49.5322V49.4561C42.1098 49.2155 42.124 48.9722 42.124 48.7266C42.124 43.8329 36.7142 39.8653 30.041 39.8652C24.6057 39.8652 20.0088 42.4975 18.4902 46.1182C18.4426 46.1999 18.3943 46.2824 18.3477 46.3662C18.364 46.3619 18.3809 46.3594 18.3975 46.3555C18.1122 47.1103 17.958 47.9051 17.958 48.7266C17.958 48.9749 17.9727 49.2207 18 49.4639V49.5322C17.9998 50.2224 17.4402 50.7822 16.75 50.7822C16.06 50.782 15.5002 50.2222 15.5 49.5322V44.6992H15.54C15.5406 38.0852 15.5381 30.0502 15.5381 25.6084C15.5381 16.6357 22.4617 9 30.3125 9ZM28.6143 15.1904C22.9286 16.7378 20.086 20.3861 20.0859 26.7949C20.0861 33.2038 24.859 38.3994 30.7471 38.3994C36.6351 38.3994 41.408 33.2038 41.4082 26.7949C41.4081 23.8231 37.8545 26.7946 34.3008 22.9268C30.7471 19.0585 31.7718 15.1904 28.6143 15.1904Z" fill="#F1EFF7"/>
<path d="M52.4932 26.5C52.4932 26.7761 52.2693 27 51.9932 27C51.717 27 51.4932 26.7761 51.4932 26.5C51.4932 26.2239 51.717 26 51.9932 26C52.2693 26 52.4932 26.2239 52.4932 26.5Z" fill="#F1EFF7"/>
<path d="M53.4932 25.5C53.4932 25.7761 53.2693 26 52.9932 26C52.717 26 52.4932 25.7761 52.4932 25.5C52.4932 25.2239 52.717 25 52.9932 25C53.2693 25 53.4932 25.2239 53.4932 25.5Z" fill="#F1EFF7"/>
<path fill-rule="evenodd" clip-rule="evenodd" d="M52.4932 20C53.0455 20 53.4932 20.4477 53.4932 21V22C53.4932 22.042 53.4894 22.0833 53.4844 22.124C53.9596 22.2452 54.4 22.4524 54.7901 22.7266L55.5664 22.1172C56.0009 21.7763 56.6298 21.8526 56.9707 22.2871C57.3115 22.7216 57.2353 23.3496 56.8008 23.6904L56.0899 24.248C56.2092 24.4926 56.3043 24.7511 56.3721 25.0205C56.4118 25.0155 56.4522 25.013 56.4932 25.0127L57.4932 25.0059C58.0455 25.0024 58.4956 25.4477 58.499 26C58.5025 26.5523 58.0581 27.0024 57.5059 27.0059L56.5059 27.0127C56.4584 27.013 56.412 27.0081 56.3662 27.002C56.3055 27.2375 56.2226 27.464 56.1221 27.6807L56.8115 28.2656C57.2331 28.6224 57.2855 29.2532 56.9287 29.6748C56.5719 30.0961 55.941 30.1487 55.5196 29.792L54.8535 29.2275C54.4482 29.5245 53.9856 29.7472 53.4844 29.875C53.4895 29.916 53.4932 29.9576 53.4932 30V31C53.4932 31.5523 53.0455 32 52.4932 32C51.9409 32 51.4932 31.5523 51.4932 31V30C51.4932 29.9577 51.4959 29.916 51.501 29.875C51.0258 29.7537 50.5853 29.5468 50.1953 29.2725L49.5147 29.8076C49.0802 30.1485 48.4513 30.0732 48.1104 29.6387C47.7695 29.2042 47.8458 28.5753 48.2803 28.2344L48.8955 27.75C48.7793 27.5116 48.6855 27.2601 48.6182 26.998C48.5813 27.0024 48.5439 27.0056 48.5059 27.0059L47.5059 27.0127C46.9536 27.0162 46.5035 26.5708 46.5 26.0186C46.4967 25.4665 46.9411 25.0162 47.4932 25.0127L48.4932 25.0059C48.5345 25.0056 48.5752 25.0091 48.6153 25.0137C48.6869 24.7311 48.7898 24.461 48.918 24.2061L48.2569 23.6465C47.8353 23.2897 47.7829 22.6579 48.1397 22.2363C48.4965 21.8151 49.1274 21.7625 49.5488 22.1191L50.2334 22.6992C50.6138 22.4383 51.0414 22.2413 51.501 22.124C51.496 22.0834 51.4932 22.042 51.4932 22V21C51.4932 20.4477 51.9409 20 52.4932 20ZM52.4932 24C51.3886 24 50.4932 24.8954 50.4932 26C50.4932 27.1046 51.3886 28 52.4932 28C53.5978 28 54.4932 27.1046 54.4932 26C54.4932 24.8954 53.5978 24 52.4932 24Z" fill="#F1EFF7"/>
<path d="M8.49316 34.5C8.49316 34.7761 8.26931 35 7.99316 35C7.71702 35 7.49316 34.7761 7.49316 34.5C7.49316 34.2239 7.71702 34 7.99316 34C8.26931 34 8.49316 34.2239 8.49316 34.5Z" fill="#F1EFF7"/>
<path d="M9.49316 33.5C9.49316 33.7761 9.26931 34 8.99316 34C8.71702 34 8.49316 33.7761 8.49316 33.5C8.49316 33.2239 8.71702 33 8.99316 33C9.26931 33 9.49316 33.2239 9.49316 33.5Z" fill="#F1EFF7"/>
<path fill-rule="evenodd" clip-rule="evenodd" d="M8.49318 28C9.04547 28 9.49318 28.4477 9.49318 29V30C9.49318 30.042 9.48943 30.0833 9.48439 30.124C9.95962 30.2452 10.4 30.4524 10.7901 30.7266L11.5664 30.1172C12.0009 29.7763 12.6298 29.8526 12.9707 30.2871C13.3115 30.7216 13.2353 31.3496 12.8008 31.6904L12.0899 32.248C12.2092 32.4926 12.3043 32.7511 12.3721 33.0205C12.4118 33.0155 12.4522 33.013 12.4932 33.0127L13.4932 33.0059C14.0455 33.0024 14.4956 33.4477 14.499 34C14.5025 34.5523 14.0581 35.0024 13.5059 35.0059L12.5059 35.0127C12.4584 35.013 12.412 35.0081 12.3662 35.002C12.3055 35.2375 12.2226 35.464 12.1221 35.6807L12.8115 36.2656C13.2331 36.6224 13.2855 37.2532 12.9287 37.6748C12.5719 38.0961 11.941 38.1487 11.5195 37.792L10.8535 37.2275C10.4482 37.5245 9.98557 37.7472 9.48439 37.875C9.48951 37.916 9.49318 37.9576 9.49318 38V39C9.49318 39.5523 9.04547 40 8.49318 40C7.94091 40 7.49318 39.5523 7.49318 39V38C7.49318 37.9577 7.49589 37.916 7.50099 37.875C7.02576 37.7537 6.5853 37.5468 6.19533 37.2725L5.51467 37.8076C5.08016 38.1485 4.45127 38.0732 4.11037 37.6387C3.76947 37.2042 3.84577 36.5753 4.28029 36.2344L4.89553 35.75C4.77934 35.5116 4.68548 35.2601 4.61818 34.998C4.58128 35.0024 4.54391 35.0056 4.50588 35.0059L3.50588 35.0127C2.9536 35.0162 2.5035 34.5708 2.50002 34.0186C2.49672 33.4665 2.94105 33.0162 3.49318 33.0127L4.49318 33.0059C4.53451 33.0056 4.57521 33.0091 4.61525 33.0137C4.6869 32.7311 4.7898 32.461 4.91799 32.2061L4.25685 31.6465C3.83528 31.2897 3.78289 30.6579 4.13967 30.2363C4.49651 29.8151 5.12741 29.7625 5.54885 30.1191L6.23342 30.6992C6.61378 30.4383 7.04143 30.2413 7.50099 30.124C7.49597 30.0834 7.49318 30.042 7.49318 30V29C7.49318 28.4477 7.94091 28 8.49318 28ZM8.49318 32C7.38862 32 6.49318 32.8954 6.49318 34C6.49318 35.1046 7.38862 36 8.49318 36C9.59775 36 10.4932 35.1046 10.4932 34C10.4932 32.8954 9.59775 32 8.49318 32Z" fill="#F1EFF7"/>
<path d="M30.4932 50.5C30.4932 50.7761 30.2693 51 29.9932 51C29.717 51 29.4932 50.7761 29.4932 50.5C29.4932 50.2239 29.717 50 29.9932 50C30.2693 50 30.4932 50.2239 30.4932 50.5Z" fill="#F1EFF7"/>
<path d="M31.4932 49.5C31.4932 49.7761 31.2693 50 30.9932 50C30.717 50 30.4932 49.7761 30.4932 49.5C30.4932 49.2239 30.717 49 30.9932 49C31.2693 49 31.4932 49.2239 31.4932 49.5Z" fill="#F1EFF7"/>
<path fill-rule="evenodd" clip-rule="evenodd" d="M30.4932 44C31.0455 44 31.4932 44.4477 31.4932 45V46C31.4932 46.042 31.4894 46.0833 31.4844 46.124C31.9596 46.2452 32.4 46.4524 32.7901 46.7266L33.5664 46.1172C34.0009 45.7763 34.6298 45.8526 34.9707 46.2871C35.3115 46.7216 35.2353 47.3496 34.8008 47.6904L34.0899 48.248C34.2092 48.4926 34.3043 48.7511 34.3721 49.0205C34.4118 49.0155 34.4522 49.013 34.4932 49.0127L35.4932 49.0059C36.0455 49.0024 36.4956 49.4477 36.499 50C36.5025 50.5523 36.0581 51.0024 35.5059 51.0059L34.5059 51.0127C34.4584 51.013 34.412 51.0081 34.3662 51.002C34.3055 51.2375 34.2226 51.464 34.1221 51.6807L34.8115 52.2656C35.2331 52.6224 35.2855 53.2532 34.9287 53.6748C34.5719 54.0961 33.941 54.1487 33.5196 53.792L32.8535 53.2275C32.4482 53.5245 31.9856 53.7472 31.4844 53.875C31.4895 53.916 31.4932 53.9576 31.4932 54V55C31.4932 55.5523 31.0455 56 30.4932 56C29.9409 56 29.4932 55.5523 29.4932 55V54C29.4932 53.9577 29.4959 53.916 29.501 53.875C29.0258 53.7537 28.5853 53.5468 28.1953 53.2725L27.5147 53.8076C27.0802 54.1485 26.4513 54.0732 26.1104 53.6387C25.7695 53.2042 25.8458 52.5753 26.2803 52.2344L26.8955 51.75C26.7793 51.5116 26.6855 51.2601 26.6182 50.998C26.5813 51.0024 26.5439 51.0056 26.5059 51.0059L25.5059 51.0127C24.9536 51.0162 24.5035 50.5708 24.5 50.0186C24.4967 49.4665 24.9411 49.0162 25.4932 49.0127L26.4932 49.0059C26.5345 49.0056 26.5752 49.0091 26.6153 49.0137C26.6869 48.7311 26.7898 48.461 26.918 48.2061L26.2569 47.6465C25.8353 47.2897 25.7829 46.6579 26.1397 46.2363C26.4965 45.8151 27.1274 45.7625 27.5488 46.1191L28.2334 46.6992C28.6138 46.4383 29.0414 46.2413 29.501 46.124C29.496 46.0834 29.4932 46.042 29.4932 46V45C29.4932 44.4477 29.9409 44 30.4932 44ZM30.4932 48C29.3886 48 28.4932 48.8954 28.4932 50C28.4932 51.1046 29.3886 52 30.4932 52C31.5978 52 32.4932 51.1046 32.4932 50C32.4932 48.8954 31.5978 48 30.4932 48Z" fill="#F1EFF7"/>
</g>
<defs>
<filter id="filter0_ii_13728_3980" x="-2.5" y="-3" width="63" height="63" filterUnits="userSpaceOnUse" color-interpolation-filters="sRGB">
<feFlood flood-opacity="0" result="BackgroundImageFix"/>
<feBlend mode="normal" in="SourceGraphic" in2="BackgroundImageFix" result="shape"/>
<feColorMatrix in="SourceAlpha" type="matrix" values="0 0 0 0 0 0 0 0 0 0 0 0 0 0 0 0 0 0 127 0" result="hardAlpha"/>
<feOffset dx="-3" dy="-6"/>
<feGaussianBlur stdDeviation="1.5"/>
<feComposite in2="hardAlpha" operator="arithmetic" k2="-1" k3="1"/>
<feColorMatrix type="matrix" values="0 0 0 0 1 0 0 0 0 1 0 0 0 0 1 0 0 0 0.15 0"/>
<feBlend mode="normal" in2="shape" result="effect1_innerShadow_13728_3980"/>
<feColorMatrix in="SourceAlpha" type="matrix" values="0 0 0 0 0 0 0 0 0 0 0 0 0 0 0 0 0 0 127 0" result="hardAlpha"/>
<feOffset/>
<feGaussianBlur stdDeviation="5"/>
<feComposite in2="hardAlpha" operator="arithmetic" k2="-1" k3="1"/>
<feColorMatrix type="matrix" values="0 0 0 0 1 0 0 0 0 1 0 0 0 0 1 0 0 0 0.2 0"/>
<feBlend mode="normal" in2="effect1_innerShadow_13728_3980" result="effect2_innerShadow_13728_3980"/>
</filter>
<clipPath id="clip0_13728_3980">
<rect width="60" height="60" fill="white" transform="translate(0.5)"/>
</clipPath>
</defs>
</svg>
