<svg width="61" height="60" viewBox="0 0 61 60" fill="none" xmlns="http://www.w3.org/2000/svg">
<g clip-path="url(#clip0_13728_7757)">
<g filter="url(#filter0_ii_13728_7757)">
<circle cx="30.5" cy="30" r="30" fill="#A086D7"/>
</g>
<path d="M15.125 32.5942C15.8407 31.8895 16.9493 31.8543 17.6006 32.5141L17.7295 32.3998C18.398 31.8722 19.4129 31.9611 20.0742 32.6313C20.7796 33.3472 20.8159 34.4556 20.1553 35.1069C19.8549 35.4026 19.4618 35.552 19.0566 35.561L19.0244 36.4116L19.0273 41.184C19.4085 41.1986 19.7794 41.3396 20.0693 41.6118C20.7445 42.2478 20.7336 43.3575 20.0449 44.0893C19.3559 44.8207 18.2487 44.898 17.5732 44.2621V44.2612C16.9372 44.936 15.8294 44.9251 15.0977 44.2368C14.3671 43.5479 14.2878 42.4414 14.9229 41.7661C15.2116 41.4594 15.5998 41.2944 16.0039 41.27L16.002 36.7641H16.001L16 36.3618L16.001 36.3461V36.2573L16.0049 36.1713H16.0068L16.0078 36.1469L16.0312 35.5356C15.6511 35.5063 15.286 35.352 15.0068 35.0688C14.3571 34.4078 14.4099 33.2992 15.125 32.5942Z" fill="#F1EFF7"/>
<path d="M35.5586 21.5941C34.5951 21.8777 34.0244 22.8289 34.285 23.7185L34.2845 23.7194C33.3952 23.9814 32.9042 24.9756 33.1868 25.9393L33.2473 26.1159C33.5887 26.9714 34.4767 27.456 35.3108 27.2116C35.7153 27.0926 36.0374 26.822 36.242 26.4721L36.9752 26.8435L41.1699 29.1765C40.9975 29.517 40.9421 29.9102 41.0396 30.2961C41.2679 31.1947 42.2427 31.7234 43.2165 31.4771C44.1908 31.2302 44.7963 30.3001 44.5686 29.4007L44.7321 29.3497C45.5302 29.0512 45.9807 28.1371 45.7496 27.2238C45.5022 26.2505 44.5729 25.645 43.6741 25.8723C43.2654 25.9761 42.9326 26.2352 42.715 26.5773L38.7765 24.3866L38.777 24.3857L38.4279 24.1896L38.4056 24.1795L38.3416 24.1439L38.2564 24.1022L38.2324 24.0911L38.1412 24.0461L38.1422 24.0444L37.6891 23.8162C37.8489 23.469 37.8909 23.0743 37.7785 22.6918C37.5163 21.8027 36.5223 21.3113 35.5586 21.5941Z" fill="#F1EFF7"/>
<path d="M39.2227 33.1328C39.9383 32.4278 41.0459 32.3909 41.6973 33.0507V33.0517C42.358 32.4011 43.4664 32.4529 44.1719 33.1679C44.8772 33.8839 44.9137 34.9942 44.2529 35.6454C43.9527 35.9408 43.5591 36.0886 43.1543 36.0976L43.1211 36.9687L43.123 41.7216C43.5049 41.7359 43.8757 41.8774 44.166 42.1503C44.8412 42.7862 44.8308 43.895 44.1426 44.6269C43.4967 45.3123 42.4832 45.4245 41.8027 44.912L41.6709 44.8007L41.5459 44.9189C40.8974 45.471 39.8802 45.4216 39.1943 44.7763C38.4633 44.0874 38.3862 42.9811 39.0215 42.3056C39.3105 41.9988 39.6981 41.8338 40.1025 41.8095L40.0986 37.3017H40.0977V36.7988L40.1025 36.7099H40.1035L40.1094 36.6337L40.1289 36.0878V36.0722C39.7486 36.043 39.3837 35.8896 39.1045 35.6064C38.4542 34.9456 38.5076 33.838 39.2227 33.1328ZM43.0518 34.5136C43.0675 34.502 43.0853 34.4915 43.1006 34.4765L43.0566 34.4316L43.0518 34.5136ZM41.6406 33.1074H41.752L41.6973 33.0517L41.6406 33.1074Z" fill="#F1EFF7"/>
<path d="M30.2222 26.2051V47.9102" stroke="#F1EFF7" stroke-width="2" stroke-linecap="round"/>
<path d="M36.1499 36.2422L23.9415 36.3195" stroke="#F1EFF7" stroke-width="2" stroke-linecap="round"/>
<path d="M33.7085 41.8133L26.3834 41.8131" stroke="#F1EFF7" stroke-width="2" stroke-linecap="round"/>
<path d="M33.7085 30.8261L26.3834 30.8259" stroke="#F1EFF7" stroke-width="2" stroke-linecap="round"/>
<path d="M30.2217 47.8256C32.9418 47.8256 34.6487 48.1424 35.6445 48.6361C36.1238 48.8738 36.4022 49.1345 36.5654 49.389C36.7265 49.6404 36.8183 49.9521 36.8184 50.3646C36.8184 51.2304 36.3479 52.5792 35.3242 53.4994C34.3698 54.3571 32.8538 54.9143 30.541 54.1361L30.2217 54.0297L29.9033 54.1361C27.5905 54.9144 26.0736 54.3572 25.1191 53.4994C24.0955 52.5792 23.625 51.2304 23.625 50.3646C23.6252 49.7591 23.9755 49.156 25.085 48.6498C26.2141 48.1347 27.9506 47.8256 30.2217 47.8256Z" stroke="#F1EFF7" stroke-width="2"/>
<path d="M30.2217 5.5C32.9672 5.5 35.4709 7.64919 36.4258 10.9297C36.6791 11.8001 36.8184 12.7407 36.8184 13.7246C36.8184 14.8758 36.628 15.9677 36.2871 16.957C36.2293 17.1249 36.0614 17.3273 35.7061 17.5469C34.3598 18.3786 33.3686 19.704 32.5957 20.5498C31.7537 21.4713 31.1017 21.9492 30.2217 21.9492C29.6716 21.9492 29.2883 21.8414 28.9707 21.6758C28.6375 21.502 28.3222 21.2371 27.9375 20.8398C27.1974 20.0755 26.2088 18.799 24.5654 17.5645C24.3789 17.4243 24.2729 17.2793 24.2266 17.1543C23.8416 16.1137 23.625 14.9528 23.625 13.7246C23.625 12.7407 23.7643 11.8001 24.0176 10.9297C24.9724 7.64923 27.4762 5.50006 30.2217 5.5Z" stroke="#F1EFF7" stroke-width="2"/>
<path d="M21.8086 22.7949C22.121 21.9218 23.1417 21.4866 24.0879 21.8242C25.0332 22.1624 25.5469 23.1445 25.2363 24.0175L25.3955 24.084C26.1609 24.4567 26.5217 25.4092 26.2061 26.2959L26.1348 26.4677C25.745 27.3026 24.8297 27.7384 24.0107 27.4463L23.8682 27.3857C23.5415 27.2304 23.2862 26.969 23.125 26.6533L22.3623 26.9863L18.0508 29.0732C18.2033 29.4228 18.2373 29.8178 18.1182 30.1972C17.839 31.0818 16.8345 31.5539 15.876 31.2519C14.9183 30.9495 14.3675 29.9878 14.6455 29.1035L14.6465 29.1025L14.4854 29.0429C13.7059 28.6995 13.3085 27.7616 13.5908 26.8633C13.8932 25.9054 14.8557 25.3535 15.7402 25.6318C16.1418 25.7586 16.4585 26.0354 16.6562 26.3886L20.7129 24.4277L20.7119 24.4248L21.0615 24.2558L21.1172 24.2324L21.2012 24.1924L21.248 24.1718L21.2969 24.1523L21.832 23.9199C21.693 23.5649 21.6752 23.1694 21.8086 22.7949Z" fill="#F1EFF7"/>
</g>
<defs>
<filter id="filter0_ii_13728_7757" x="-2.5" y="-3" width="63" height="63" filterUnits="userSpaceOnUse" color-interpolation-filters="sRGB">
<feFlood flood-opacity="0" result="BackgroundImageFix"/>
<feBlend mode="normal" in="SourceGraphic" in2="BackgroundImageFix" result="shape"/>
<feColorMatrix in="SourceAlpha" type="matrix" values="0 0 0 0 0 0 0 0 0 0 0 0 0 0 0 0 0 0 127 0" result="hardAlpha"/>
<feOffset dx="-3" dy="-6"/>
<feGaussianBlur stdDeviation="1.5"/>
<feComposite in2="hardAlpha" operator="arithmetic" k2="-1" k3="1"/>
<feColorMatrix type="matrix" values="0 0 0 0 1 0 0 0 0 1 0 0 0 0 1 0 0 0 0.15 0"/>
<feBlend mode="normal" in2="shape" result="effect1_innerShadow_13728_7757"/>
<feColorMatrix in="SourceAlpha" type="matrix" values="0 0 0 0 0 0 0 0 0 0 0 0 0 0 0 0 0 0 127 0" result="hardAlpha"/>
<feOffset/>
<feGaussianBlur stdDeviation="5"/>
<feComposite in2="hardAlpha" operator="arithmetic" k2="-1" k3="1"/>
<feColorMatrix type="matrix" values="0 0 0 0 1 0 0 0 0 1 0 0 0 0 1 0 0 0 0.2 0"/>
<feBlend mode="normal" in2="effect1_innerShadow_13728_7757" result="effect2_innerShadow_13728_7757"/>
</filter>
<clipPath id="clip0_13728_7757">
<rect width="60" height="60" fill="white" transform="translate(0.5)"/>
</clipPath>
</defs>
</svg>
