<svg width="61" height="60" viewBox="0 0 61 60" fill="none" xmlns="http://www.w3.org/2000/svg">
<g clip-path="url(#clip0_13728_8081)">
<g filter="url(#filter0_ii_13728_8081)">
<circle cx="30.5" cy="30" r="30" fill="#A086D7"/>
</g>
<path fill-rule="evenodd" clip-rule="evenodd" d="M24 27.1323C24.8284 27.1323 25.5 27.8039 25.5 28.6323C25.5 29.4607 24.8284 30.1323 24 30.1323C23.1716 30.1323 22.5 29.4607 22.5 28.6323C22.5 27.8039 23.1716 27.1323 24 27.1323ZM24 28.1323C23.7239 28.1323 23.5 28.3562 23.5 28.6323C23.5 28.9084 23.7239 29.1323 24 29.1323C24.2761 29.1323 24.5 28.9084 24.5 28.6323C24.5 28.3562 24.2761 28.1323 24 28.1323Z" fill="#F1EFF7"/>
<path fill-rule="evenodd" clip-rule="evenodd" d="M39 27.0073C39.8283 27.0073 40.4998 27.679 40.5 28.5073C40.5 29.3357 39.8284 30.0073 39 30.0073C38.1716 30.0073 37.5 29.3357 37.5 28.5073C37.5002 27.679 38.1717 27.0073 39 27.0073ZM39 28.0073C38.724 28.0073 38.5002 28.2313 38.5 28.5073C38.5 28.7834 38.7239 29.0073 39 29.0073C39.2761 29.0073 39.5 28.7834 39.5 28.5073C39.4998 28.2313 39.276 28.0073 39 28.0073Z" fill="#F1EFF7"/>
<path fill-rule="evenodd" clip-rule="evenodd" d="M26.5898 9.71823C28.2442 8.76032 34.3055 8.76061 35.4092 9.71823C36.7165 10.8544 36.607 12.857 37.6152 13.5512C48.0856 14.9884 50.4985 18.6701 50.5 19.6294C50.4995 20.5876 48.5676 23.4149 46.9863 27.9243C46.2247 30.0965 45.601 32.5002 45.0732 35.1108C43.7602 41.607 43.4491 46.4794 43.6797 49.4848L43.6748 49.563C43.2752 52.8112 18.1728 52.8112 17.7734 49.563L17.7695 49.4848C17.7695 45.0904 17.5044 41.607 16.0352 35.1108C15.4376 32.469 14.4618 30.0799 13.9102 27.9243C11.9105 22.7815 10.5002 20.5871 10.5 19.6294C10.5013 18.6701 12.2597 14.5094 24.3838 13.5512C26.2636 12.6335 25.4873 10.3574 26.5898 9.71823ZM31.5244 31.9653C30.9449 32.9162 30.2349 33.7433 29.3262 34.3969C27.8237 35.4774 25.8973 36.0062 23.4072 36.0063C21.4143 36.0063 19.4713 35.4231 17.9053 34.3257C17.9325 34.4396 17.9603 34.5543 17.9863 34.6694C19.4105 40.966 19.7356 44.557 19.7656 48.7856C20.2577 48.9915 21.0561 49.2097 22.1582 49.3999C24.4356 49.7928 27.5515 49.9995 30.7246 49.9995C33.8978 49.9995 37.0137 49.7928 39.291 49.3999C40.3599 49.2154 41.1425 49.0044 41.6377 48.8042C41.4998 45.5451 41.8883 40.7744 43.1133 34.7143C43.1186 34.6878 43.1235 34.6608 43.1289 34.6342C41.9222 35.5076 40.47 36.0062 38.8994 36.0063C36.7059 36.0063 34.9348 35.4632 33.542 34.3725C32.7125 33.7229 32.0539 32.9065 31.5244 31.9653ZM31.2061 10.9995C30.3531 10.9995 29.5044 11.0546 28.7998 11.1577C28.4479 11.2092 28.155 11.2692 27.9287 11.3315C27.9071 11.3375 27.8868 11.3453 27.8672 11.351C27.8375 11.4813 27.8011 11.6615 27.7256 11.9848C27.5165 12.8793 27.0542 14.473 25.2617 15.3481L24.9199 15.5151L24.542 15.5444C18.6681 16.0086 15.5629 17.2337 13.9893 18.2641C12.9669 18.9338 12.6407 19.4739 12.54 19.6733C12.5578 19.7261 12.5826 19.7957 12.6162 19.8823C12.7535 20.2355 12.9647 20.7029 13.2725 21.3725C13.6852 22.2706 14.2246 23.4366 14.8525 24.9262C15.0589 24.166 15.3516 23.3802 15.7373 22.5747C15.9761 22.077 16.5734 21.8655 17.0713 22.104C17.5688 22.3425 17.7789 22.9402 17.541 23.438C15.9375 26.7863 16.3087 29.396 17.5107 31.144C18.74 32.931 20.963 34.0063 23.4072 34.0063C25.6145 34.0062 27.0923 33.5402 28.1582 32.7739C29.223 32.0079 29.9924 30.8581 30.6318 29.2661C30.6687 29.1648 30.7229 29.0696 30.79 28.9848C30.7959 28.9774 30.8025 28.9696 30.8086 28.9624C30.8445 28.9198 30.8847 28.8796 30.9277 28.8432C30.9337 28.8382 30.9402 28.8325 30.9463 28.8276C30.9656 28.8121 30.9862 28.7968 31.0068 28.7827C31.0099 28.7806 31.0135 28.7779 31.0166 28.7759C31.0647 28.7437 31.1164 28.7147 31.1709 28.6909C31.1833 28.6854 31.1964 28.6802 31.209 28.6753C31.2216 28.6704 31.2352 28.6651 31.248 28.6606C31.2524 28.6591 31.2573 28.6572 31.2617 28.6557L31.3516 28.6303C31.3755 28.6249 31.4004 28.6214 31.4248 28.6176C31.4322 28.6165 31.4399 28.6147 31.4473 28.6137C31.6105 28.5927 31.7817 28.612 31.9453 28.6772C32.2367 28.7937 32.4421 29.0328 32.5283 29.311C33.075 30.8895 33.8034 32.0378 34.7744 32.7983C35.7401 33.5545 37.047 34.0063 38.8994 34.0063C42.6814 34.0058 46.3309 29.5284 43.5771 23.4175C43.3505 22.9141 43.574 22.3212 44.0771 22.0942C44.5803 21.868 45.1734 22.0923 45.4004 22.5952C45.709 23.2801 45.9483 23.9589 46.126 24.6245C46.6345 23.431 47.1285 22.4064 47.54 21.5659C47.894 20.8431 48.1572 20.3133 48.3408 19.894C48.3654 19.8378 48.3864 19.7854 48.4053 19.7397C48.3969 19.7285 48.3882 19.7156 48.3789 19.7036C48.1539 19.4136 47.7077 18.9662 46.9092 18.4565C45.3099 17.4359 42.3878 16.2251 37.3428 15.5327L36.8721 15.4673L36.4805 15.1987C35.8397 14.7575 35.4684 14.1705 35.2402 13.7153C35.0218 13.2791 34.855 12.7904 34.7422 12.476C34.5053 11.8161 34.3539 11.5028 34.1826 11.312C34.1757 11.3096 34.1681 11.3068 34.1602 11.3042C34.0175 11.2575 33.7935 11.2034 33.4834 11.1538C32.8655 11.055 32.0621 10.9995 31.2061 10.9995Z" fill="#F1EFF7"/>
</g>
<defs>
<filter id="filter0_ii_13728_8081" x="-2.5" y="-3" width="63" height="63" filterUnits="userSpaceOnUse" color-interpolation-filters="sRGB">
<feFlood flood-opacity="0" result="BackgroundImageFix"/>
<feBlend mode="normal" in="SourceGraphic" in2="BackgroundImageFix" result="shape"/>
<feColorMatrix in="SourceAlpha" type="matrix" values="0 0 0 0 0 0 0 0 0 0 0 0 0 0 0 0 0 0 127 0" result="hardAlpha"/>
<feOffset dx="-3" dy="-6"/>
<feGaussianBlur stdDeviation="1.5"/>
<feComposite in2="hardAlpha" operator="arithmetic" k2="-1" k3="1"/>
<feColorMatrix type="matrix" values="0 0 0 0 1 0 0 0 0 1 0 0 0 0 1 0 0 0 0.15 0"/>
<feBlend mode="normal" in2="shape" result="effect1_innerShadow_13728_8081"/>
<feColorMatrix in="SourceAlpha" type="matrix" values="0 0 0 0 0 0 0 0 0 0 0 0 0 0 0 0 0 0 127 0" result="hardAlpha"/>
<feOffset/>
<feGaussianBlur stdDeviation="5"/>
<feComposite in2="hardAlpha" operator="arithmetic" k2="-1" k3="1"/>
<feColorMatrix type="matrix" values="0 0 0 0 1 0 0 0 0 1 0 0 0 0 1 0 0 0 0.2 0"/>
<feBlend mode="normal" in2="effect1_innerShadow_13728_8081" result="effect2_innerShadow_13728_8081"/>
</filter>
<clipPath id="clip0_13728_8081">
<rect width="60" height="60" fill="white" transform="translate(0.5)"/>
</clipPath>
</defs>
</svg>
