<svg width="61" height="60" viewBox="0 0 61 60" fill="none" xmlns="http://www.w3.org/2000/svg">
<g clip-path="url(#clip0_13728_7891)">
<g filter="url(#filter0_ii_13728_7891)">
<circle cx="30.5" cy="30" r="30" fill="#A086D7"/>
</g>
<circle cx="30" cy="40.5" r="12.5" stroke="#F1EFF7" stroke-width="2"/>
<circle cx="30" cy="40.5" r="7" stroke="#F1EFF7" stroke-width="2"/>
<path d="M13.3462 13.5L16.2313 21.6738C16.2825 21.8189 16.4715 21.8542 16.5717 21.7374L19.1166 18.7684C19.2177 18.6503 19.409 18.6878 19.4581 18.8353L21.8461 26.0004" stroke="#F1EFF7" stroke-width="2" stroke-linecap="round"/>
<path d="M30.5155 9.1402L27.8554 17.3899C27.8082 17.5364 27.9372 17.6791 28.0876 17.6469L31.9114 16.8281C32.0634 16.7956 32.1928 16.9413 32.1425 17.0884L29.6984 24.2346" stroke="#F1EFF7" stroke-width="2" stroke-linecap="round"/>
<path d="M47.9756 13.4623L44.0443 21.1875C43.9745 21.3246 43.7824 21.3349 43.6984 21.2059L41.5646 17.929C41.4798 17.7987 41.2852 17.8108 41.2172 17.9506L37.9109 24.741" stroke="#F1EFF7" stroke-width="2" stroke-linecap="round"/>
<circle cx="30" cy="40.5" r="2.5" fill="#F1EFF7"/>
</g>
<defs>
<filter id="filter0_ii_13728_7891" x="-2.5" y="-3" width="63" height="63" filterUnits="userSpaceOnUse" color-interpolation-filters="sRGB">
<feFlood flood-opacity="0" result="BackgroundImageFix"/>
<feBlend mode="normal" in="SourceGraphic" in2="BackgroundImageFix" result="shape"/>
<feColorMatrix in="SourceAlpha" type="matrix" values="0 0 0 0 0 0 0 0 0 0 0 0 0 0 0 0 0 0 127 0" result="hardAlpha"/>
<feOffset dx="-3" dy="-6"/>
<feGaussianBlur stdDeviation="1.5"/>
<feComposite in2="hardAlpha" operator="arithmetic" k2="-1" k3="1"/>
<feColorMatrix type="matrix" values="0 0 0 0 1 0 0 0 0 1 0 0 0 0 1 0 0 0 0.15 0"/>
<feBlend mode="normal" in2="shape" result="effect1_innerShadow_13728_7891"/>
<feColorMatrix in="SourceAlpha" type="matrix" values="0 0 0 0 0 0 0 0 0 0 0 0 0 0 0 0 0 0 127 0" result="hardAlpha"/>
<feOffset/>
<feGaussianBlur stdDeviation="5"/>
<feComposite in2="hardAlpha" operator="arithmetic" k2="-1" k3="1"/>
<feColorMatrix type="matrix" values="0 0 0 0 1 0 0 0 0 1 0 0 0 0 1 0 0 0 0.2 0"/>
<feBlend mode="normal" in2="effect1_innerShadow_13728_7891" result="effect2_innerShadow_13728_7891"/>
</filter>
<clipPath id="clip0_13728_7891">
<rect width="60" height="60" fill="white" transform="translate(0.5)"/>
</clipPath>
</defs>
</svg>
