<svg width="60" height="60" viewBox="0 0 60 60" fill="none" xmlns="http://www.w3.org/2000/svg">
<g clip-path="url(#clip0_13728_6744)" filter="url(#filter0_ii_13728_6744)">
<g filter="url(#filter1_ii_13728_6744)">
<circle cx="30" cy="30" r="30" fill="#A086D7"/>
</g>
<path d="M31.3613 28.6387H38.8477V30.6807H31.3613V38.8477H29.3193V30.6807H21.1523V28.6387H29.3193V21.1523H31.3613V28.6387Z" fill="#F1EFF7"/>
<path fill-rule="evenodd" clip-rule="evenodd" d="M30 11.5C40.2173 11.5 48.5 19.7827 48.5 30C48.5 40.2173 40.2173 48.5 30 48.5C19.7827 48.5 11.5 40.2173 11.5 30C11.5 19.7827 19.7827 11.5 30 11.5ZM30 13.9131C21.1154 13.9131 13.9131 21.1154 13.9131 30C13.9131 38.8846 21.1154 46.0869 30 46.0869C38.8846 46.0869 46.0869 38.8846 46.0869 30C46.0869 21.1154 38.8846 13.9131 30 13.9131Z" fill="#F1EFF7"/>
</g>
<defs>
<filter id="filter0_ii_13728_6744" x="-3" y="-3" width="63" height="63" filterUnits="userSpaceOnUse" color-interpolation-filters="sRGB">
<feFlood flood-opacity="0" result="BackgroundImageFix"/>
<feBlend mode="normal" in="SourceGraphic" in2="BackgroundImageFix" result="shape"/>
<feColorMatrix in="SourceAlpha" type="matrix" values="0 0 0 0 0 0 0 0 0 0 0 0 0 0 0 0 0 0 127 0" result="hardAlpha"/>
<feOffset dx="-3" dy="-6"/>
<feGaussianBlur stdDeviation="1.5"/>
<feComposite in2="hardAlpha" operator="arithmetic" k2="-1" k3="1"/>
<feColorMatrix type="matrix" values="0 0 0 0 1 0 0 0 0 1 0 0 0 0 1 0 0 0 0.15 0"/>
<feBlend mode="normal" in2="shape" result="effect1_innerShadow_13728_6744"/>
<feColorMatrix in="SourceAlpha" type="matrix" values="0 0 0 0 0 0 0 0 0 0 0 0 0 0 0 0 0 0 127 0" result="hardAlpha"/>
<feOffset/>
<feGaussianBlur stdDeviation="5"/>
<feComposite in2="hardAlpha" operator="arithmetic" k2="-1" k3="1"/>
<feColorMatrix type="matrix" values="0 0 0 0 1 0 0 0 0 1 0 0 0 0 1 0 0 0 0.2 0"/>
<feBlend mode="normal" in2="effect1_innerShadow_13728_6744" result="effect2_innerShadow_13728_6744"/>
</filter>
<filter id="filter1_ii_13728_6744" x="-3" y="-3" width="63" height="63" filterUnits="userSpaceOnUse" color-interpolation-filters="sRGB">
<feFlood flood-opacity="0" result="BackgroundImageFix"/>
<feBlend mode="normal" in="SourceGraphic" in2="BackgroundImageFix" result="shape"/>
<feColorMatrix in="SourceAlpha" type="matrix" values="0 0 0 0 0 0 0 0 0 0 0 0 0 0 0 0 0 0 127 0" result="hardAlpha"/>
<feOffset dx="-3" dy="-6"/>
<feGaussianBlur stdDeviation="1.5"/>
<feComposite in2="hardAlpha" operator="arithmetic" k2="-1" k3="1"/>
<feColorMatrix type="matrix" values="0 0 0 0 1 0 0 0 0 1 0 0 0 0 1 0 0 0 0.15 0"/>
<feBlend mode="normal" in2="shape" result="effect1_innerShadow_13728_6744"/>
<feColorMatrix in="SourceAlpha" type="matrix" values="0 0 0 0 0 0 0 0 0 0 0 0 0 0 0 0 0 0 127 0" result="hardAlpha"/>
<feOffset/>
<feGaussianBlur stdDeviation="5"/>
<feComposite in2="hardAlpha" operator="arithmetic" k2="-1" k3="1"/>
<feColorMatrix type="matrix" values="0 0 0 0 1 0 0 0 0 1 0 0 0 0 1 0 0 0 0.2 0"/>
<feBlend mode="normal" in2="effect1_innerShadow_13728_6744" result="effect2_innerShadow_13728_6744"/>
</filter>
<clipPath id="clip0_13728_6744">
<rect width="60" height="60" fill="white"/>
</clipPath>
</defs>
</svg>
