<svg width="61" height="61" viewBox="0 0 61 61" fill="none" xmlns="http://www.w3.org/2000/svg">
<g clip-path="url(#clip0_13728_8358)">
<g filter="url(#filter0_ii_13728_8358)">
<circle cx="30.5" cy="30.4" r="30" fill="#A086D7"/>
</g>
<path d="M43.6279 27.7398C43.5538 28.1472 43.1632 28.4172 42.7559 28.3434C42.3484 28.2692 42.0783 27.8788 42.1523 27.4713L43.6279 27.7398Z" fill="#F1EFF7"/>
<path fill-rule="evenodd" clip-rule="evenodd" d="M40.834 14.4C46.9603 14.4 51.9268 19.603 51.9268 26.0211C51.9267 27.8379 51.528 29.5569 50.8184 31.0885C48.1098 38.607 36.5645 47.9926 30.5638 51.7908C30.4551 51.8597 30.3208 51.8498 30.2211 51.7683C25.9798 48.3039 18.7734 42.6494 14.2607 36.9714C14.2035 36.8995 14.1173 36.858 14.0254 36.858H6.5C5.94773 36.858 5.50003 36.4103 5.5 35.858C5.50016 35.3059 5.94781 34.858 6.5 34.858H12.1524C12.3918 34.858 12.5354 34.5908 12.4074 34.3885C11.6411 33.1764 11.0389 31.9786 10.6582 30.816C10.0249 29.3538 9.66897 27.7313 9.66895 26.0211C9.66895 19.6031 14.6355 14.4001 20.7617 14.4C25.0217 14.4 28.718 16.9172 30.5763 20.608C30.6178 20.6904 30.7055 20.7389 30.7979 20.7389C30.8896 20.7389 30.9767 20.6908 31.018 20.6088C32.8761 16.9174 36.5736 14.4001 40.834 14.4ZM40.834 16.4C37.3411 16.4001 34.2581 18.496 32.7334 21.6529L32.4063 22.3278C32.3882 22.3651 32.3785 22.4059 32.3753 22.4472C32.3121 23.2645 31.6313 23.9078 30.7979 23.9078C29.9647 23.9077 29.2829 23.2648 29.2194 22.4479C29.2163 22.4067 29.2066 22.3662 29.1886 22.329L28.8623 21.6529C27.3852 18.5946 24.4458 16.5318 21.0879 16.4059L20.7617 16.4C15.8267 16.4001 11.6689 20.619 11.6689 26.0211C11.669 27.4517 11.9661 28.8042 12.4932 30.0211L12.5303 30.106L12.5586 30.1939C13.0233 31.613 13.8997 33.1446 15.0675 34.7364C15.1237 34.813 15.2132 34.858 15.3082 34.858H18.2979C18.4205 34.858 18.5308 34.7833 18.5764 34.6694L20.3575 30.2148C20.4496 29.9844 20.7657 29.959 20.8933 30.1718L23.2633 34.1211C23.3977 34.3452 23.7345 34.3021 23.8083 34.0514L26.2204 25.852C26.3023 25.5733 26.693 25.5621 26.7907 25.8357L31.3527 38.6096C31.4525 38.889 31.8541 38.8694 31.9262 38.5816L31.9414 38.5211L31.9531 38.4703L31.9717 38.4215L34.1035 32.5572L34.1299 32.5055L35.7139 29.3365L35.7383 29.2887L35.7666 29.2437L36.8232 27.5943L36.865 27.5296C36.8762 27.5122 36.8891 27.4961 36.9036 27.4814L36.958 27.4264L39.5996 24.7857L39.6104 24.774L39.6221 24.7633L40.6621 23.7867C40.7551 23.6935 40.6626 23.5378 40.5363 23.5748L38.2012 24.2594L38.127 24.2769C37.7532 24.3465 37.3798 24.1222 37.2705 23.7496C37.1545 23.3524 37.3822 22.9355 37.7793 22.8189L44.4346 20.8708C44.6488 20.808 44.8542 20.9929 44.8141 21.2125L43.6279 27.7398L42.8896 27.6051L42.1523 27.4713L42.5176 25.4595C42.5651 25.1977 42.2466 25.031 42.0586 25.2193L42.0469 25.2301L41.0137 26.1998L38.4723 28.7392C38.457 28.7546 38.4433 28.7715 38.4316 28.7898L37.4775 30.2809L35.9453 33.3443L33.8672 39.0572L32.2639 45.4749C32.1919 45.7629 31.7901 45.7825 31.6903 45.503L26.9742 32.2978C26.8765 32.0242 26.4859 32.0353 26.4039 32.314L24.4402 38.9923C24.3664 39.2431 24.0295 39.2862 23.8951 39.062L21.2526 34.6578C21.1249 34.445 20.809 34.4704 20.7168 34.7007L19.9298 36.6692C19.8843 36.7832 19.774 36.858 19.6512 36.858H17.4138C17.1573 36.858 17.0199 37.1582 17.1897 37.3503C18.2427 38.5418 19.4164 39.7495 20.668 40.9508C23.9628 44.1134 27.5546 47.0248 30.3472 49.293C30.4494 49.376 30.5926 49.3827 30.7017 49.3091C33.4701 47.44 37.0945 44.6387 40.4355 41.4918C44.4257 37.7334 47.7394 33.7335 48.9365 30.4107L48.9668 30.3277L49.0039 30.2477C49.5932 28.9756 49.9267 27.5431 49.9268 26.0211C49.9268 20.6189 45.7691 16.4 40.834 16.4Z" fill="#F1EFF7"/>
</g>
<defs>
<filter id="filter0_ii_13728_8358" x="-2.5" y="-2.60001" width="63" height="63" filterUnits="userSpaceOnUse" color-interpolation-filters="sRGB">
<feFlood flood-opacity="0" result="BackgroundImageFix"/>
<feBlend mode="normal" in="SourceGraphic" in2="BackgroundImageFix" result="shape"/>
<feColorMatrix in="SourceAlpha" type="matrix" values="0 0 0 0 0 0 0 0 0 0 0 0 0 0 0 0 0 0 127 0" result="hardAlpha"/>
<feOffset dx="-3" dy="-6"/>
<feGaussianBlur stdDeviation="1.5"/>
<feComposite in2="hardAlpha" operator="arithmetic" k2="-1" k3="1"/>
<feColorMatrix type="matrix" values="0 0 0 0 1 0 0 0 0 1 0 0 0 0 1 0 0 0 0.15 0"/>
<feBlend mode="normal" in2="shape" result="effect1_innerShadow_13728_8358"/>
<feColorMatrix in="SourceAlpha" type="matrix" values="0 0 0 0 0 0 0 0 0 0 0 0 0 0 0 0 0 0 127 0" result="hardAlpha"/>
<feOffset/>
<feGaussianBlur stdDeviation="5"/>
<feComposite in2="hardAlpha" operator="arithmetic" k2="-1" k3="1"/>
<feColorMatrix type="matrix" values="0 0 0 0 1 0 0 0 0 1 0 0 0 0 1 0 0 0 0.2 0"/>
<feBlend mode="normal" in2="effect1_innerShadow_13728_8358" result="effect2_innerShadow_13728_8358"/>
</filter>
<clipPath id="clip0_13728_8358">
<rect width="60" height="60" fill="white" transform="translate(0.5 0.399994)"/>
</clipPath>
</defs>
</svg>
