<svg width="61" height="61" viewBox="0 0 61 61" fill="none" xmlns="http://www.w3.org/2000/svg">
<g clip-path="url(#clip0_13728_7960)">
<g filter="url(#filter0_ii_13728_7960)">
<circle cx="30.5" cy="30.8" r="30" fill="#A086D7"/>
</g>
<path d="M28.6113 9.79999C30.7223 9.79999 32.4336 11.5113 32.4336 13.6223C32.4336 13.8752 32.4082 14.1223 32.3613 14.3615L41.0771 19.6457C41.776 18.8803 42.7822 18.4007 43.9004 18.4006C46.0114 18.4006 47.7226 20.1119 47.7227 22.2228C47.7224 23.9713 46.5482 25.4441 44.9453 25.8986V30.0744C45.4357 29.9391 45.9505 29.8664 46.4814 29.8664C49.8059 29.8667 52.5008 32.6903 52.501 36.173C52.5009 37.1582 52.2839 38.0904 51.8994 38.9211C50.4431 42.9672 44.2697 48.0108 40.9902 50.1057C40.8818 50.1749 40.7452 50.1655 40.6455 50.0842C39.3807 49.0525 37.6555 47.6747 35.9541 46.1408L32.3701 48.2902C32.4108 48.5136 32.4336 48.7436 32.4336 48.9787C32.4335 51.0896 30.7223 52.801 28.6113 52.801C26.5005 52.8008 24.7892 51.0895 24.7891 48.9787C24.7891 48.7588 24.8081 48.543 24.8438 48.3332L15.7188 43.3557C15.0632 43.884 14.2298 44.2004 13.3223 44.2004C11.2113 44.2004 9.5 42.4891 9.5 40.3781C9.50015 38.5971 10.7185 37.1011 12.3672 36.6769V25.924C10.7186 25.4999 9.50022 24.0038 9.5 22.2228C9.50002 20.1119 11.2113 18.4006 13.3223 18.4006C14.4664 18.4006 15.4919 18.9038 16.1924 19.7004L24.832 14.2023C24.8032 14.0132 24.7891 13.8194 24.7891 13.6223C24.7891 11.5114 26.5005 9.80012 28.6113 9.79999ZM28.6113 47.1564C27.605 47.1566 26.7891 47.9724 26.7891 48.9787C26.7892 49.985 27.6051 50.8008 28.6113 50.801C29.6177 50.801 30.4335 49.985 30.4336 48.9787C30.4336 47.9723 29.6177 47.1564 28.6113 47.1564ZM46.4814 31.8664C44.967 31.8664 43.5967 32.7751 42.9082 34.2004L42.376 35.3019C42.3675 35.3192 42.3493 35.3303 42.3301 35.3303C42.3081 35.3304 42.2888 35.3447 42.2812 35.3654C42.1359 35.7751 41.6329 36.0782 41.0342 36.0783C40.4347 36.0783 39.9308 35.775 39.7861 35.3644C39.7787 35.3434 39.7587 35.3283 39.7363 35.3283C39.7172 35.3282 39.6999 35.3171 39.6914 35.3L39.1602 34.2004C38.5146 32.8642 37.2703 31.9824 35.8701 31.8771L35.5879 31.8664C33.521 31.8664 31.6863 33.593 31.5732 35.9435L31.5674 36.173C31.5674 36.7421 31.6711 37.2821 31.8564 37.7756L31.9414 37.9846L31.9775 38.0695L32.0068 38.1574C32.503 39.6665 34.0603 41.5909 36.1729 43.6183C37.7021 45.0859 39.3504 46.4514 40.752 47.593C40.8559 47.6776 41.003 47.6833 41.1123 47.6057C42.4696 46.6421 44.1098 45.3408 45.6377 43.9016C47.7883 41.8756 49.4466 39.8297 50.0176 38.2433L50.0479 38.1613L50.085 38.0812C50.3499 37.5088 50.5009 36.8624 50.501 36.173C50.5008 33.7832 48.7307 31.9818 46.6807 31.8713L46.4814 31.8664ZM17.0762 21.508C17.12 21.7395 17.1445 21.9786 17.1445 22.2228C17.1443 23.9712 15.9699 25.444 14.3672 25.8986V36.7014C15.9701 37.156 17.1444 38.6296 17.1445 40.3781C17.1445 40.8511 17.0574 41.3038 16.9004 41.7219L25.6885 46.5158C26.3896 45.6845 27.4387 45.1565 28.6113 45.1564C29.7665 45.1564 30.8011 45.6697 31.502 46.4797L34.4395 44.717C32.4637 42.7771 30.7344 40.6923 30.1064 38.7814C29.7613 37.9865 29.5674 37.1033 29.5674 36.173C29.5677 32.6902 32.2632 29.8664 35.5879 29.8664C37.9105 29.8666 39.925 31.2455 40.9287 33.2639C40.9486 33.3039 40.9885 33.3302 41.0332 33.3303C41.078 33.3302 41.1197 33.304 41.1396 33.2639C41.5723 32.3939 42.1934 31.6437 42.9453 31.0705V25.924C41.2969 25.4997 40.0783 24.0037 40.0781 22.2228C40.0781 21.9508 40.1071 21.6849 40.1611 21.4289L31.4688 16.1594C30.7686 16.9473 29.7483 17.4445 28.6113 17.4445C27.4213 17.4444 26.3582 16.9007 25.6572 16.048L17.0762 21.508ZM13.3223 38.5558C12.316 38.5559 11.5002 39.3718 11.5 40.3781C11.5 41.3845 12.3159 42.2004 13.3223 42.2004C14.3287 42.2004 15.1445 41.3845 15.1445 40.3781C15.1444 39.3718 14.3286 38.5558 13.3223 38.5558ZM43.9004 20.4006C42.8942 20.4008 42.0781 21.2166 42.0781 22.2228C42.0784 23.2289 42.8943 24.0449 43.9004 24.0451C44.9067 24.0451 45.7224 23.2291 45.7227 22.2228C45.7226 21.2164 44.9068 20.4006 43.9004 20.4006ZM13.3223 20.4006C12.3159 20.4006 11.5 21.2164 11.5 22.2228C11.5003 23.229 12.316 24.0451 13.3223 24.0451C14.3285 24.0451 15.1443 23.2291 15.1445 22.2228C15.1445 21.2164 14.3287 20.4006 13.3223 20.4006ZM28.6113 11.8C27.605 11.8001 26.7891 12.6159 26.7891 13.6223C26.7891 14.6286 27.605 15.4444 28.6113 15.4445C29.6178 15.4445 30.4336 14.6287 30.4336 13.6223C30.4336 12.6158 29.6177 11.8 28.6113 11.8Z" fill="#F1EFF7"/>
</g>
<defs>
<filter id="filter0_ii_13728_7960" x="-2.5" y="-2.20001" width="63" height="63" filterUnits="userSpaceOnUse" color-interpolation-filters="sRGB">
<feFlood flood-opacity="0" result="BackgroundImageFix"/>
<feBlend mode="normal" in="SourceGraphic" in2="BackgroundImageFix" result="shape"/>
<feColorMatrix in="SourceAlpha" type="matrix" values="0 0 0 0 0 0 0 0 0 0 0 0 0 0 0 0 0 0 127 0" result="hardAlpha"/>
<feOffset dx="-3" dy="-6"/>
<feGaussianBlur stdDeviation="1.5"/>
<feComposite in2="hardAlpha" operator="arithmetic" k2="-1" k3="1"/>
<feColorMatrix type="matrix" values="0 0 0 0 1 0 0 0 0 1 0 0 0 0 1 0 0 0 0.15 0"/>
<feBlend mode="normal" in2="shape" result="effect1_innerShadow_13728_7960"/>
<feColorMatrix in="SourceAlpha" type="matrix" values="0 0 0 0 0 0 0 0 0 0 0 0 0 0 0 0 0 0 127 0" result="hardAlpha"/>
<feOffset/>
<feGaussianBlur stdDeviation="5"/>
<feComposite in2="hardAlpha" operator="arithmetic" k2="-1" k3="1"/>
<feColorMatrix type="matrix" values="0 0 0 0 1 0 0 0 0 1 0 0 0 0 1 0 0 0 0.2 0"/>
<feBlend mode="normal" in2="effect1_innerShadow_13728_7960" result="effect2_innerShadow_13728_7960"/>
</filter>
<clipPath id="clip0_13728_7960">
<rect width="60" height="60" fill="white" transform="translate(0.5 0.799988)"/>
</clipPath>
</defs>
</svg>
