<svg width="61" height="61" viewBox="0 0 61 61" fill="none" xmlns="http://www.w3.org/2000/svg">
<g clip-path="url(#clip0_13728_8076)">
<g filter="url(#filter0_ii_13728_8076)">
<circle cx="30.5" cy="30.8" r="30" fill="#A086D7"/>
</g>
<path fill-rule="evenodd" clip-rule="evenodd" d="M33.5545 28.1083C35.8138 28.1086 37.646 30.0277 37.6463 32.3945C37.6463 33.0686 37.497 33.7069 37.2323 34.2744C36.2435 36.9982 32.1205 40.3824 29.8807 41.8261C29.7726 41.8958 29.6338 41.8867 29.534 41.8056C27.3744 40.046 23.3351 36.8681 22.4364 34.1933C22.1948 33.6465 22.0594 33.0366 22.0594 32.3945C22.0597 30.0276 23.8919 28.1085 26.1512 28.1083C27.7295 28.1087 29.0979 29.0465 29.7801 30.4179C29.7939 30.4452 29.8218 30.4629 29.8524 30.4628C29.883 30.4627 29.911 30.4444 29.9247 30.4169C30.607 29.0455 31.9762 28.1084 33.5545 28.1083ZM33.5545 30.1083C32.7934 30.1084 32.0749 30.5652 31.7039 31.333L31.3026 32.1611C31.2679 32.2328 31.266 32.3154 31.2821 32.3935C31.2933 32.4485 31.2996 32.505 31.2997 32.5624C31.2995 33.1771 30.6514 33.6755 29.8524 33.6757C29.0533 33.6756 28.4053 33.1771 28.4051 32.5624C28.4051 32.5048 28.4104 32.4477 28.4217 32.3925C28.4377 32.3146 28.4358 32.2327 28.4012 32.1611L28.0018 31.333C27.6541 30.6134 27.0004 30.1662 26.2928 30.1132L26.1512 30.1083C25.1495 30.1084 24.1876 30.9306 24.0711 32.1464L24.0594 32.3945C24.0594 32.7541 24.1348 33.0889 24.2655 33.3847L24.3026 33.4687L24.3319 33.5566C24.6232 34.4234 25.5788 35.6354 27.0067 37.0048C27.8707 37.8334 28.7925 38.6107 29.6288 39.2978C29.7343 39.3845 29.8853 39.3891 29.995 39.3076C30.7894 38.7172 31.6888 37.985 32.536 37.1874C33.985 35.8232 35.0153 34.5203 35.3524 33.5917L35.3827 33.5087L35.4198 33.4287C35.563 33.1215 35.6463 32.7714 35.6463 32.3945C35.646 31.0439 34.6228 30.1086 33.5545 30.1083Z" fill="#F1EFF7"/>
<path fill-rule="evenodd" clip-rule="evenodd" d="M17.6014 9.80073C17.9403 9.79508 18.2684 9.80995 18.5516 9.82417C18.8486 9.83908 19.0779 9.85247 19.2762 9.85249H32.0799C33.9155 9.85259 35.5709 10.2938 36.7811 11.33C38.0164 12.388 38.6453 13.944 38.6454 15.8623C38.6453 18.1212 36.9783 19.6365 35.1854 20.5302C34.9218 20.6616 34.6486 20.7809 34.37 20.8925C36.1724 21.5189 37.944 22.4185 39.5135 23.5546C42.749 25.8968 45.272 29.3523 45.2723 33.622C45.2723 41.2894 39.9368 46.145 33.6366 46.8339V50.4882C33.6364 51.5925 32.7408 52.488 31.6366 52.4882H18.0497C16.9455 52.4879 16.0498 51.5924 16.0497 50.4882V46.457C15.5381 46.1924 14.9627 45.7978 14.3963 45.2304C13.1526 43.9843 11.9864 41.9517 11.5526 38.7675C11.3018 36.9247 11.9932 35.035 12.8455 33.3701C13.6883 31.724 14.8297 30.0457 15.617 28.7373C16.3774 27.2032 16.6366 25.9508 16.7049 25.041C16.7739 24.1212 16.6544 23.5396 16.6141 23.2265C16.4174 21.6985 15.9428 20.8667 15.4149 20.0439C14.8638 19.1849 14.1637 18.2226 13.8426 16.6152C13.5014 14.9066 13.4748 13.5718 13.7391 12.538C14.0149 11.46 14.6041 10.7303 15.3866 10.3017C16.1218 9.89908 16.9381 9.81182 17.6014 9.80073ZM17.0497 11.8447C16.7714 11.8847 16.5374 11.9526 16.3475 12.0566C16.0843 12.2008 15.8248 12.4543 15.6766 13.0332C15.5171 13.6572 15.4917 14.6573 15.8045 16.2236C16.0391 17.3978 16.508 18.045 17.0975 18.9638C17.7104 19.9191 18.3486 21.0375 18.5975 22.9716C18.6286 23.2126 18.7876 24.0231 18.7 25.1904C18.6121 26.3612 18.2822 27.881 17.3885 29.6699L17.3709 29.7041L17.3504 29.7373C16.4686 31.2065 15.4384 32.695 14.6258 34.2822C13.8168 35.8626 13.3693 37.2879 13.534 38.498C13.9163 41.3031 14.9123 42.9165 15.8114 43.8173C16.2658 44.2725 16.7071 44.557 17.0536 44.7246C17.1242 44.7587 17.1899 44.7851 17.2479 44.8085H18.0497V50.4882H31.6366V44.8085H33.6366V44.8222C38.9216 44.1528 43.2723 40.0767 43.2723 33.622C43.272 30.2066 41.2572 27.286 38.3407 25.1748C35.4202 23.0608 31.7388 21.872 28.7391 21.872V19.872C28.9228 19.872 29.1087 19.8762 29.2957 19.8837V19.872C30.8548 19.872 32.786 19.4912 34.2928 18.7402C35.829 17.9744 36.6453 16.9847 36.6454 15.8623C36.6453 14.399 36.1826 13.45 35.4803 12.8486C34.7982 12.2646 33.7643 11.8996 32.3641 11.8564L32.0789 11.8525H17.0497V11.8447Z" fill="#F1EFF7"/>
<path d="M46.9745 39.6044C47.3281 39.1806 47.9586 39.1231 48.3827 39.4765L51.7049 42.247C52.1288 42.6007 52.1853 43.2322 51.8319 43.6562C51.4781 44.0799 50.8477 44.1366 50.4237 43.7831L47.1024 41.0126C46.6783 40.6589 46.6209 40.0285 46.9745 39.6044Z" fill="#F1EFF7"/>
<path d="M56.0506 34.2548C56.6026 34.2723 57.0358 34.7342 57.0184 35.2861C57.0009 35.8381 56.5392 36.2714 55.9871 36.2539L48.8133 36.0263L48.7108 36.0185C48.2086 35.9512 47.8291 35.5124 47.8455 34.9951C47.8621 34.4778 48.2689 34.0646 48.7743 34.0292L48.8768 34.0273L56.0506 34.2548Z" fill="#F1EFF7"/>
<path d="M51.0995 26.3046C51.556 25.9939 52.1793 26.1118 52.4901 26.5683C52.8004 27.0247 52.6815 27.6462 52.2254 27.957L48.6502 30.3916C48.1938 30.7022 47.5714 30.5841 47.2606 30.1279C46.9499 29.6714 47.0678 29.049 47.5243 28.7382L51.0995 26.3046Z" fill="#F1EFF7"/>
</g>
<defs>
<filter id="filter0_ii_13728_8076" x="-2.5" y="-2.20001" width="63" height="63" filterUnits="userSpaceOnUse" color-interpolation-filters="sRGB">
<feFlood flood-opacity="0" result="BackgroundImageFix"/>
<feBlend mode="normal" in="SourceGraphic" in2="BackgroundImageFix" result="shape"/>
<feColorMatrix in="SourceAlpha" type="matrix" values="0 0 0 0 0 0 0 0 0 0 0 0 0 0 0 0 0 0 127 0" result="hardAlpha"/>
<feOffset dx="-3" dy="-6"/>
<feGaussianBlur stdDeviation="1.5"/>
<feComposite in2="hardAlpha" operator="arithmetic" k2="-1" k3="1"/>
<feColorMatrix type="matrix" values="0 0 0 0 1 0 0 0 0 1 0 0 0 0 1 0 0 0 0.15 0"/>
<feBlend mode="normal" in2="shape" result="effect1_innerShadow_13728_8076"/>
<feColorMatrix in="SourceAlpha" type="matrix" values="0 0 0 0 0 0 0 0 0 0 0 0 0 0 0 0 0 0 127 0" result="hardAlpha"/>
<feOffset/>
<feGaussianBlur stdDeviation="5"/>
<feComposite in2="hardAlpha" operator="arithmetic" k2="-1" k3="1"/>
<feColorMatrix type="matrix" values="0 0 0 0 1 0 0 0 0 1 0 0 0 0 1 0 0 0 0.2 0"/>
<feBlend mode="normal" in2="effect1_innerShadow_13728_8076" result="effect2_innerShadow_13728_8076"/>
</filter>
<clipPath id="clip0_13728_8076">
<rect width="60" height="60" fill="white" transform="translate(0.5 0.799988)"/>
</clipPath>
</defs>
</svg>
