<svg width="61" height="61" viewBox="0 0 61 61" fill="none" xmlns="http://www.w3.org/2000/svg">
<g clip-path="url(#clip0_13728_8414)">
<g filter="url(#filter0_ii_13728_8414)">
<circle cx="30.5" cy="30.8" r="30" fill="#A086D7"/>
</g>
<path d="M30.9998 29.8C31.5521 29.8 31.9998 30.2477 31.9998 30.8V32.3H33.4998C34.0521 32.3 34.4998 32.7477 34.4998 33.3C34.4998 33.8522 34.0521 34.3 33.4998 34.3H31.9998V35.8C31.9998 36.3522 31.5521 36.8 30.9998 36.8C30.4477 36.7998 29.9998 36.3521 29.9998 35.8V34.3H28.4998C27.9477 34.2998 27.4998 33.8521 27.4998 33.3C27.4998 32.7478 27.9477 32.3001 28.4998 32.3H29.9998V30.8C29.9998 30.2478 30.4477 29.8001 30.9998 29.8Z" fill="#F1EFF7"/>
<path fill-rule="evenodd" clip-rule="evenodd" d="M36.829 19.8C40.6284 19.8 43.7086 23.1027 43.7088 27.1759C43.7088 28.3305 43.4596 29.4227 43.0184 30.3957C41.3467 35.136 34.2713 41.0439 30.5311 43.4836C30.4213 43.5552 30.2831 43.5461 30.1825 43.4621C26.5653 40.4418 19.5981 34.8751 18.1112 30.2121C17.7202 29.2858 17.4999 28.2577 17.4999 27.175C17.5003 23.1021 20.5806 19.8002 24.3797 19.8C27.0347 19.8 29.3373 21.4134 30.4842 23.7746C30.5066 23.8207 30.5531 23.8508 30.6043 23.8507C30.6555 23.8505 30.7031 23.8206 30.7254 23.7746C31.8724 21.4136 34.1742 19.8001 36.829 19.8ZM36.829 21.8C35.0051 21.8001 33.3388 22.9209 32.4969 24.7043L32.2498 25.2287C32.2452 25.2385 32.243 25.249 32.243 25.2599C32.243 26.352 31.509 27.4445 30.6043 27.4445C29.6999 27.444 28.9666 26.1644 28.9666 25.2599C28.9666 25.2503 28.9649 25.2403 28.9608 25.2316L28.7118 24.7043C27.9224 23.0324 26.4086 21.9423 24.7196 21.8127L24.3797 21.8C21.8138 21.8002 19.5003 24.0734 19.4999 27.175C19.4999 27.8838 19.6261 28.5576 19.8514 29.174L19.954 29.4347L19.9891 29.5177L20.0165 29.6046C20.6085 31.4613 22.4461 33.7642 24.8612 36.1369C26.6828 37.9264 28.6525 39.587 30.2938 40.9533C30.3982 41.0402 30.5476 41.0461 30.6581 40.967C32.2538 39.821 34.2166 38.2379 36.0409 36.4796C38.5002 34.1093 40.4482 31.6715 41.1327 29.7306L41.161 29.6486L41.1971 29.5695C41.4818 28.9416 41.66 28.2419 41.7 27.4972L41.7088 27.1759C41.7086 24.0739 39.3949 21.8 36.829 21.8Z" fill="#F1EFF7"/>
<path fill-rule="evenodd" clip-rule="evenodd" d="M23.5204 6.89762C27.0834 6.25234 29.9989 8.93239 31.1356 12.0666C32.5298 9.26557 35.2303 7.10566 38.7625 7.7277C41.8452 8.65651 43.9498 11.1894 44.245 13.9484C46.4496 14.2408 48.5828 15.6179 49.8709 17.8332C51.2108 20.1379 51.3094 22.7882 50.3573 24.8908C52.3707 26.1783 53.7399 28.5794 53.7713 31.3449C53.7989 33.7898 52.7743 35.9737 51.1659 37.3683C52.2183 39.945 51.5564 43.1841 49.2674 45.4621C47.9638 46.7592 46.3503 47.5267 44.7284 47.7511C44.8178 51.0891 42.1751 54.1514 38.4286 54.8302C35.3541 55.3868 32.566 53.3783 31.0858 50.7834C30.0253 52.7849 28.2042 54.4194 25.9364 54.8302C21.8426 55.5714 17.9828 53.1864 17.3153 49.5031C17.2142 48.9448 17.1923 48.3882 17.242 47.8439C15.3225 47.5894 13.43 46.5444 12.077 44.8009C10.4199 42.6651 9.97986 40.0063 10.6854 37.7765C8.44094 36.2934 7.1374 33.3946 7.58969 30.3048C7.9256 28.0118 9.15831 26.0972 10.8241 24.9445C9.84416 22.7806 9.99507 20.0397 11.451 17.7091C12.8136 15.5286 14.9999 14.2176 17.2206 14.0021C17.1167 10.6542 19.7643 7.57838 23.5204 6.89762ZM29.2557 12.7482C28.3007 10.1153 26.1033 8.46273 23.8778 8.86539C20.9517 9.39561 19.1507 11.7225 19.2196 13.9406L19.2782 15.8117L17.4139 15.9923C15.8358 16.1454 14.1938 17.0941 13.1473 18.7687C12.0278 20.5608 11.9563 22.5957 12.6463 24.1193L13.3348 25.6398L11.9627 26.589C10.7643 27.4183 9.82678 28.8364 9.56919 30.5949C9.22028 32.9791 10.2415 35.0856 11.7879 36.1076L13.0487 36.9406L12.5926 38.38C12.0946 39.954 12.3832 41.9332 13.6561 43.5744C14.6931 44.9107 16.1173 45.6775 17.5047 45.8615L19.409 46.1134L19.2342 48.0255C19.2006 48.3932 19.2156 48.769 19.284 49.1466C19.7203 51.5528 22.3726 53.443 25.5799 52.8625C27.0996 52.5871 28.4692 51.4511 29.3192 49.8468L31.0213 46.633L32.8231 49.7921C34.0601 51.9606 36.1362 53.2128 38.0721 52.8625C40.9897 52.3338 42.7885 50.0177 42.7293 47.8048L42.6815 46.0158L44.4549 45.7697C45.6445 45.605 46.8597 45.0367 47.8573 44.0441C49.6251 42.2845 50.035 39.8889 49.3143 38.1242L48.7723 36.797L49.8563 35.8576C51.0071 34.8597 51.7935 33.2426 51.7723 31.3673C51.748 29.2413 50.6968 27.4813 49.2801 26.5754L47.8211 25.6427L48.536 24.0656C49.2096 22.5779 49.1716 20.6082 48.1424 18.838C47.1535 17.1375 45.5502 16.1388 43.9823 15.9308L42.4237 15.7248L42.2567 14.1613C42.0577 12.3009 40.6146 10.4224 38.3016 9.67887C35.9824 9.32461 34.0562 10.6889 32.9266 12.9582L30.8465 17.1359L29.2557 12.7482Z" fill="#F1EFF7"/>
</g>
<defs>
<filter id="filter0_ii_13728_8414" x="-2.5" y="-2.20001" width="63" height="63" filterUnits="userSpaceOnUse" color-interpolation-filters="sRGB">
<feFlood flood-opacity="0" result="BackgroundImageFix"/>
<feBlend mode="normal" in="SourceGraphic" in2="BackgroundImageFix" result="shape"/>
<feColorMatrix in="SourceAlpha" type="matrix" values="0 0 0 0 0 0 0 0 0 0 0 0 0 0 0 0 0 0 127 0" result="hardAlpha"/>
<feOffset dx="-3" dy="-6"/>
<feGaussianBlur stdDeviation="1.5"/>
<feComposite in2="hardAlpha" operator="arithmetic" k2="-1" k3="1"/>
<feColorMatrix type="matrix" values="0 0 0 0 1 0 0 0 0 1 0 0 0 0 1 0 0 0 0.15 0"/>
<feBlend mode="normal" in2="shape" result="effect1_innerShadow_13728_8414"/>
<feColorMatrix in="SourceAlpha" type="matrix" values="0 0 0 0 0 0 0 0 0 0 0 0 0 0 0 0 0 0 127 0" result="hardAlpha"/>
<feOffset/>
<feGaussianBlur stdDeviation="5"/>
<feComposite in2="hardAlpha" operator="arithmetic" k2="-1" k3="1"/>
<feColorMatrix type="matrix" values="0 0 0 0 1 0 0 0 0 1 0 0 0 0 1 0 0 0 0.2 0"/>
<feBlend mode="normal" in2="effect1_innerShadow_13728_8414" result="effect2_innerShadow_13728_8414"/>
</filter>
<clipPath id="clip0_13728_8414">
<rect width="60" height="60" fill="white" transform="translate(0.5 0.799988)"/>
</clipPath>
</defs>
</svg>
