<svg width="61" height="61" viewBox="0 0 61 61" fill="none" xmlns="http://www.w3.org/2000/svg">
<g clip-path="url(#clip0_13728_5489)">
<g filter="url(#filter0_ii_13728_5489)">
<circle cx="30.5" cy="30.8" r="30" fill="#A086D7"/>
</g>
<path d="M36.3213 19.8C36.6762 19.8 36.9637 20.0877 36.9639 20.4426V23.3361H39.8574C40.2123 23.3363 40.5 23.6238 40.5 23.9787V24.6213C40.5 24.9762 40.2123 25.2637 39.8574 25.2639H36.9639V28.1574C36.9637 28.5123 36.6762 28.8 36.3213 28.8H35.6787C35.3238 28.8 35.0363 28.5123 35.0361 28.1574V25.2639H32.1426C31.7877 25.2637 31.5 24.9762 31.5 24.6213V23.9787C31.5 23.6238 31.7877 23.3363 32.1426 23.3361H35.0361V20.4426C35.0363 20.0877 35.3238 19.8 35.6787 19.8H36.3213Z" fill="#F1EFF7"/>
<path fill-rule="evenodd" clip-rule="evenodd" d="M36.5029 9.80487C44.2593 10.0013 50.4863 16.3507 50.4863 24.1545C51.4834 32.6304 43.7525 31.8933 49.9307 37.9777C50.1246 38.1691 49.9952 38.508 49.7227 38.508H36.1328L35.7617 38.5041C33.6865 38.4515 31.7214 37.957 29.9551 37.1135V47.7365C29.9549 48.2886 29.5072 48.7365 28.9551 48.7365C28.6624 48.7364 28.3996 48.6098 28.2168 48.4094L28.1387 48.5139L26.8135 47.508L26.7588 47.467L26.71 47.4191L25.9648 46.673C25.8252 46.5335 25.6721 46.4075 25.5078 46.298L24.3496 45.5256L23.6367 45.1691C23.5095 45.1055 23.3771 45.051 23.2422 45.006L21.9746 44.5842L20.4727 44.0822L18.9375 43.6994C18.6995 43.6399 18.4544 43.6096 18.209 43.6096H18.167C18.1817 44.3749 18.1894 45.2578 18.1895 46.2726C18.1897 50.9606 16.988 50.2913 16.1387 50.2912C15.2891 50.2907 13.5762 48.8616 13.5762 46.2726C13.5762 45.269 13.5881 44.3944 13.6084 43.6349H12.5L12.2959 43.6252C11.2873 43.523 10.5002 42.6704 10.5 41.6349V38.4582C10.5 37.4226 11.2873 36.5712 12.2959 36.4689L12.5 36.4582H15.6113V36.4396L18.1934 36.4767C18.4387 36.4802 18.684 36.4538 18.9229 36.3976L20.4629 36.0363L23.2461 35.1525C23.3817 35.1095 23.5145 35.0562 23.6426 34.9943L24.3604 34.6486L25.5293 33.8928C25.5412 33.8851 25.5517 33.8752 25.5635 33.8674C23.291 31.3958 21.8744 28.1248 21.7832 24.5246L21.7783 24.1545C21.7783 16.2269 28.2052 9.79999 36.1328 9.79999L36.5029 9.80487ZM15.9775 43.6096C15.8793 43.6244 15.7791 43.6349 15.6768 43.6349H15.6084C15.5983 44.0059 15.5904 44.4079 15.585 44.843L15.5762 46.2726C15.5762 47.1001 15.8421 47.6677 16.1025 48.0051C16.152 47.5972 16.1895 47.0355 16.1895 46.2726C16.1894 45.2483 16.1809 44.3662 16.166 43.6096H15.9775ZM27.042 35.2629C26.9048 35.3732 26.7623 35.4768 26.6143 35.5724L25.3955 36.3605L25.3438 36.3947L25.2871 36.4211L24.5117 36.7961C24.2982 36.8992 24.0766 36.986 23.8506 37.0578L22.5781 37.4631L21.0322 37.9533L20.9961 37.965L20.958 37.9738L19.3799 38.3449C18.982 38.4384 18.5737 38.4826 18.165 38.4767L17.6768 38.4699V41.5842H18.0996C18.1 41.5925 18.1002 41.6011 18.1006 41.6096H18.21C18.6188 41.6096 19.0262 41.6598 19.4229 41.759L20.9951 42.1525L21.0332 42.1623L23.875 43.1096C24.0999 43.1845 24.3193 43.275 24.5312 43.381L25.3018 43.7668L25.3574 43.7941L25.4092 43.8283L26.6172 44.634C26.8913 44.8167 27.1469 45.026 27.3799 45.259L27.9551 45.8342V35.9523C27.6414 35.7345 27.3368 35.5044 27.042 35.2629ZM12.5 41.6349H13.6992C13.7004 41.618 13.7009 41.6009 13.7021 41.5842H15.6768V38.4582H12.5V41.6349ZM36.1328 11.8C29.3098 11.8 23.7783 17.3314 23.7783 24.1545C23.7784 27.3936 25.0267 30.34 27.0664 32.5432L28.1846 31.7199C28.368 31.4981 28.6449 31.3567 28.9551 31.3566C29.4729 31.3566 29.8991 31.7507 29.9502 32.2551L29.9551 32.3566V34.8508C31.7728 35.9027 33.8816 36.508 36.1328 36.508H46.2041C45.8943 35.9396 45.6825 35.3685 45.5811 34.7844C45.2858 33.0834 46.0129 31.7822 46.5762 30.8928C47.1971 29.9123 47.6983 29.2819 48.0957 28.2902C48.4561 27.3907 48.7113 26.1843 48.5 24.3879L48.4863 24.2717V24.1545C48.4863 17.3315 42.9557 11.8001 36.1328 11.8Z" fill="#F1EFF7"/>
</g>
<defs>
<filter id="filter0_ii_13728_5489" x="-2.5" y="-2.20001" width="63" height="63" filterUnits="userSpaceOnUse" color-interpolation-filters="sRGB">
<feFlood flood-opacity="0" result="BackgroundImageFix"/>
<feBlend mode="normal" in="SourceGraphic" in2="BackgroundImageFix" result="shape"/>
<feColorMatrix in="SourceAlpha" type="matrix" values="0 0 0 0 0 0 0 0 0 0 0 0 0 0 0 0 0 0 127 0" result="hardAlpha"/>
<feOffset dx="-3" dy="-6"/>
<feGaussianBlur stdDeviation="1.5"/>
<feComposite in2="hardAlpha" operator="arithmetic" k2="-1" k3="1"/>
<feColorMatrix type="matrix" values="0 0 0 0 1 0 0 0 0 1 0 0 0 0 1 0 0 0 0.15 0"/>
<feBlend mode="normal" in2="shape" result="effect1_innerShadow_13728_5489"/>
<feColorMatrix in="SourceAlpha" type="matrix" values="0 0 0 0 0 0 0 0 0 0 0 0 0 0 0 0 0 0 127 0" result="hardAlpha"/>
<feOffset/>
<feGaussianBlur stdDeviation="5"/>
<feComposite in2="hardAlpha" operator="arithmetic" k2="-1" k3="1"/>
<feColorMatrix type="matrix" values="0 0 0 0 1 0 0 0 0 1 0 0 0 0 1 0 0 0 0.2 0"/>
<feBlend mode="normal" in2="effect1_innerShadow_13728_5489" result="effect2_innerShadow_13728_5489"/>
</filter>
<clipPath id="clip0_13728_5489">
<rect width="60" height="60" fill="white" transform="translate(0.5 0.799988)"/>
</clipPath>
</defs>
</svg>
