<svg width="61" height="61" viewBox="0 0 61 61" fill="none" xmlns="http://www.w3.org/2000/svg">
<g clip-path="url(#clip0_13728_8419)">
<g filter="url(#filter0_ii_13728_8419)">
<circle cx="30.5" cy="30.2" r="30" fill="#A086D7"/>
</g>
<path d="M35.332 20.2C37.8542 20.2 39.899 22.342 39.8994 24.9841C39.8994 25.7367 39.733 26.4493 39.4375 27.0828C38.3307 30.1322 33.7051 33.9232 31.2097 35.5269C31.1015 35.5965 30.9635 35.5875 30.8638 35.5062C28.4572 33.5447 23.924 29.9847 22.9199 26.99C22.6509 26.3802 22.5001 25.701 22.5 24.9851C22.5002 22.3427 24.5451 20.2 27.0674 20.2C28.8299 20.2 30.3588 21.2466 31.1202 22.7783C31.1353 22.8085 31.1655 22.8279 31.1992 22.8279C31.2329 22.8279 31.2642 22.8085 31.2792 22.7782C32.0407 21.2465 33.5695 20.2 35.332 20.2ZM35.332 22.2C34.3842 22.2 33.5046 22.7686 33.0557 23.698L32.7247 24.3824C32.7066 24.4199 32.6974 24.4608 32.6921 24.5021C32.6258 25.0135 31.9835 25.4148 31.1992 25.4148C30.4142 25.4147 29.7704 25.0126 29.7052 24.5004C29.7 24.459 29.6908 24.4178 29.6727 24.3802L29.3438 23.698C28.9229 22.8268 28.1234 22.2726 27.2441 22.2068L27.0674 22.2C25.7364 22.2 24.5002 23.3585 24.5 24.9851C24.5001 25.3642 24.5697 25.7215 24.6934 26.0457L24.75 26.1824L24.7871 26.2664L24.8164 26.3542C25.1604 27.3802 26.2647 28.7672 27.8604 30.2976C28.8863 31.2816 29.9829 32.2036 30.9605 33.0044C31.0656 33.0905 31.2154 33.0951 31.3249 33.0148C32.2606 32.3298 33.3406 31.4582 34.3545 30.5037C35.976 28.977 37.1615 27.4914 37.5576 26.4001L37.5879 26.3171L37.625 26.2371C37.7988 25.8643 37.8994 25.4401 37.8994 24.9841C37.899 23.4597 36.8127 22.3467 35.5801 22.2136L35.332 22.2Z" fill="#F1EFF7"/>
<path d="M43.5 10.2C44.0523 10.2 44.5 10.6477 44.5 11.2C44.5 11.2495 44.4943 11.2979 44.4873 11.3455L44.6934 11.3845C44.0029 15.0677 45.2559 18.683 46.835 22.9158C48.3863 27.0743 50.2109 31.743 50.2109 37.2C50.2109 42.4488 49.7308 45.6699 48.7393 47.5935C48.2229 48.5952 47.5505 49.2805 46.7207 49.6951C46.5519 49.7793 46.3792 49.8472 46.2061 49.907C46.0251 50.0877 45.7759 50.2 45.5 50.2H16.5C16.3001 50.2 16.1142 50.1408 15.958 50.0398C15.6302 49.9624 15.3054 49.8525 14.9902 49.6951C14.1603 49.2805 13.4881 48.5952 12.9717 47.5935C11.9801 45.6699 11.5 42.4489 11.5 37.2C11.5 31.743 13.3246 27.0743 14.876 22.9158C16.4551 18.683 17.7081 15.0677 17.0176 11.3845V11.3835C17.0065 11.324 17 11.2627 17 11.2C17 10.6477 17.4477 10.2 18 10.2H43.5ZM19.1484 12.2C19.5162 16.0919 18.1529 19.8508 16.749 23.614C15.1754 27.8321 13.5 32.1636 13.5 37.2C13.5 42.4443 14.001 45.2234 14.75 46.6765C15.1038 47.3628 15.4917 47.7101 15.8838 47.906C16.2973 48.1125 16.8127 48.2 17.5 48.2H30V42.7585L23.9756 39.0525C23.5054 38.7631 23.3592 38.1468 23.6484 37.6765C23.9379 37.2061 24.554 37.0599 25.0244 37.3494L30.8545 40.9363C30.8949 40.9021 30.9385 40.8707 30.9854 40.8425L35.9854 37.8425C36.4588 37.5586 37.0732 37.712 37.3574 38.1853C37.6415 38.6588 37.488 39.2732 37.0146 39.5574L32.0146 42.5583C32.01 42.5611 32.0046 42.5625 32 42.5652V48.2H44.2109C44.8981 48.1999 45.4137 48.1125 45.8271 47.906C46.2192 47.7101 46.6072 47.3627 46.9609 46.6765C47.7099 45.2234 48.2109 42.4442 48.2109 37.2C48.2109 32.1636 46.5355 27.8321 44.9619 23.614C43.558 19.8508 42.1948 16.0919 42.5625 12.2H19.1484Z" fill="#F1EFF7"/>
</g>
<defs>
<filter id="filter0_ii_13728_8419" x="-2.5" y="-2.80005" width="63" height="63" filterUnits="userSpaceOnUse" color-interpolation-filters="sRGB">
<feFlood flood-opacity="0" result="BackgroundImageFix"/>
<feBlend mode="normal" in="SourceGraphic" in2="BackgroundImageFix" result="shape"/>
<feColorMatrix in="SourceAlpha" type="matrix" values="0 0 0 0 0 0 0 0 0 0 0 0 0 0 0 0 0 0 127 0" result="hardAlpha"/>
<feOffset dx="-3" dy="-6"/>
<feGaussianBlur stdDeviation="1.5"/>
<feComposite in2="hardAlpha" operator="arithmetic" k2="-1" k3="1"/>
<feColorMatrix type="matrix" values="0 0 0 0 1 0 0 0 0 1 0 0 0 0 1 0 0 0 0.15 0"/>
<feBlend mode="normal" in2="shape" result="effect1_innerShadow_13728_8419"/>
<feColorMatrix in="SourceAlpha" type="matrix" values="0 0 0 0 0 0 0 0 0 0 0 0 0 0 0 0 0 0 127 0" result="hardAlpha"/>
<feOffset/>
<feGaussianBlur stdDeviation="5"/>
<feComposite in2="hardAlpha" operator="arithmetic" k2="-1" k3="1"/>
<feColorMatrix type="matrix" values="0 0 0 0 1 0 0 0 0 1 0 0 0 0 1 0 0 0 0.2 0"/>
<feBlend mode="normal" in2="effect1_innerShadow_13728_8419" result="effect2_innerShadow_13728_8419"/>
</filter>
<clipPath id="clip0_13728_8419">
<rect width="60" height="60" fill="white" transform="translate(0.5 0.199951)"/>
</clipPath>
</defs>
</svg>
