<svg width="61" height="61" viewBox="0 0 61 61" fill="none" xmlns="http://www.w3.org/2000/svg">
<g clip-path="url(#clip0_13728_8437)">
<g filter="url(#filter0_ii_13728_8437)">
<circle cx="30.5" cy="30.2" r="30" fill="#A086D7"/>
</g>
<path d="M39.1386 17.7639C40.985 15.034 44.957 14.3946 48.374 15.7727C50.5947 16.6686 51.7225 18.8891 52.167 21.0364C52.5323 22.8018 52.4828 24.7196 52.0888 26.2688C52.712 26.2013 53.3502 26.3231 53.914 26.6526L54.1015 26.7717C55.4938 27.733 55.8073 29.6954 54.8008 31.1545C54.5325 31.5431 54.1955 31.8551 53.8222 32.0881C52.5278 33.0726 49.9406 33.4433 47.8662 33.6379L46.2441 33.7727C46.1159 33.7833 45.9944 33.7109 45.9453 33.592C45.1762 31.7222 44.0944 27.9061 44.6552 25.8313C44.7359 25.3793 44.9102 24.9322 45.1904 24.5256C46.1658 23.1117 48.0226 22.6877 49.4043 23.5364L49.5361 23.6223C49.8814 23.8607 50.1586 24.1616 50.3672 24.5002C50.4595 23.5395 50.4206 22.4691 50.208 21.4416C49.8227 19.5801 48.9432 18.1586 47.6259 17.6272C44.6926 16.4442 41.9136 17.1996 40.749 18.9631C40.9008 19.1315 41.0443 19.3134 41.1777 19.51C41.9276 20.6148 42.2958 22.0708 42.2959 23.9211C42.2958 33.8977 38.7757 41.9678 34.2666 45.9426V51.3821C34.2664 51.9341 33.8187 52.382 33.2666 52.3821C32.7144 52.3821 32.2668 51.9342 32.2666 51.3821V45.3821C32.2666 44.9363 32.558 44.558 32.9609 44.4289C36.9018 40.941 40.2958 33.5144 40.2959 23.9211C40.2958 22.3205 39.9763 21.3004 39.5234 20.633C39.08 19.9799 38.4353 19.557 37.5625 19.2873C36.6685 19.0113 35.5787 18.9107 34.3164 18.8879C33.0191 18.8646 31.7472 18.9212 30.2959 18.9211C28.8442 18.9212 27.5719 18.8646 26.2744 18.8879C25.012 18.9106 23.9222 19.0113 23.0283 19.2873C22.1556 19.5569 21.5116 19.98 21.0683 20.633C20.6155 21.3004 20.2959 22.3205 20.2959 23.9211V23.9426L20.2949 23.9641C19.9229 32.5227 23.5788 40.4705 27.6308 44.4514C28.0027 44.5972 28.2666 44.9585 28.2666 45.3821V51.3821C28.2664 51.9341 27.8187 52.382 27.2666 52.3821C26.7144 52.3821 26.2668 51.9342 26.2666 51.3821V45.9133C21.7715 41.5223 17.9142 33.0118 18.2959 23.9211L18.2998 23.5784C18.3429 21.8897 18.711 20.5448 19.414 19.509C19.4774 19.4156 19.5436 19.3254 19.6113 19.2385C18.3369 17.456 15.5902 16.5319 12.874 17.6272C11.5646 18.1553 10.7093 19.5666 10.3496 21.428C10.1183 22.6251 10.1213 23.8841 10.289 24.9612C10.4999 24.4331 10.8587 23.9645 11.3545 23.6223C12.7476 22.6614 14.6934 23.0662 15.7002 24.5256C15.9803 24.9321 16.1547 25.3793 16.2353 25.8313C16.7962 27.9064 15.7134 31.7234 14.9443 33.593C14.8952 33.7114 14.7753 33.7827 14.6474 33.7727C12.548 33.6058 8.736 33.3563 7.06833 32.0881C6.6951 31.8552 6.3581 31.5431 6.08981 31.1545C5.08323 29.6953 5.39659 27.733 6.78903 26.7717C7.31232 26.4107 7.91293 26.2437 8.51266 26.2522C8.11679 24.7129 8.04598 22.8078 8.38571 21.0491C8.8006 18.9016 9.89715 16.6717 12.1259 15.7727C15.5158 14.4057 19.2453 15.4205 21.1357 17.9309C21.5458 17.698 21.9837 17.5167 22.4384 17.3762C23.6066 17.0155 24.9231 16.9116 26.2383 16.8879C27.5187 16.8649 28.9976 16.9212 30.2959 16.9211C31.5941 16.9212 33.072 16.8649 34.3525 16.8879C35.668 16.9116 36.9848 17.0162 38.1533 17.3772C38.4926 17.482 38.8226 17.6092 39.1386 17.7639Z" fill="#F1EFF7"/>
<path fill-rule="evenodd" clip-rule="evenodd" d="M30.2763 21.9084C33.7714 21.9085 37.2665 21.2972 37.2666 25.9709L37.2568 26.7912C37.0694 34.3887 34.3033 40.5622 31.2666 41.6946V49.3821C31.2664 49.9341 30.8187 50.382 30.2666 50.3821C29.7144 50.3821 29.2668 49.9342 29.2666 49.3821V41.6662C26.0784 40.3326 22.9979 33.0135 23.2851 25.9709C23.2851 21.2968 26.781 21.9086 30.2763 21.9084ZM32.8047 23.886C31.9676 23.8699 31.313 23.9085 30.2763 23.9084C29.2391 23.9085 28.5844 23.8699 27.747 23.886C26.9853 23.9006 26.4611 23.9656 26.0947 24.0862C25.7792 24.19 25.6559 24.3074 25.5722 24.4387C25.463 24.6103 25.2851 25.0323 25.2851 25.9709V26.0119L25.2832 26.052C25.1375 29.624 25.9434 33.2952 27.1699 36.0276C27.7839 37.3953 28.4641 38.4399 29.1035 39.1086C29.7739 39.8096 30.1818 39.8821 30.2763 39.8821C30.4499 39.8819 30.8504 39.7915 31.4482 39.2053C32.0393 38.6257 32.678 37.6925 33.2666 36.3987C34.4398 33.8193 35.2665 30.1307 35.2666 25.9709C35.2666 25.0325 35.0887 24.6104 34.9795 24.4387C34.8958 24.3075 34.772 24.1909 34.457 24.0871C34.0906 23.9666 33.5663 23.9006 32.8047 23.886Z" fill="#F1EFF7"/>
</g>
<defs>
<filter id="filter0_ii_13728_8437" x="-2.5" y="-2.80005" width="63" height="63" filterUnits="userSpaceOnUse" color-interpolation-filters="sRGB">
<feFlood flood-opacity="0" result="BackgroundImageFix"/>
<feBlend mode="normal" in="SourceGraphic" in2="BackgroundImageFix" result="shape"/>
<feColorMatrix in="SourceAlpha" type="matrix" values="0 0 0 0 0 0 0 0 0 0 0 0 0 0 0 0 0 0 127 0" result="hardAlpha"/>
<feOffset dx="-3" dy="-6"/>
<feGaussianBlur stdDeviation="1.5"/>
<feComposite in2="hardAlpha" operator="arithmetic" k2="-1" k3="1"/>
<feColorMatrix type="matrix" values="0 0 0 0 1 0 0 0 0 1 0 0 0 0 1 0 0 0 0.15 0"/>
<feBlend mode="normal" in2="shape" result="effect1_innerShadow_13728_8437"/>
<feColorMatrix in="SourceAlpha" type="matrix" values="0 0 0 0 0 0 0 0 0 0 0 0 0 0 0 0 0 0 127 0" result="hardAlpha"/>
<feOffset/>
<feGaussianBlur stdDeviation="5"/>
<feComposite in2="hardAlpha" operator="arithmetic" k2="-1" k3="1"/>
<feColorMatrix type="matrix" values="0 0 0 0 1 0 0 0 0 1 0 0 0 0 1 0 0 0 0.2 0"/>
<feBlend mode="normal" in2="effect1_innerShadow_13728_8437" result="effect2_innerShadow_13728_8437"/>
</filter>
<clipPath id="clip0_13728_8437">
<rect width="60" height="60" fill="white" transform="translate(0.5 0.199951)"/>
</clipPath>
</defs>
</svg>
