<svg width="61" height="61" viewBox="0 0 61 61" fill="none" xmlns="http://www.w3.org/2000/svg">
<g clip-path="url(#clip0_13728_5584)">
<g filter="url(#filter0_ii_13728_5584)">
<circle cx="30.5" cy="30.2" r="30" fill="#A086D7"/>
</g>
<path d="M34.7026 12.9388C40.7533 11.6968 47.6107 17.0823 48.4175 23.2962C49.7083 33.2384 50.8381 40.7652 45.5942 44.0794C40.7535 44.4937 37.5257 43.1804 33.0884 35.7239C31.1028 30.8305 28.727 14.6966 34.4243 13.0081L34.7026 12.9388ZM13.7261 20.8802C18.1633 13.4238 22.1969 12.1806 26.23 12.595C31.0713 15.9086 30.3451 23.3655 29.0542 33.3079C28.2474 39.5218 21.39 44.9075 15.3394 43.6653L15.061 43.596C9.36389 41.9072 11.7405 25.7733 13.7261 20.8802ZM42.3169 16.9349C40.0697 15.2153 37.4032 14.4335 35.0708 14.9124C34.5931 15.0107 33.9921 15.4297 33.4976 16.9368C33.3857 17.2778 33.2898 17.6505 33.2075 18.0501C33.2122 18.0627 33.218 18.0753 33.2222 18.0882L33.5513 19.1028L34.0737 19.64L34.5239 19.8704L35.4976 19.8714H35.9009C36.4477 19.8717 36.8962 20.3239 36.9028 20.8812C36.9092 21.4383 36.4712 21.8899 35.9243 21.89H35.521L34.3101 21.889H34.0737L33.8618 21.7796L33.0542 21.3655L32.9087 21.2903L32.8638 21.2444C32.8468 21.7659 32.8436 22.3073 32.855 22.8646C32.9502 27.5095 33.9925 32.5359 34.8774 34.8079C36.9989 38.3466 38.6912 40.1785 40.2349 41.1273C41.5987 41.9654 43.0194 42.2185 44.9429 42.1077C46.5162 40.9289 47.2953 39.0637 47.4741 36.0775C47.6714 32.7795 47.1056 28.6436 46.4487 23.5843C46.1275 21.1116 44.5622 18.653 42.3169 16.9349ZM25.5249 14.556C24.0071 14.4679 22.5851 14.7007 21.1274 15.5403C19.4748 16.4925 17.5984 18.3276 15.5132 21.7972C14.6283 24.0697 13.5879 29.0954 13.4927 33.7396C13.4443 36.1034 13.6467 38.1812 14.1343 39.6673C14.6289 41.1748 15.2307 41.5936 15.7085 41.6917C18.0407 42.1705 20.7066 41.3886 22.9536 39.6693C25.1989 37.9512 26.7642 35.4925 27.0854 33.0198C27.7141 28.1776 28.1701 24.155 27.9819 20.9359L27.7446 21.181L27.6333 21.2952L27.4917 21.3675L26.6851 21.7816L26.4761 21.889L26.2427 21.888L25.436 21.889V21.888L25.0356 21.8909C24.4888 21.8925 24.0383 21.4412 24.0298 20.8841C24.0216 20.3268 24.4585 19.8722 25.0054 19.8704L25.4087 19.8694L25.4116 19.8704H25.9839L26.4419 19.6351L27.0679 18.9915L27.6001 18.1702C27.203 16.5386 26.523 15.3776 25.5249 14.556Z" fill="#F1EFF7"/>
<path d="M33.8252 43.2C35.8548 43.2 37.5 44.9243 37.5 47.0505C37.4999 47.6562 37.3659 48.2292 37.1279 48.739C36.2418 51.1779 32.5603 54.206 30.5447 55.5093C30.4366 55.5792 30.2967 55.5702 30.1969 55.4889C28.2536 53.9062 24.6463 51.0628 23.8398 48.6677C23.6221 48.1759 23.5 47.6274 23.5 47.0496C23.5002 44.9235 25.1454 43.2001 27.1748 43.2C28.5931 43.2 29.8226 44.0422 30.4353 45.2748C30.4475 45.2994 30.4721 45.3152 30.4996 45.3152C30.5271 45.3152 30.5525 45.2994 30.5647 45.2748C31.1774 44.0423 32.407 43.2 33.8252 43.2ZM33.8252 45.2C33.2261 45.2 32.6479 45.5595 32.3457 46.1853L31.8003 47.3142C31.8 47.3148 31.7994 47.3152 31.7987 47.3152C31.7977 47.3152 31.7969 47.316 31.797 47.317C31.798 47.3297 31.7998 47.3424 31.7998 47.3552C31.7998 47.8277 31.2179 48.2107 30.5 48.2107C29.782 48.2107 29.2002 47.8277 29.2002 47.3552C29.2002 47.3419 29.2019 47.3288 29.2029 47.3157C29.203 47.3144 29.202 47.3132 29.2007 47.3132C29.1998 47.3132 29.199 47.3127 29.1986 47.3119L28.6543 46.1843C28.3521 45.5587 27.7739 45.2 27.1748 45.2C26.3366 45.2001 25.5002 45.9394 25.5 47.0496C25.5 47.2704 25.5352 47.4794 25.5977 47.6716L25.6689 47.8582L25.7061 47.9421L25.7354 48.03C25.9806 48.7578 26.8047 49.817 28.0859 51.0457C28.8091 51.7391 29.578 52.3912 30.2881 52.9771C30.3942 53.0646 30.5463 53.0685 30.6561 52.9856C31.3252 52.4804 32.0669 51.8683 32.7695 51.2068C34.0673 49.9849 34.9622 48.8429 35.248 48.0564L35.2783 47.9734L35.3154 47.8933C35.4027 47.7063 35.4627 47.499 35.4873 47.2771L35.5 47.0505C35.5 46.0093 34.7647 45.2943 33.9824 45.2087L33.8252 45.2Z" fill="#F1EFF7"/>
<path d="M25.2949 24.9231L25.6736 24.9082L26.4309 24.8807L27.2017 24.4463L27.9859 23.6052L28.7836 22.3573M35.5196 24.5512L35.1409 24.565L34.0049 24.6052L33.2609 24.2259L32.5304 23.4399L31.9998 22.3573" stroke="#F1EFF7" stroke-width="2" stroke-linecap="round"/>
<path d="M29 21.2C28.5163 19.7 28.5163 16.4784 28.5163 13.7C28.5163 9.55782 28.1857 5.19995 30.5 5.19995C32.8143 5.19995 32.4837 9.55782 32.4837 13.7C32.4837 16.4784 32 19.2 32 21.2" stroke="#F1EFF7" stroke-width="2"/>
</g>
<defs>
<filter id="filter0_ii_13728_5584" x="-2.5" y="-2.80005" width="63" height="63" filterUnits="userSpaceOnUse" color-interpolation-filters="sRGB">
<feFlood flood-opacity="0" result="BackgroundImageFix"/>
<feBlend mode="normal" in="SourceGraphic" in2="BackgroundImageFix" result="shape"/>
<feColorMatrix in="SourceAlpha" type="matrix" values="0 0 0 0 0 0 0 0 0 0 0 0 0 0 0 0 0 0 127 0" result="hardAlpha"/>
<feOffset dx="-3" dy="-6"/>
<feGaussianBlur stdDeviation="1.5"/>
<feComposite in2="hardAlpha" operator="arithmetic" k2="-1" k3="1"/>
<feColorMatrix type="matrix" values="0 0 0 0 1 0 0 0 0 1 0 0 0 0 1 0 0 0 0.15 0"/>
<feBlend mode="normal" in2="shape" result="effect1_innerShadow_13728_5584"/>
<feColorMatrix in="SourceAlpha" type="matrix" values="0 0 0 0 0 0 0 0 0 0 0 0 0 0 0 0 0 0 127 0" result="hardAlpha"/>
<feOffset/>
<feGaussianBlur stdDeviation="5"/>
<feComposite in2="hardAlpha" operator="arithmetic" k2="-1" k3="1"/>
<feColorMatrix type="matrix" values="0 0 0 0 1 0 0 0 0 1 0 0 0 0 1 0 0 0 0.2 0"/>
<feBlend mode="normal" in2="effect1_innerShadow_13728_5584" result="effect2_innerShadow_13728_5584"/>
</filter>
<clipPath id="clip0_13728_5584">
<rect width="60" height="60" fill="white" transform="translate(0.5 0.199951)"/>
</clipPath>
</defs>
</svg>
