<svg width="20" height="20" viewBox="0 0 20 20" fill="none" xmlns="http://www.w3.org/2000/svg">
<g clip-path="url(#clip0_3011_18749)">
<path d="M18.1603 15.5863C17.8578 16.2851 17.4998 16.9283 17.085 17.5196C16.5196 18.3257 16.0567 18.8838 15.6999 19.1936C15.1468 19.7022 14.5542 19.9627 13.9197 19.9775C13.4641 19.9775 12.9148 19.8479 12.2753 19.585C11.6337 19.3232 11.0441 19.1936 10.505 19.1936C9.93957 19.1936 9.33317 19.3232 8.68455 19.585C8.03494 19.8479 7.51162 19.985 7.11151 19.9985C6.50301 20.0245 5.89649 19.7566 5.29107 19.1936C4.90467 18.8566 4.42135 18.2788 3.84235 17.4603C3.22114 16.5863 2.71042 15.5727 2.3103 14.4172C1.8818 13.1691 1.66699 11.9605 1.66699 10.7904C1.66699 9.45009 1.95661 8.29407 2.53672 7.32534C2.99263 6.54721 3.59915 5.9334 4.35826 5.4828C5.11738 5.03219 5.9376 4.80257 6.8209 4.78788C7.30422 4.78788 7.93803 4.93738 8.72566 5.2312C9.51106 5.52601 10.0154 5.67551 10.2365 5.67551C10.4018 5.67551 10.962 5.5007 11.9117 5.15219C12.8098 4.82899 13.5678 4.69517 14.1888 4.74788C15.8715 4.88368 17.1356 5.54699 17.9763 6.74202C16.4715 7.65384 15.727 8.93097 15.7419 10.5693C15.7554 11.8454 16.2184 12.9074 17.1282 13.7506C17.5406 14.1419 18.001 14.4444 18.5134 14.6592C18.4023 14.9814 18.285 15.29 18.1603 15.5863ZM14.3012 0.400358C14.3012 1.40059 13.9357 2.3345 13.2074 3.19892C12.3284 4.22654 11.2652 4.82035 10.1123 4.72665C10.0976 4.60665 10.0891 4.48036 10.0891 4.34765C10.0891 3.38743 10.5071 2.3598 11.2494 1.51958C11.62 1.09416 12.0914 0.740434 12.6629 0.458257C13.2333 0.18029 13.7728 0.0265683 14.2802 0.000244141C14.295 0.133959 14.3012 0.267682 14.3012 0.400345V0.400358Z" fill="black"/>
</g>
<defs>
<clipPath id="clip0_3011_18749">
<rect width="20" height="20" fill="white"/>
</clipPath>
</defs>
</svg>
