<svg width="21" height="20" viewBox="0 0 21 20" fill="none" xmlns="http://www.w3.org/2000/svg">
<g clip-path="url(#clip0_3011_18746)">
<path d="M20.5 10C20.5 4.4772 16.0228 0 10.5 0C4.9772 0 0.5 4.4772 0.5 10C0.5 14.6896 3.7288 18.6248 8.0844 19.7056V13.056H6.0224V10H8.0844V8.6832C8.0844 5.2796 9.6248 3.702 12.9664 3.702C13.6 3.702 14.6932 3.8264 15.1404 3.9504V6.7204C14.9044 6.6956 14.4944 6.6832 13.9852 6.6832C12.3456 6.6832 11.712 7.3044 11.712 8.9192V10H14.9784L14.4172 13.056H11.712V19.9268C16.6636 19.3288 20.5004 15.1128 20.5004 10H20.5Z" fill="#0866FF"/>
<path d="M14.4173 13.0559L14.9785 9.9999H11.7121V8.9191C11.7121 7.3043 12.3457 6.6831 13.9853 6.6831C14.4945 6.6831 14.9045 6.6955 15.1405 6.7203V3.9503C14.6933 3.8259 13.6001 3.7019 12.9665 3.7019C9.62486 3.7019 8.08446 5.2795 8.08446 8.6831V9.9999H6.02246V13.0559H8.08446V19.7055C8.85806 19.8975 9.66726 19.9999 10.5001 19.9999C10.9101 19.9999 11.3145 19.9747 11.7117 19.9267V13.0559H14.4169H14.4173Z" fill="white"/>
</g>
<defs>
<clipPath id="clip0_3011_18746">
<rect width="20" height="20" fill="white" transform="translate(0.5)"/>
</clipPath>
</defs>
</svg>
