<svg width="19" height="20" viewBox="0 0 19 20" fill="none" xmlns="http://www.w3.org/2000/svg">
<mask id="mask0_3315_5067" style="mask-type:luminance" maskUnits="userSpaceOnUse" x="0" y="0" width="20" height="20">
<path d="M0.104492 0.891968H19.0055V19.7938H0.104492V0.891968Z" fill="white"/>
</mask>
<g mask="url(#mask0_3315_5067)">
<path d="M18.8126 9.89241L16.6976 7.77779L16.0837 9.00642L17.4302 10.3529L11.9336 15.8496L15.5979 8.5206L16.2118 7.29197L18.9346 1.84756C19.0602 1.59628 19.0105 1.29361 18.8126 1.09496C18.6144 0.896714 18.3121 0.846133 18.06 0.972586L13.2295 3.38743L14.2008 4.35908L16.8938 3.01256L15.5473 5.7056L15.2405 6.32032L14.7547 5.8345L14.0727 5.15287L13.5868 4.66705L12.6156 3.6954L12.1298 3.20958L10.0156 1.09496C9.76103 0.840422 9.34864 0.840422 9.0941 1.09496L6.97989 3.20958L6.49406 3.6954L5.52282 4.66705L5.037 5.15287L4.35497 5.8345L3.86915 6.32032L3.5624 5.7056L2.21506 3.01256L4.9081 4.35908L5.87934 3.38865L1.04884 0.972586C0.797972 0.847357 0.495301 0.895899 0.296239 1.09496C0.0984015 1.2928 0.0486362 1.59628 0.174273 1.84756L2.89709 7.29197L3.511 8.5206L7.17528 15.8496L1.67866 10.3529L3.02517 9.00642L2.41127 7.77779L0.297055 9.89241C0.0425175 10.1474 0.0425175 10.5598 0.297055 10.8143L7.56157 18.0788L9.0941 19.6109C9.12877 19.646 9.1663 19.6746 9.20627 19.6999C9.21525 19.7052 9.22463 19.7088 9.2336 19.7141C9.27195 19.7358 9.31192 19.7533 9.35475 19.7672C9.36862 19.7716 9.38168 19.7757 9.39555 19.7794C9.44694 19.7924 9.50038 19.8022 9.55545 19.8022C9.61011 19.8022 9.66354 19.7924 9.71494 19.7794C9.72881 19.7757 9.74186 19.7716 9.75573 19.7672C9.79775 19.7533 9.83854 19.7358 9.87688 19.7141C9.88586 19.7088 9.89524 19.7052 9.90421 19.6999C9.94337 19.6746 9.98172 19.646 10.0168 19.6109L18.8134 10.8143C19.0672 10.5598 19.0672 10.1461 18.8126 9.89241ZM9.55545 17.6933L4.79021 8.16408L4.48305 7.54936L9.55545 2.47697L14.1416 7.06354L14.6274 7.54936L14.3203 8.16327L9.55545 17.6933Z" fill="#805EC9"/>
</g>
</svg>
