<svg width="21" height="20" viewBox="0 0 21 20" fill="none" xmlns="http://www.w3.org/2000/svg">
<path d="M10.7041 8.18188V12.0546H16.1958C15.9546 13.3001 15.231 14.3546 14.1457 15.0637L17.4574 17.5819C19.3869 15.8365 20.5001 13.2729 20.5001 10.2274C20.5001 9.51836 20.4352 8.83648 20.3145 8.18199L10.7041 8.18188Z" fill="#4285F4"/>
<path d="M4.9855 11.9033L4.23858 12.4636L1.59473 14.4818C3.27378 17.7454 6.71512 20 10.704 20C13.4591 20 15.7689 19.109 17.4573 17.5818L14.1455 15.0636C13.2364 15.6636 12.0769 16.0273 10.704 16.0273C8.05092 16.0273 5.79679 14.2728 4.98967 11.9091L4.9855 11.9033Z" fill="#34A853"/>
<path d="M1.59455 5.51807C0.89885 6.86346 0.5 8.38166 0.5 9.99981C0.5 11.618 0.89885 13.1362 1.59455 14.4816C1.59455 14.4906 4.98982 11.8998 4.98982 11.8998C4.78574 11.2998 4.66511 10.6634 4.66511 9.99971C4.66511 9.33599 4.78574 8.69967 4.98982 8.09967L1.59455 5.51807Z" fill="#FBBC05"/>
<path d="M10.7042 3.98181C12.207 3.98181 13.5428 4.49089 14.6096 5.47272L17.5317 2.60912C15.7599 0.990969 13.4594 0 10.7042 0C6.71533 0 3.27378 2.24545 1.59473 5.51818L4.98989 8.1C5.7969 5.73634 8.05113 3.98181 10.7042 3.98181Z" fill="#EA4335"/>
</svg>
