<svg width="150" height="22" viewBox="0 0 150 22" fill="none" xmlns="http://www.w3.org/2000/svg">
<mask id="mask0_5226_36139" style="mask-type:luminance" maskUnits="userSpaceOnUse" x="0" y="0" width="20" height="20">
<path d="M19.1099 0.871094H0V19.8766H19.1099V0.871094Z" fill="white"/>
</mask>
<g mask="url(#mask0_5226_36139)">
<mask id="mask1_5226_36139" style="mask-type:luminance" maskUnits="userSpaceOnUse" x="0" y="0" width="20" height="20">
<path d="M0.104401 0.89209H19.0054V19.7939H0.104401V0.89209Z" fill="white"/>
</mask>
<g mask="url(#mask1_5226_36139)">
<path d="M18.8124 9.89278L16.6974 7.77816L16.0835 9.00679L17.43 10.3533L11.9333 15.8499L15.5976 8.52097L16.2115 7.29233L18.9344 1.84792C19.06 1.59665 19.0102 1.29398 18.8124 1.09533C18.6141 0.897081 18.3119 0.846499 18.0598 0.972952L13.2293 3.38779L14.2005 4.35944L16.8936 3.01292L15.547 5.70596L15.2403 6.32069L14.7545 5.83486L14.0724 5.15324L13.5866 4.66742L12.6154 3.69577L12.1296 3.20994L10.0153 1.09533C9.76081 0.840789 9.34841 0.840789 9.09387 1.09533L6.97966 3.20994L6.49383 3.69577L5.52259 4.66742L5.03677 5.15324L4.35474 5.83486L3.86892 6.32069L3.56217 5.70596L2.21483 3.01292L4.90787 4.35944L5.87911 3.38902L1.04861 0.972952C0.797743 0.847723 0.495072 0.896265 0.29601 1.09533C0.0981727 1.29316 0.0484074 1.59665 0.174044 1.84792L2.89686 7.29233L3.51077 8.52097L7.17505 15.8499L1.67843 10.3533L3.02495 9.00679L2.41104 7.77816L0.296826 9.89278C0.0422886 10.1477 0.0422886 10.5601 0.296826 10.8147L7.56134 18.0792L9.09387 19.6113C9.12854 19.6464 9.16607 19.6749 9.20605 19.7002C9.21502 19.7055 9.2244 19.7092 9.23338 19.7145C9.27172 19.7361 9.3117 19.7537 9.35453 19.7675C9.36839 19.772 9.38145 19.7761 9.39532 19.7798C9.44671 19.7928 9.50015 19.8026 9.55522 19.8026C9.60988 19.8026 9.66332 19.7928 9.71471 19.7798C9.72858 19.7761 9.74163 19.772 9.7555 19.7675C9.79752 19.7537 9.83831 19.7361 9.87665 19.7145C9.88563 19.7092 9.89501 19.7055 9.90398 19.7002C9.94314 19.6749 9.98149 19.6464 10.0166 19.6113L18.8132 10.8147C19.0669 10.5601 19.0669 10.1465 18.8124 9.89278ZM9.55522 17.6937L4.78998 8.16445L4.48283 7.54973L9.55522 2.47733L14.1414 7.0639L14.6272 7.54973L14.32 8.16364L9.55522 17.6937Z" fill="#805EC9"/>
</g>
</g>
<path d="M27.3661 4.38L25.6461 4.14V3.14H36.3461L36.5461 6.54H35.2461L34.6461 4.32L29.5061 4.18V9.98L33.1261 9.92L33.4661 8.26H34.5261V12.94H33.4861L33.1261 11.2L29.5061 11.12V16.82L32.6261 17.02V18H25.7661V17.02L27.3661 16.82V4.38ZM38.0689 12.42C38.0689 11.22 38.3156 10.18 38.8089 9.3C39.3023 8.42 39.9489 7.75333 40.7489 7.3C41.5623 6.83333 42.4289 6.6 43.3489 6.6C45.0289 6.6 46.2889 7.13333 47.1289 8.2C47.9823 9.26667 48.4089 10.6667 48.4089 12.4C48.4089 13.6133 48.1623 14.66 47.6689 15.54C47.1756 16.42 46.5223 17.0867 45.7089 17.54C44.9089 17.9933 44.0489 18.22 43.1289 18.22C41.4489 18.22 40.1823 17.6867 39.3289 16.62C38.4889 15.5533 38.0689 14.1533 38.0689 12.42ZM43.2489 17.08C44.1689 17.08 44.8756 16.7 45.3689 15.94C45.8623 15.18 46.1089 14.0533 46.1089 12.56C46.1089 11.08 45.8823 9.90667 45.4289 9.04C44.9756 8.17333 44.2489 7.74 43.2489 7.74C42.3289 7.74 41.6156 8.12 41.1089 8.88C40.6156 9.64 40.3689 10.7667 40.3689 12.26C40.3689 13.74 40.6023 14.9133 41.0689 15.78C41.5356 16.6467 42.2623 17.08 43.2489 17.08ZM55.3969 10.58L51.2369 4.4L49.7569 4.14V3.14H55.7169V4.14L53.8169 4.4L56.9369 9.46L60.0569 4.38L58.2969 4.14V3.14H63.2169V4.14L61.6169 4.4L57.5569 10.2L62.0169 16.82L63.5369 17.02V18H57.5969V17.02L59.4569 16.82L56.0569 11.36L52.7969 16.82L54.7969 17.02V18H49.4769V17.02L51.1769 16.82L55.3969 10.58ZM69.6352 10.58L65.4752 4.4L63.9952 4.14V3.14H69.9552V4.14L68.0552 4.4L71.1752 9.46L74.2952 4.38L72.5352 4.14V3.14H77.4552V4.14L75.8552 4.4L71.7952 10.2L76.2552 16.82L77.7752 17.02V18H71.8352V17.02L73.6952 16.82L70.2952 11.36L67.0352 16.82L69.0352 17.02V18H63.7152V17.02L65.4152 16.82L69.6352 10.58ZM85.1796 4.38L83.5996 4.14V3.14H89.0396V4.14L87.3196 4.38V9.76H94.3596V4.38L92.7396 4.14V3.14H98.0996V4.14L96.5196 4.38V16.82L98.0996 17.02V18H92.7196V17.02L94.3596 16.82V11H87.3196V16.82L89.0596 17.02V18H83.5596V17.02L85.1796 16.82V4.38ZM104.942 18.22C103.329 18.22 102.095 17.6933 101.242 16.64C100.402 15.5867 99.9821 14.18 99.9821 12.42C99.9821 11.26 100.202 10.24 100.642 9.36C101.082 8.48 101.695 7.8 102.482 7.32C103.282 6.84 104.189 6.6 105.202 6.6C106.442 6.6 107.402 6.94667 108.082 7.64C108.775 8.32 109.142 9.3 109.182 10.58C109.182 11.3933 109.135 12.0133 109.042 12.44H102.162C102.189 13.76 102.495 14.8267 103.082 15.64C103.669 16.44 104.502 16.84 105.582 16.84C106.115 16.84 106.669 16.7467 107.242 16.56C107.829 16.36 108.282 16.1267 108.602 15.86L108.982 16.74C108.595 17.14 108.022 17.4867 107.262 17.78C106.502 18.0733 105.729 18.22 104.942 18.22ZM106.982 11.38C107.022 11.1 107.042 10.8133 107.042 10.52C107.029 9.65333 106.842 8.97333 106.482 8.48C106.135 7.97333 105.582 7.72 104.822 7.72C104.049 7.72 103.429 8 102.962 8.56C102.509 9.12 102.249 10.06 102.182 11.38H106.982ZM110.901 15C110.901 13.7467 111.528 12.8267 112.781 12.24C114.034 11.64 115.621 11.32 117.541 11.28V10.72C117.541 10.0933 117.474 9.6 117.341 9.24C117.208 8.88 116.974 8.62 116.641 8.46C116.321 8.28667 115.861 8.2 115.261 8.2C114.581 8.2 113.968 8.3 113.421 8.5C112.888 8.68667 112.354 8.92 111.821 9.2L111.321 8.16C111.494 8.01333 111.814 7.82 112.281 7.58C112.748 7.34 113.288 7.12667 113.901 6.94C114.514 6.75333 115.128 6.66 115.741 6.66C116.688 6.66 117.434 6.79333 117.981 7.06C118.541 7.31333 118.941 7.72667 119.181 8.3C119.421 8.87333 119.541 9.64 119.541 10.6V17.02H120.721V17.9C120.454 17.9667 120.114 18.0333 119.701 18.1C119.301 18.1667 118.948 18.2 118.641 18.2C118.268 18.2 118.014 18.14 117.881 18.02C117.748 17.9133 117.681 17.6667 117.681 17.28V16.62C117.281 17.02 116.788 17.3867 116.201 17.72C115.628 18.0533 114.974 18.22 114.241 18.22C113.281 18.22 112.481 17.9467 111.841 17.4C111.214 16.84 110.901 16.04 110.901 15ZM115.101 16.86C115.448 16.86 115.848 16.7533 116.301 16.54C116.754 16.3267 117.168 16.0733 117.541 15.78V12.34C116.088 12.34 114.988 12.5667 114.241 13.02C113.508 13.46 113.141 14.04 113.141 14.76C113.141 15.48 113.314 16.0133 113.661 16.36C114.021 16.6933 114.501 16.86 115.101 16.86ZM123.572 3.08L121.952 2.86V2L125.172 1.62H125.212L125.652 1.92V16.86L127.352 17.02V18H121.952V17.02L123.572 16.84V3.08ZM132.192 18.2C131.432 18.2 130.865 18.0267 130.492 17.68C130.119 17.3333 129.932 16.74 129.932 15.9V8.22H128.492V7.32C128.559 7.30667 128.745 7.26 129.052 7.18C129.359 7.1 129.565 7.02667 129.672 6.96C129.885 6.84 130.052 6.6 130.172 6.24C130.279 5.98667 130.405 5.58 130.552 5.02C130.699 4.46 130.785 4.12667 130.812 4.02H131.992L132.032 6.9H135.372V8.22H132.032V14.36C132.032 15.12 132.052 15.6533 132.092 15.96C132.145 16.2667 132.245 16.4667 132.392 16.56C132.552 16.6533 132.819 16.7 133.192 16.7C133.552 16.7 133.945 16.6533 134.372 16.56C134.812 16.4667 135.152 16.3667 135.392 16.26L135.692 17.16C135.372 17.4 134.852 17.6333 134.132 17.86C133.425 18.0867 132.779 18.2 132.192 18.2ZM137.997 3.08L136.317 2.86V2L139.577 1.62H139.617L140.057 1.92V6.56L139.977 8.26C140.403 7.87333 140.99 7.50667 141.737 7.16C142.483 6.81333 143.237 6.64 143.997 6.64C144.837 6.64 145.49 6.8 145.957 7.12C146.423 7.44 146.75 7.93333 146.937 8.6C147.123 9.25333 147.217 10.14 147.217 11.26V16.84L148.617 17.02V18H143.837V17.02L145.137 16.84V11.24C145.137 10.4533 145.083 9.84 144.977 9.4C144.87 8.94667 144.67 8.61333 144.377 8.4C144.083 8.17333 143.643 8.06 143.057 8.06C142.577 8.06 142.063 8.18 141.517 8.42C140.97 8.66 140.49 8.94 140.077 9.26V16.84L141.457 17.02V18H136.797V17.02L137.997 16.86V3.08Z" fill="#805EC9"/>
</svg>
