<svg width="30" height="36" viewBox="0 0 30 36" fill="none" xmlns="http://www.w3.org/2000/svg">
<path d="M26.5336 5.8528C27.0757 5.85287 27.5416 6.28423 27.5977 6.81391L27.6025 6.92123L27.603 33.3837C27.6029 33.8749 27.245 34.2634 26.7678 34.3099L26.6714 34.3144L3.46677 34.3136L3.35925 34.3081C2.86412 34.2559 2.45512 33.8478 2.40266 33.3535L2.39687 33.2461L2.39642 6.78367C2.39656 6.29267 2.75384 5.90512 3.2307 5.8584L3.32797 5.85294L26.5336 5.8528Z" stroke="#805EC9" stroke-width="2"/>
<path d="M12.5932 25.2351L12.6557 30.4992L7.5196 30.4994L7.45718 25.2364L12.5932 25.2351Z" stroke="#805EC9" stroke-width="2"/>
<path d="M16.5685 1.30529C17.1087 1.3055 17.5711 1.73423 17.627 2.26285L17.633 2.37033L17.633 4.20454C17.633 4.69764 17.2736 5.08802 16.7955 5.13495L16.6981 5.13925L12.391 5.13958L12.2845 5.13381C11.7908 5.08183 11.3833 4.67493 11.3315 4.18101L11.3264 4.07356L11.3274 2.2394C11.3278 1.74663 11.6872 1.35595 12.165 1.30899L12.2623 1.30468L16.5685 1.30529Z" fill="#FFFCFC" stroke="#805EC9" stroke-width="2"/>
<path d="M21.4683 3.89994C22.009 3.89994 22.4722 4.32958 22.5281 4.85855L22.5344 4.96602L22.5344 6.17408C22.5344 6.66688 22.1749 7.05698 21.697 7.1039L21.5996 7.10837L8.13956 7.10836L8.03312 7.10277C7.54001 7.05081 7.13279 6.64482 7.0799 6.1517L7.07456 6.04427L7.07259 4.83614C7.07182 4.34253 7.43126 3.95113 7.90997 3.90437L8.00732 3.8999L21.4683 3.89994Z" fill="#FFFCFC" stroke="#805EC9" stroke-width="2"/>
<path d="M14.6678 19.5489L18.0238 22.6685L23.9059 16.7699" stroke="#805EC9" stroke-width="2" stroke-linecap="round"/>
<path d="M6.51601 14.0411L9.87202 17.1607L15.7541 11.2621" stroke="#805EC9" stroke-width="2" stroke-linecap="round"/>
</svg>
