<svg width="134" height="101" viewBox="0 0 134 101" fill="none" xmlns="http://www.w3.org/2000/svg">
<path d="M2.77608 82.3449L0.92536 82.0866V81.0106H12.4386L12.6538 84.669H11.255L10.6094 82.2803L5.07872 82.1297V88.3705L8.97384 88.3059L9.33968 86.5198H10.4802V91.5554H9.3612L8.97384 89.6832L5.07872 89.5971V95.7303L8.43584 95.9455V97H1.05448V95.9455L2.77608 95.7303V82.3449ZM14.2923 90.9959C14.2923 89.7047 14.5577 88.5857 15.0885 87.6388C15.6194 86.6919 16.3152 85.9746 17.176 85.4868C18.0511 84.9847 18.9837 84.7336 19.9736 84.7336C21.7813 84.7336 23.137 85.3075 24.0409 86.4552C24.9591 87.6029 25.4181 89.1093 25.4181 90.9744C25.4181 92.2799 25.1527 93.4062 24.6219 94.353C24.0911 95.2999 23.3881 96.0173 22.5129 96.505C21.6521 96.9928 20.7268 97.2367 19.7369 97.2367C17.9292 97.2367 16.5663 96.6629 15.6481 95.5151C14.7442 94.3674 14.2923 92.861 14.2923 90.9959ZM19.866 96.0101C20.8559 96.0101 21.6163 95.6012 22.1471 94.7834C22.6779 93.9657 22.9433 92.7534 22.9433 91.1466C22.9433 89.5541 22.6995 88.2916 22.2117 87.359C21.7239 86.4265 20.942 85.9602 19.866 85.9602C18.8761 85.9602 18.1085 86.3691 17.5633 87.1869C17.0325 88.0046 16.7671 89.2169 16.7671 90.8238C16.7671 92.4162 17.0182 93.6787 17.5203 94.6113C18.0224 95.5438 18.8043 96.0101 19.866 96.0101ZM32.9372 89.0161L28.461 82.3664L26.8686 82.0866V81.0106H33.2815V82.0866L31.2371 82.3664L34.5942 87.811L37.9514 82.3449L36.0576 82.0866V81.0106H41.3515V82.0866L39.6299 82.3664L35.2614 88.6072L40.0603 95.7303L41.6958 95.9455V97H35.3044V95.9455L37.3058 95.7303L33.6474 89.8554L30.1396 95.7303L32.2916 95.9455V97H26.5673V95.9455L28.3965 95.7303L32.9372 89.0161ZM48.2576 89.0161L43.7814 82.3664L42.189 82.0866V81.0106H48.6019V82.0866L46.5575 82.3664L49.9146 87.811L53.2718 82.3449L51.378 82.0866V81.0106H56.6719V82.0866L54.9503 82.3664L50.5818 88.6072L55.3807 95.7303L57.0162 95.9455V97H50.6248V95.9455L52.6262 95.7303L48.9678 89.8554L45.46 95.7303L47.612 95.9455V97H41.8877V95.9455L43.7169 95.7303L48.2576 89.0161ZM64.9833 82.3449L63.2833 82.0866V81.0106H69.1367V82.0866L67.286 82.3449V88.1338H74.861V82.3449L73.1179 82.0866V81.0106H78.8853V82.0866L77.1852 82.3449V95.7303L78.8853 95.9455V97H73.0964V95.9455L74.861 95.7303V89.468H67.286V95.7303L69.1582 95.9455V97H63.2402V95.9455L64.9833 95.7303V82.3449ZM86.2478 97.2367C84.5118 97.2367 83.1848 96.67 82.2666 95.5366C81.3628 94.4033 80.9108 92.8897 80.9108 90.9959C80.9108 89.7478 81.1476 88.6502 81.621 87.7034C82.0944 86.7565 82.7544 86.0248 83.6008 85.5083C84.4616 84.9918 85.4372 84.7336 86.5276 84.7336C87.8618 84.7336 88.8948 85.1066 89.6264 85.8526C90.3725 86.5843 90.767 87.6388 90.81 89.0161C90.81 89.8912 90.7598 90.5583 90.6594 91.0174H83.2565C83.2852 92.4378 83.6152 93.5855 84.2464 94.4606C84.8777 95.3214 85.7744 95.7518 86.9364 95.7518C87.5103 95.7518 88.1057 95.6514 88.7226 95.4506C89.3538 95.2354 89.8416 94.9843 90.186 94.6974L90.5948 95.6442C90.1788 96.0746 89.5619 96.4477 88.7441 96.7633C87.9264 97.0789 87.0942 97.2367 86.2478 97.2367ZM88.4428 89.8769C88.4859 89.5756 88.5074 89.2671 88.5074 88.9515C88.493 88.019 88.2922 87.2873 87.9048 86.7565C87.5318 86.2113 86.9364 85.9387 86.1187 85.9387C85.2866 85.9387 84.6194 86.24 84.1173 86.8426C83.6295 87.4451 83.3498 88.4566 83.278 89.8769H88.4428ZM92.6596 93.772C92.6596 92.4234 93.3339 91.4335 94.6825 90.8022C96.031 90.1566 97.7383 89.8123 99.8042 89.7693V89.1667C99.8042 88.4924 99.7325 87.9616 99.589 87.5742C99.4456 87.1869 99.1945 86.9071 98.8358 86.735C98.4915 86.5485 97.9965 86.4552 97.3509 86.4552C96.6193 86.4552 95.9593 86.5628 95.3711 86.778C94.7972 86.9789 94.2234 87.2299 93.6495 87.5312L93.1115 86.4122C93.298 86.2543 93.6423 86.0463 94.1445 85.7881C94.6466 85.5298 95.2276 85.3003 95.8876 85.0994C96.5475 84.8986 97.2075 84.7982 97.8674 84.7982C98.886 84.7982 99.6894 84.9416 100.278 85.2286C100.88 85.5011 101.311 85.9459 101.569 86.5628C101.827 87.1797 101.956 88.0046 101.956 89.0376V95.9455H103.226V96.8924C102.939 96.9641 102.573 97.0359 102.128 97.1076C101.698 97.1793 101.318 97.2152 100.988 97.2152C100.586 97.2152 100.314 97.1506 100.17 97.0215C100.027 96.9067 99.9549 96.6413 99.9549 96.2253V95.5151C99.5245 95.9455 98.9936 96.3401 98.3624 96.6987C97.7455 97.0574 97.0425 97.2367 96.2534 97.2367C95.2205 97.2367 94.3597 96.9426 93.671 96.3544C92.9967 95.7518 92.6596 94.891 92.6596 93.772ZM97.1788 95.7734C97.5518 95.7734 97.9822 95.6586 98.47 95.429C98.9578 95.1995 99.4025 94.9269 99.8042 94.6113V90.9098C98.2404 90.9098 97.0568 91.1537 96.2534 91.6415C95.4644 92.115 95.0698 92.739 95.0698 93.5138C95.0698 94.2885 95.2563 94.8623 95.6293 95.2354C96.0167 95.594 96.5332 95.7734 97.1788 95.7734ZM106.294 80.9461L104.55 80.7094V79.784L108.015 79.3751H108.058L108.532 79.6979V95.7734L110.361 95.9455V97H104.55V95.9455L106.294 95.7518V80.9461ZM115.569 97.2152C114.751 97.2152 114.141 97.0287 113.74 96.6557C113.338 96.2827 113.137 95.6442 113.137 94.7404V86.4767H111.588V85.5083C111.659 85.494 111.86 85.4438 112.19 85.3577C112.52 85.2716 112.742 85.1927 112.857 85.121C113.087 84.9918 113.266 84.7336 113.395 84.3462C113.51 84.0737 113.646 83.6361 113.804 83.0335C113.962 82.431 114.055 82.0723 114.084 81.9575H115.354L115.397 85.0564H118.99V86.4767H115.397V93.0834C115.397 93.9011 115.418 94.475 115.461 94.805C115.519 95.1349 115.626 95.3501 115.784 95.4506C115.956 95.551 116.243 95.6012 116.645 95.6012C117.032 95.6012 117.455 95.551 117.914 95.4506C118.388 95.3501 118.754 95.2425 119.012 95.1278L119.335 96.0962C118.99 96.3544 118.431 96.6055 117.656 96.8494C116.896 97.0933 116.2 97.2152 115.569 97.2152ZM121.814 80.9461L120.007 80.7094V79.784L123.515 79.3751H123.558L124.031 79.6979V84.6906L123.945 86.5198C124.404 86.1037 125.035 85.7092 125.839 85.3362C126.642 84.9631 127.453 84.7766 128.27 84.7766C129.174 84.7766 129.877 84.9488 130.379 85.2931C130.882 85.6374 131.233 86.1683 131.434 86.8856C131.635 87.5886 131.735 88.5426 131.735 89.7478V95.7518L133.242 95.9455V97H128.098V95.9455L129.497 95.7518V89.7262C129.497 88.8798 129.44 88.2198 129.325 87.7464C129.21 87.2586 128.995 86.8999 128.679 86.6704C128.364 86.4265 127.89 86.3046 127.259 86.3046C126.743 86.3046 126.19 86.4337 125.602 86.6919C125.014 86.9502 124.497 87.2514 124.053 87.5958V95.7518L125.537 95.9455V97H120.523V95.9455L121.814 95.7734V80.9461Z" fill="#805EC9"/>
<mask id="mask0_5769_17235" style="mask-type:luminance" maskUnits="userSpaceOnUse" x="34" y="0" width="108" height="66">
<path d="M34.3609 0.251953H141.996V65.5335H34.3609V0.251953Z" fill="white"/>
</mask>
<g mask="url(#mask0_5769_17235)">
<path d="M99.3339 31.3373L91.9884 24.034L89.8563 28.2773L94.5328 32.9278L75.443 51.9116L88.1691 26.5994L90.3012 22.3561L99.7575 3.5527C100.194 2.68487 100.021 1.63953 99.3339 0.953438C98.6454 0.268756 97.5957 0.0940631 96.7201 0.530795L79.9438 8.87096L83.3169 12.2267L92.6699 7.57626L87.9934 16.8772L86.928 19.0003L85.2408 17.3224L82.8721 14.9683L81.1848 13.2904L77.8117 9.93461L76.1244 8.25672L68.7818 0.953438C67.8978 0.0743396 66.4655 0.0743396 65.5815 0.953438L58.2388 8.25672L56.5516 9.93461L53.1784 13.2904L51.4912 14.9683L49.1225 17.3224L47.4352 19.0003L46.3699 16.8772L41.6906 7.57626L51.0435 12.2267L54.4166 8.87519L37.6403 0.530795C36.769 0.0982897 35.7178 0.265938 35.0265 0.953438C34.3394 1.63671 34.1666 2.68487 34.6029 3.5527L44.0593 22.3561L46.1914 26.5994L58.9174 51.9116L39.8276 32.9278L44.5041 28.2773L42.372 24.034L35.0293 31.3373C34.1453 32.2178 34.1453 33.6421 35.0293 34.5212L60.259 59.6107L65.5815 64.9022C65.7019 65.0234 65.8322 65.122 65.9711 65.2093C66.0022 65.2277 66.0348 65.2403 66.066 65.2587C66.1992 65.3333 66.338 65.3939 66.4867 65.4418C66.5349 65.4573 66.5802 65.4714 66.6284 65.4841C66.8069 65.5291 66.9925 65.563 67.1838 65.563C67.3736 65.563 67.5592 65.5291 67.7377 65.4841C67.7858 65.4714 67.8312 65.4573 67.8793 65.4418C68.0253 65.3939 68.1669 65.3333 68.3001 65.2587C68.3313 65.2403 68.3638 65.2277 68.395 65.2093C68.531 65.122 68.6642 65.0234 68.786 64.9022L99.3368 34.5212C100.218 33.6421 100.218 32.2136 99.3339 31.3373ZM67.1838 58.2794L50.6341 25.3681L49.5673 23.2451L67.1838 5.72649L83.1115 21.5672L84.7988 23.2451L83.732 25.3653L67.1838 58.2794Z" fill="#805EC9"/>
</g>
</svg>
