<svg width="34" height="36" viewBox="0 0 34 36" fill="none" xmlns="http://www.w3.org/2000/svg">
<path d="M29.8184 15.1816H32C32.5523 15.1816 33 15.6294 33 16.1816V34C32.9999 34.5522 32.5522 35 32 35H29.8184C29.2661 35 28.8185 34.5522 28.8184 34V16.1816C28.8184 15.6294 29.2661 15.1816 29.8184 15.1816Z" fill="white" stroke="#805EC9" stroke-width="2"/>
<rect x="1" y="1" width="27.8788" height="34" rx="2" fill="white" stroke="#805EC9" stroke-width="2"/>
<path d="M14.4551 31.5449H25.7884" stroke="#805EC9" stroke-width="2" stroke-linecap="round"/>
<path d="M14.4551 27.3633H25.7884" stroke="#805EC9" stroke-width="2" stroke-linecap="round"/>
<rect x="3.0918" y="21.8184" width="2.06061" height="2.18182" fill="white"/>
<rect x="4.0918" y="5.65234" width="21.697" height="7.81818" rx="2" fill="white" stroke="#805EC9" stroke-width="2"/>
<path d="M4 11.1172V13.7642H7.11111H10.7407H18" stroke="white" stroke-width="3"/>
<path d="M27 34.9415H28.5L29.5 34.4121L30 34.9415V36.0003H27V34.9415Z" fill="#805EC9"/>
<path d="M31.5002 31.7061C32.2755 31.7062 33.0002 32.3894 33.0002 33.3535C33.0002 33.8525 32.8332 34.2392 32.5579 34.5029C32.2822 34.7668 31.7999 35 30.9993 35C30.2788 35 29.8045 34.733 29.4993 34.3867C29.177 34.0209 28.9993 33.5137 28.9993 33C28.9993 32.809 29.1399 32.5003 29.718 32.1787C30.2689 31.8724 30.9765 31.7061 31.5002 31.7061Z" fill="#FFFCFC" stroke="#805EC9" stroke-width="2"/>
<path d="M29.8831 28H32.0003V30.4367V31.5V32V32.5V32.7647V33V33.5H30.0003L29.8831 33V32.7647V32.5V32.2244V31.5V30.5V28Z" fill="#FFFCFC"/>
<mask id="path-11-inside-1_7030_37013" fill="white">
<path d="M16.284 12.7587C16.4705 12.6601 16.6941 12.7004 16.8407 12.8554C16.9867 13.0109 17.0234 13.2478 16.9305 13.4443L14.9169 17.705L16.8407 19.7402C17.0285 19.9386 17.0288 20.2618 16.8417 20.4609L10.3329 27.3456C10.3071 27.3729 10.2787 27.3953 10.2499 27.415C10.2433 27.4191 10.2359 27.4226 10.2294 27.4267C10.2012 27.4435 10.1704 27.4569 10.1395 27.4677C10.1295 27.4711 10.1193 27.4746 10.1092 27.4775C10.0716 27.4876 10.0321 27.495 9.99206 27.4951C9.95144 27.4951 9.91084 27.4876 9.87292 27.4775C9.86304 27.4747 9.85348 27.4711 9.84362 27.4677C9.81218 27.4569 9.78195 27.4434 9.75378 27.4267C9.74724 27.4226 9.73983 27.419 9.73327 27.415C9.70383 27.3953 9.67582 27.3729 9.65026 27.3456L8.51647 26.1464L3.14147 20.4609C2.95354 20.2617 2.95353 19.9396 3.14147 19.7402L5.0653 17.705L3.05065 13.4443C2.95771 13.2476 2.99514 13.0102 3.14147 12.8554C3.28875 12.6997 3.51256 12.6608 3.69811 12.7587L7.74889 14.8652L8.08581 14.5097L9.65026 12.8554C9.83859 12.6563 10.1436 12.6562 10.3319 12.8554L11.8964 14.5097L12.2557 14.8896L16.284 12.7587Z"/>
</mask>
<path d="M16.284 12.7587L17.2192 14.5266L17.2193 14.5266L16.284 12.7587ZM16.8407 12.8554L18.2985 11.4862L18.294 11.4814L16.8407 12.8554ZM16.9305 13.4443L18.7388 14.2989L18.7388 14.2987L16.9305 13.4443ZM14.9169 17.705L13.1086 16.8504L12.5247 18.0859L13.4635 19.0789L14.9169 17.705ZM16.8407 19.7402L15.3873 21.1141L15.3881 21.1149L16.8407 19.7402ZM16.8417 20.4609L18.295 21.8348L18.299 21.8306L16.8417 20.4609ZM10.3329 27.3456L11.7856 28.7202L11.7862 28.7196L10.3329 27.3456ZM10.2499 27.415L11.3099 29.1109L11.3449 29.0891L11.379 29.0657L10.2499 27.415ZM10.2294 27.4267L11.2526 29.1451L11.2689 29.1354L11.285 29.1254L10.2294 27.4267ZM10.1395 27.4677L10.7868 29.3601L10.7997 29.3556L10.1395 27.4677ZM10.1092 27.4775L10.6271 29.4093L10.639 29.4061L10.6508 29.4027L10.1092 27.4775ZM9.99206 27.4951V29.4951L9.99668 29.495L9.99206 27.4951ZM9.87292 27.4775L9.33154 29.4028L9.3433 29.4061L9.3551 29.4093L9.87292 27.4775ZM9.84362 27.4677L10.4921 25.5758L10.4917 25.5756L9.84362 27.4677ZM9.75378 27.4267L8.69374 29.1227L8.71286 29.1346L8.73224 29.1461L9.75378 27.4267ZM9.73327 27.415L8.62061 29.0769L8.64965 29.0963L8.67935 29.1147L9.73327 27.415ZM9.65026 27.3456L11.1104 25.9789L11.1036 25.9716L9.65026 27.3456ZM8.51647 26.1464L7.06312 27.5204L7.06317 27.5204L8.51647 26.1464ZM3.14147 20.4609L1.68695 21.8336L1.68812 21.8348L3.14147 20.4609ZM3.14147 19.7402L1.68806 18.3663L1.68595 18.3685L3.14147 19.7402ZM5.0653 17.705L6.51871 19.0789L7.45761 18.0857L6.87337 16.8501L5.0653 17.705ZM3.05065 13.4443L1.24249 14.299L1.24259 14.2992L3.05065 13.4443ZM3.14147 12.8554L1.68862 11.4809L1.68794 11.4816L3.14147 12.8554ZM3.69811 12.7587L2.76431 14.5274L2.77539 14.5331L3.69811 12.7587ZM7.74889 14.8652L6.82617 16.6396L8.16354 17.335L9.20048 16.241L7.74889 14.8652ZM8.08581 14.5097L9.5374 15.8855L9.53893 15.8839L8.08581 14.5097ZM9.65026 12.8554L8.19741 11.4809L8.19714 11.4812L9.65026 12.8554ZM10.3319 12.8554L8.87857 14.2294L8.87878 14.2296L10.3319 12.8554ZM11.8964 14.5097L10.4432 15.8839L10.4435 15.8842L11.8964 14.5097ZM12.2557 14.8896L10.8028 16.264L11.8474 17.3682L13.1909 16.6575L12.2557 14.8896ZM16.284 12.7587L17.2193 14.5266C16.5811 14.8642 15.8342 14.702 15.3874 14.2294L16.8407 12.8554L18.294 11.4814C17.5541 10.6988 16.3599 10.456 15.3488 10.9909L16.284 12.7587ZM16.8407 12.8554L15.3829 14.2246C14.9569 13.7711 14.87 13.1236 15.1222 12.5898L16.9305 13.4443L18.7388 14.2987C19.1767 13.3721 19.0165 12.2506 18.2985 11.4862L16.8407 12.8554ZM16.9305 13.4443L15.1223 12.5897L13.1086 16.8504L14.9169 17.705L16.7251 18.5596L18.7388 14.2989L16.9305 13.4443ZM14.9169 17.705L13.4635 19.0789L15.3873 21.1141L16.8407 19.7402L18.2941 18.3663L16.3703 16.3311L14.9169 17.705ZM16.8407 19.7402L15.3881 21.1149C14.8466 20.5428 14.8474 19.6625 15.3843 19.0912L16.8417 20.4609L18.299 21.8306C19.2102 20.861 19.2104 19.3344 18.2933 18.3654L16.8407 19.7402ZM16.8417 20.4609L15.3883 19.0869L8.87954 25.9717L10.3329 27.3456L11.7862 28.7196L18.295 21.8348L16.8417 20.4609ZM10.3329 27.3456L8.88014 25.971C8.98218 25.8632 9.07487 25.7956 9.12072 25.7642L10.2499 27.415L11.379 29.0657C11.4825 28.995 11.632 28.8826 11.7856 28.7202L10.3329 27.3456ZM10.2499 27.415L9.18984 25.719C9.20556 25.7092 9.21948 25.7008 9.23099 25.694C9.24249 25.6872 9.25226 25.6816 9.2596 25.6775C9.26688 25.6733 9.27265 25.6701 9.27584 25.6684C9.27874 25.6668 9.28101 25.6655 9.27985 25.6662C9.27972 25.6662 9.27589 25.6683 9.27171 25.6706C9.26715 25.6732 9.26001 25.6771 9.25138 25.682C9.24269 25.6869 9.23157 25.6932 9.21876 25.7008C9.20592 25.7083 9.1907 25.7174 9.1737 25.728L10.2294 27.4267L11.285 29.1254C11.255 29.144 11.2307 29.1579 11.2175 29.1654C11.2106 29.1693 11.2051 29.1723 11.2023 29.1739C11.1999 29.1752 11.1978 29.1764 11.1994 29.1755C11.2 29.1752 11.204 29.173 11.2086 29.1704C11.2135 29.1677 11.221 29.1636 11.23 29.1585C11.2475 29.1486 11.2759 29.1322 11.3099 29.1109L10.2499 27.415ZM10.2294 27.4267L9.20615 25.7082C9.32042 25.6402 9.41804 25.6012 9.4793 25.5798L10.1395 27.4677L10.7997 29.3556C10.9228 29.3126 11.0819 29.2468 11.2526 29.1451L10.2294 27.4267ZM10.1395 27.4677L9.4923 25.5753C9.48333 25.5784 9.49154 25.5756 9.50103 25.5724C9.51214 25.5688 9.53606 25.5611 9.56764 25.5522L10.1092 27.4775L10.6508 29.4027C10.6925 29.391 10.7265 29.3802 10.7477 29.3732C10.7673 29.3668 10.7857 29.3605 10.7867 29.3601L10.1395 27.4677ZM10.1092 27.4775L9.59143 25.5457C9.64713 25.5307 9.79137 25.4955 9.98744 25.4951L9.99206 27.4951L9.99668 29.495C10.2728 29.4944 10.496 29.4444 10.6271 29.4093L10.1092 27.4775ZM9.99206 27.4951V25.4951C10.1855 25.4951 10.3285 25.529 10.3907 25.5457L9.87292 27.4775L9.3551 29.4093C9.49314 29.4463 9.71741 29.4951 9.99206 29.4951V27.4951ZM9.87292 27.4775L10.4143 25.5521C10.4626 25.5657 10.4986 25.5781 10.5092 25.5817C10.5143 25.5835 10.5186 25.585 10.5144 25.5835C10.5125 25.5829 10.5031 25.5795 10.4921 25.5758L9.84362 27.4677L9.19511 29.3596C9.18909 29.3576 9.18452 29.356 9.18752 29.357C9.18824 29.3573 9.19739 29.3605 9.20736 29.3639C9.22759 29.3709 9.27338 29.3865 9.33154 29.4028L9.87292 27.4775ZM9.84362 27.4677L10.4917 25.5756C10.5726 25.6033 10.6701 25.6448 10.7753 25.7073L9.75378 27.4267L8.73224 29.1461C8.89375 29.2421 9.05177 29.3106 9.19555 29.3598L9.84362 27.4677ZM9.75378 27.4267L10.8138 25.7307C10.78 25.7096 10.7518 25.6933 10.7345 25.6835C10.7256 25.6785 10.7182 25.6744 10.7133 25.6716C10.7086 25.6691 10.7046 25.6669 10.7039 25.6665C10.7023 25.6656 10.7042 25.6667 10.7065 25.6679C10.7092 25.6694 10.7144 25.6723 10.7211 25.6761C10.7339 25.6833 10.7577 25.6969 10.7872 25.7152L9.73327 27.415L8.67935 29.1147C8.69611 29.1251 8.7111 29.1341 8.72367 29.1415C8.73622 29.1488 8.7471 29.1551 8.75556 29.1598C8.76396 29.1646 8.77091 29.1684 8.77531 29.1708C8.77932 29.1731 8.78306 29.1751 8.78311 29.1751C8.78418 29.1757 8.78193 29.1745 8.77902 29.1729C8.77585 29.1711 8.77015 29.168 8.76294 29.1639C8.75568 29.1598 8.74601 29.1542 8.73462 29.1475C8.72322 29.1408 8.70939 29.1324 8.69374 29.1227L9.75378 27.4267ZM9.73327 27.415L10.8459 25.753C10.91 25.7959 11.0076 25.8691 11.1104 25.9789L9.65026 27.3456L8.19013 28.7124C8.34402 28.8768 8.49765 28.9946 8.62061 29.0769L9.73327 27.415ZM9.65026 27.3456L11.1036 25.9716L9.96978 24.7724L8.51647 26.1464L7.06317 27.5204L8.19696 28.7196L9.65026 27.3456ZM8.51647 26.1464L9.96982 24.7725L4.59482 19.0869L3.14147 20.4609L1.68812 21.8348L7.06312 27.5204L8.51647 26.1464ZM3.14147 20.4609L4.59599 19.0881C5.13586 19.6602 5.13453 20.5414 4.59699 21.1118L3.14147 19.7402L1.68595 18.3685C0.772525 19.3378 0.771221 20.8633 1.68695 21.8336L3.14147 20.4609ZM3.14147 19.7402L4.59488 21.1141L6.51871 19.0789L5.0653 17.705L3.61189 16.3311L1.68806 18.3663L3.14147 19.7402ZM5.0653 17.705L6.87337 16.8501L4.85872 12.5893L3.05065 13.4443L1.24259 14.2992L3.25723 18.5599L5.0653 17.705ZM3.05065 13.4443L4.85882 12.5896C5.11272 13.1267 5.02312 13.7762 4.59501 14.2292L3.14147 12.8554L1.68794 11.4816C0.967161 12.2443 0.802694 13.3686 1.24249 14.299L3.05065 13.4443ZM3.14147 12.8554L4.59432 14.2299C4.14416 14.7057 3.39744 14.8616 2.76433 14.5274L3.69811 12.7587L4.63189 10.9901C3.62768 10.4599 2.43334 10.6937 1.68862 11.4809L3.14147 12.8554ZM3.69811 12.7587L2.77539 14.5331L6.82617 16.6396L7.74889 14.8652L8.67161 13.0907L4.62083 10.9843L3.69811 12.7587ZM7.74889 14.8652L9.20048 16.241L9.5374 15.8855L8.08581 14.5097L6.63422 13.1339L6.2973 13.4893L7.74889 14.8652ZM8.08581 14.5097L9.53893 15.8839L11.1034 14.2296L9.65026 12.8554L8.19714 11.4812L6.63269 13.1355L8.08581 14.5097ZM9.65026 12.8554L11.1031 14.2299C10.5029 14.8643 9.47991 14.8655 8.87857 14.2294L10.3319 12.8554L11.7852 11.4814C10.8073 10.447 9.17426 10.4484 8.19741 11.4809L9.65026 12.8554ZM10.3319 12.8554L8.87878 14.2296L10.4432 15.8839L11.8964 14.5097L13.3495 13.1355L11.785 11.4812L10.3319 12.8554ZM11.8964 14.5097L10.4435 15.8842L10.8028 16.264L12.2557 14.8896L13.7086 13.5151L13.3492 13.1352L11.8964 14.5097ZM12.2557 14.8896L13.1909 16.6575L17.2192 14.5266L16.284 12.7587L15.3489 10.9908L11.3206 13.1217L12.2557 14.8896Z" fill="#805EC9" mask="url(#path-11-inside-1_7030_37013)"/>
<rect x="29.9" y="13" width="4" height="15.8824" fill="white"/>
<path d="M33 28.7061V16.0002" stroke="#805EC9" stroke-width="2" stroke-linecap="round"/>
</svg>
