<svg width="36" height="36" viewBox="0 0 36 36" fill="none" xmlns="http://www.w3.org/2000/svg">
<path d="M18.3389 6.19434C18.9388 6.09843 19.9402 6.14675 21.2793 6.31445C22.5889 6.47848 24.1079 6.73973 25.6982 7.01172C28.6151 7.51059 31.8469 8.06459 34.1328 7.99609L34.5771 7.97461C34.6724 7.96777 34.8046 8.00425 34.9082 8.08496C34.9553 8.12163 34.981 8.15541 34.9922 8.17578C34.9973 8.18518 34.9994 8.1912 35 8.19336V34.8057C31.1421 34.6698 28.4339 33.7842 26.3457 33.25C25.3401 32.9928 24.3365 32.7758 23.4473 32.8955C22.9742 32.9592 22.5178 33.1187 22.1025 33.416C21.7429 33.6736 21.4505 34.0086 21.209 34.4033L21.1084 34.5752C21.0793 34.6279 21.045 34.6627 21.0205 34.6797L21.0049 34.6904C20.1549 34.7214 19.1718 34.7639 18.0029 34.8223C17.2091 34.7719 16.4137 34.751 15.623 34.752C15.6148 34.7495 15.5931 34.7412 15.5566 34.7158C15.5211 34.691 15.4811 34.6561 15.4375 34.6113L15.2969 34.4443C14.5163 33.3898 13.208 33.1332 12.0176 33.127C10.789 33.1206 9.36252 33.3791 7.97363 33.6865C6.49986 34.0128 5.20184 34.3594 3.86035 34.6416C2.67605 34.8907 1.70785 35.0266 1.00391 34.9932C1.00221 32.9125 1.00391 27.7566 1.00391 25.8672L1 17.3311C1 14.3905 1.00022 11.4488 1 8.91016L1.00098 8.9082C1.0016 8.90588 1.00307 8.8991 1.00879 8.88867C1.02106 8.86637 1.04868 8.82932 1.09961 8.78906C1.1833 8.72296 1.2863 8.68189 1.37793 8.66699L1.46387 8.66113C2.60727 8.70271 3.97995 8.51915 5.4043 8.25488C6.83775 7.98892 8.39789 7.62612 9.91797 7.28223C11.451 6.93541 12.9484 6.60727 14.3066 6.39551C15.5067 6.20841 16.5391 6.12249 17.3555 6.17578L17.6924 6.20703C17.8637 6.22837 18.0263 6.22888 18.1836 6.21387L18.3389 6.19434Z" fill="#FFFCFC" stroke="#805EC9" stroke-width="2"/>
<path d="M18.3545 4.89258C18.812 4.82111 19.5811 4.86087 20.6367 5.00488C21.6648 5.14516 22.8564 5.36711 24.1152 5.60352C26.4179 6.03594 29.0075 6.53315 30.9277 6.53809L31.3018 6.53223C31.4115 6.52844 31.5731 6.5757 31.7021 6.67773C31.761 6.72436 31.7945 6.76806 31.8105 6.79688C31.8181 6.81038 31.8212 6.81927 31.8223 6.82324C31.8228 6.82523 31.8232 6.82685 31.8232 6.82715V30.6455C28.254 30.7244 26.5259 29.6909 24.8223 28.9971C23.9426 28.6388 22.9954 28.3426 21.8564 28.4873C20.8756 28.612 19.8543 29.0493 18.6699 29.8516L18.1523 30.2178C18.1437 30.2242 18.1226 30.2347 18.082 30.2324C18.0604 30.2312 18.038 30.2261 18.0166 30.2178L17.957 30.1836C15.3525 28.0231 12.3452 28.431 9.85254 29.1523C8.64497 29.5018 7.3462 29.9955 6.37012 30.3096C5.44171 30.6083 4.72628 30.7731 4.17871 30.7734C4.17741 28.8454 4.17871 24.2814 4.17871 22.5957C4.17871 21.2927 4.17725 17.4504 4.17578 14.8779C4.17578 12.2989 4.17593 9.71913 4.17578 7.47168L4.18945 7.43945C4.20492 7.41051 4.23764 7.3652 4.30664 7.30957C4.41028 7.22606 4.53596 7.17187 4.64551 7.14941L4.74902 7.1377C6.62809 7.11606 9.23965 6.41468 11.5977 5.83105C12.8122 5.53044 13.9871 5.2518 15.0508 5.07227C15.9931 4.91323 16.7901 4.8427 17.415 4.88281L17.6719 4.90625C17.8551 4.92922 18.0289 4.92872 18.1934 4.91309L18.3545 4.89258Z" fill="#FFFCFC" stroke="#805EC9" stroke-width="2"/>
<path d="M18.0059 1C21.3853 1 23.586 3.47567 24.377 6.20215L24.4492 6.4668C25.1548 9.23006 24.3451 12.191 22.8389 14.71C21.4365 17.0552 19.5284 18.8492 17.9844 19.6357C17.2171 19.2735 16.3842 18.6394 15.5596 17.7734C14.6107 16.7769 13.7188 15.5241 12.9961 14.1699C11.5165 11.3975 10.8826 8.47462 11.541 6.54102L11.5713 6.45312L11.584 6.36133C12.0351 3.22912 14.4066 1.00011 18.0059 1Z" fill="#FFFCFC" stroke="#805EC9" stroke-width="2"/>
<path d="M18 6.18262C18.1258 6.18262 18.1914 6.27691 18.1914 6.34863C18.1914 6.42037 18.1258 6.51465 18 6.51465C17.8744 6.51448 17.8096 6.42031 17.8096 6.34863C17.8096 6.27696 17.8745 6.18279 18 6.18262Z" fill="#805EC9" stroke="#805EC9" stroke-width="2"/>
</svg>
