<svg width="37" height="31" viewBox="0 0 37 31" fill="none" xmlns="http://www.w3.org/2000/svg">
<path d="M22.2207 15.1064L29.2945 15.1064" stroke="#805EC9" stroke-width="2" stroke-linecap="round"/>
<path d="M2.74023 16.165L2.58519 29.5086" stroke="#805EC9" stroke-width="2"/>
<path d="M7.2487 20.6544L3.7617 21.9426L3.73165 18.2098L5.52638 19.2683L5.58462 19.3033L5.64844 19.3234L6.61723 19.6363L6.71249 19.667L6.81033 19.6647L8.40149 19.6295L9.06929 19.6142L7.2487 20.6544Z" fill="#805EC9" stroke="#805EC9" stroke-width="1.25"/>
<mask id="path-4-inside-1_7030_37145" fill="white">
<path d="M28.8018 22.1309C28.8018 22.6831 28.354 23.1309 27.8018 23.1309H18.4524C18.4388 23.1309 18.4277 23.1198 18.4277 23.1062C18.4277 23.0936 18.4181 23.083 18.4056 23.0816C15.4836 22.7617 13.2402 20.8848 13.2402 18.6162C13.2405 16.3477 15.484 14.4704 18.406 14.1508C18.4183 14.1494 18.4277 14.1391 18.4277 14.1267C18.4277 14.1134 18.4386 14.1025 18.4519 14.1025H27.8018C28.354 14.1025 28.8018 14.5503 28.8018 15.1025V22.1309Z"/>
</mask>
<path d="M28.8018 22.1309C28.8018 22.6831 28.354 23.1309 27.8018 23.1309H18.4524C18.4388 23.1309 18.4277 23.1198 18.4277 23.1062C18.4277 23.0936 18.4181 23.083 18.4056 23.0816C15.4836 22.7617 13.2402 20.8848 13.2402 18.6162C13.2405 16.3477 15.484 14.4704 18.406 14.1508C18.4183 14.1494 18.4277 14.1391 18.4277 14.1267C18.4277 14.1134 18.4386 14.1025 18.4519 14.1025H27.8018C28.354 14.1025 28.8018 14.5503 28.8018 15.1025V22.1309Z" fill="white"/>
<path d="M13.2402 18.6162L11.2402 18.616V18.6162H13.2402ZM18.406 14.1508L18.1885 12.1626L18.406 14.1508ZM18.4056 23.0816L18.1879 25.0697L18.4056 23.0816ZM27.8018 23.1309V21.1309H18.4524V23.1309V25.1309H27.8018V23.1309ZM18.4056 23.0816L18.6232 21.0935C16.2127 20.8296 15.2402 19.4281 15.2402 18.6162H13.2402H11.2402C11.2402 22.3415 14.7544 24.6939 18.1879 25.0697L18.4056 23.0816ZM13.2402 18.6162L15.2402 18.6165C15.2403 17.8043 16.2133 16.4026 18.6235 16.1389L18.406 14.1508L18.1885 12.1626C14.7546 12.5383 11.2407 14.891 11.2402 18.616L13.2402 18.6162ZM18.4519 14.1025V16.1025H27.8018V14.1025V12.1025H18.4519V14.1025ZM28.8018 15.1025H26.8018V22.1309H28.8018H30.8018V15.1025H28.8018ZM27.8018 14.1025V16.1025C27.2495 16.1025 26.8018 15.6548 26.8018 15.1025H28.8018H30.8018C30.8018 13.4457 29.4586 12.1025 27.8018 12.1025V14.1025ZM18.406 14.1508L18.6235 16.1389C19.6355 16.0282 20.4277 15.1741 20.4277 14.1267H18.4277H16.4277C16.4277 13.104 17.2011 12.2707 18.1885 12.1626L18.406 14.1508ZM18.4277 23.1062H20.4277C20.4277 22.0585 19.6354 21.2043 18.6232 21.0935L18.4056 23.0816L18.1879 25.0697C17.2009 24.9617 16.4277 24.1286 16.4277 23.1062H18.4277ZM18.4524 23.1309V21.1309C19.5433 21.1309 20.4277 22.0152 20.4277 23.1062H18.4277H16.4277C16.4277 24.2244 17.3343 25.1309 18.4524 25.1309V23.1309ZM18.4277 14.1267H20.4277C20.4277 15.2179 19.5431 16.1025 18.4519 16.1025V14.1025V12.1025C17.334 12.1025 16.4277 13.0088 16.4277 14.1267H18.4277ZM27.8018 23.1309V25.1309C29.4586 25.1309 30.8018 23.7877 30.8018 22.1309H28.8018H26.8018C26.8018 21.5786 27.2495 21.1309 27.8018 21.1309V23.1309Z" fill="#805EC9" mask="url(#path-4-inside-1_7030_37145)"/>
<mask id="path-6-inside-2_7030_37145" fill="white">
<path d="M21.0023 22.2023C21.0013 21.65 21.4482 21.2014 22.0005 21.2003L30.4585 21.1832C30.4758 21.1831 30.493 21.1822 30.5103 21.1821C30.5274 21.1821 30.5449 21.1829 30.562 21.183L31.3504 21.1814C31.3637 21.1814 31.3746 21.1922 31.3746 21.2055C31.3746 21.2179 31.384 21.2282 31.3963 21.2296C34.3191 21.5434 36.566 23.4157 36.5701 25.6846C36.5741 27.9533 34.3342 29.8356 31.4127 30.1613C31.4002 30.1627 31.3906 30.1733 31.3906 30.186C31.3906 30.1996 31.3796 30.2107 31.366 30.2107L22.0166 30.2295C21.4643 30.2306 21.0158 29.7838 21.0149 29.2315L21.0023 22.2023Z"/>
</mask>
<path d="M21.0023 22.2023C21.0013 21.65 21.4482 21.2014 22.0005 21.2003L30.4585 21.1832C30.4758 21.1831 30.493 21.1822 30.5103 21.1821C30.5274 21.1821 30.5449 21.1829 30.562 21.183L31.3504 21.1814C31.3637 21.1814 31.3746 21.1922 31.3746 21.2055C31.3746 21.2179 31.384 21.2282 31.3963 21.2296C34.3191 21.5434 36.566 23.4157 36.5701 25.6846C36.5741 27.9533 34.3342 29.8356 31.4127 30.1613C31.4002 30.1627 31.3906 30.1733 31.3906 30.186C31.3906 30.1996 31.3796 30.2107 31.366 30.2107L22.0166 30.2295C21.4643 30.2306 21.0158 29.7838 21.0149 29.2315L21.0023 22.2023Z" fill="white"/>
<path d="M30.4585 21.1832L30.4621 23.1832L30.4747 23.1831L30.4585 21.1832ZM30.5103 21.1821L30.5067 19.1821L30.5066 19.1821L30.5103 21.1821ZM30.562 21.183L30.5532 23.183L30.5656 23.183L30.562 21.183ZM36.5701 25.6846L38.5701 25.6806L38.5701 25.6805L36.5701 25.6846ZM21.0149 29.2315L23.0148 29.2275L21.0149 29.2315ZM31.3963 21.2296L31.6103 19.241L31.3963 21.2296ZM22.0005 21.2003L22.0041 23.2002L30.4621 23.1832L30.4585 21.1832L30.455 19.1832L21.997 19.2003L22.0005 21.2003ZM30.4585 21.1832L30.4747 23.1831C30.4933 23.183 30.5091 23.1827 30.5198 23.1824C30.5296 23.1822 30.5394 23.1819 30.5414 23.1818C30.5454 23.1817 30.5432 23.1818 30.5394 23.1818C30.5351 23.1819 30.526 23.1821 30.5139 23.1821L30.5103 21.1821L30.5066 19.1821C30.4859 19.1822 30.4682 19.1825 30.4553 19.1827C30.4428 19.183 30.432 19.1833 30.4274 19.1835C30.4207 19.1836 30.4219 19.1836 30.4231 19.1836C30.4252 19.1835 30.4324 19.1834 30.4424 19.1833L30.4585 21.1832ZM30.5103 21.1821L30.5138 23.1821C30.5015 23.1822 30.4924 23.182 30.4882 23.1819C30.4845 23.1819 30.4823 23.1818 30.4864 23.1819C30.4884 23.182 30.4982 23.1822 30.508 23.1824C30.5187 23.1826 30.5345 23.1829 30.5532 23.183L30.562 21.183L30.5709 19.183C30.581 19.1831 30.5883 19.1832 30.5903 19.1832C30.5914 19.1833 30.5926 19.1833 30.5859 19.1831C30.5813 19.183 30.5705 19.1828 30.5582 19.1825C30.5454 19.1823 30.5276 19.1821 30.5067 19.1821L30.5103 21.1821ZM30.562 21.183L30.5656 23.183L31.3539 23.1814L31.3504 21.1814L31.3468 19.1814L30.5585 19.183L30.562 21.183ZM31.3963 21.2296L31.1824 23.2181C33.5936 23.477 34.5686 24.8766 34.5701 25.6886L36.5701 25.6846L38.5701 25.6805C38.5634 21.9549 35.0447 19.6098 31.6103 19.241L31.3963 21.2296ZM36.5701 25.6846L34.5701 25.6886C34.5715 26.5011 33.6009 27.905 31.1916 28.1736L31.4127 30.1613L31.6339 32.149C35.0674 31.7662 38.5766 29.4055 38.5701 25.6806L36.5701 25.6846ZM31.366 30.2107L31.3624 28.2107L22.0131 28.2295L22.0166 30.2295L22.0202 32.2295L31.3695 32.2107L31.366 30.2107ZM21.0149 29.2315L23.0148 29.2275L23.0023 22.1982L21.0023 22.2023L19.0023 22.2063L19.0149 29.2356L21.0149 29.2315ZM22.0166 30.2295L22.0131 28.2295C22.5653 28.2284 23.0139 28.6752 23.0148 29.2275L21.0149 29.2315L19.0149 29.2356C19.0178 30.8924 20.3633 32.2329 22.0202 32.2295L22.0166 30.2295ZM31.3906 30.186L29.3906 30.19C29.3887 29.0991 30.2715 28.2129 31.3624 28.2107L31.366 30.2107L31.3695 32.2107C32.4877 32.2084 33.3926 31.3001 33.3906 30.1819L31.3906 30.186ZM31.4127 30.1613L31.1916 28.1736C30.1796 28.2865 29.3887 29.1423 29.3906 30.19L31.3906 30.186L33.3906 30.1819C33.3924 31.2043 32.6208 32.039 31.6339 32.149L31.4127 30.1613ZM31.3504 21.1814L31.3539 23.1814C30.2627 23.1836 29.3765 22.3008 29.3746 21.2096L31.3746 21.2055L33.3746 21.2015C33.3726 20.0836 32.4647 19.1792 31.3468 19.1814L31.3504 21.1814ZM31.3746 21.2055L29.3746 21.2096C29.3765 22.2569 30.1702 23.1095 31.1824 23.2181L31.3963 21.2296L31.6103 19.241C32.5979 19.347 33.3728 20.1789 33.3746 21.2015L31.3746 21.2055ZM22.0005 21.2003L21.997 19.2003C20.3401 19.2036 18.9994 20.5494 19.0023 22.2063L21.0023 22.2023L23.0023 22.1982C23.0033 22.7505 22.5564 23.1991 22.0041 23.2002L22.0005 21.2003Z" fill="#805EC9" mask="url(#path-6-inside-2_7030_37145)"/>
<path d="M1 29.2002H24.3434" stroke="#805EC9" stroke-width="2" stroke-linecap="round"/>
<mask id="path-9-inside-3_7030_37145" fill="white">
<rect x="23" y="16.1064" width="8" height="5" rx="1"/>
</mask>
<rect x="23" y="16.1064" width="8" height="5" rx="1" fill="white" stroke="#FFFCFC" stroke-width="2.5" mask="url(#path-9-inside-3_7030_37145)"/>
<mask id="path-10-inside-4_7030_37145" fill="white">
<rect x="18" y="23.2002" width="8" height="5" rx="1"/>
</mask>
<rect x="18" y="23.2002" width="8" height="5" rx="1" fill="white" stroke="#FFFCFC" stroke-width="2.5" mask="url(#path-10-inside-4_7030_37145)"/>
<path d="M28.1309 1.00195L27.9758 14.3455" stroke="#805EC9" stroke-width="2"/>
<path d="M32.6393 5.49234L29.1523 6.78051L29.1223 3.04774L30.917 4.10616L30.9752 4.14118L31.0391 4.16129L32.0079 4.47424L32.1031 4.50491L32.201 4.50261L33.7921 4.46741L34.4599 4.45207L32.6393 5.49234Z" fill="#805EC9" stroke="#805EC9" stroke-width="1.25"/>
<path d="M15.667 1C19.9519 1.00001 23.6347 3.56459 25.3327 7.24784C25.5639 7.74927 25.2861 8.32354 24.7656 8.50781C24.2451 8.69174 23.6791 8.41565 23.4378 7.91914C22.0175 4.99664 19.0641 3.00001 15.667 3C10.8971 3.00016 7.00018 6.9415 7 11.8408C7 13.15 7.27869 14.3905 7.77769 15.5059C8.00316 16.0099 7.8504 16.6215 7.375 16.9023C6.8994 17.1827 6.28169 17.0265 6.04588 16.5273C5.37528 15.1076 5 13.5174 5 11.8408C5.00018 5.87064 9.75915 1.00016 15.667 1ZM16.5996 9.41874C16.5996 9.71753 16.7481 9.99106 16.9181 10.2368C17.1053 10.5075 17.2148 10.8349 17.2148 11.1875C17.2147 12.1191 16.4509 12.874 15.5088 12.874C15.1101 12.874 14.743 12.7391 14.4524 12.5127C14.1921 12.3099 13.8955 12.1296 13.5655 12.129L10.9827 12.1247C10.4303 12.1238 9.9833 11.6751 9.98438 11.1227C9.98545 10.5706 10.4338 10.1238 10.986 10.1247L13.9202 10.1295C14.0844 10.1297 14.2361 10.0524 14.3581 9.94252C14.4978 9.81675 14.5996 9.64655 14.5996 9.4586V5.25C14.5996 4.69772 15.0473 4.25 15.5996 4.25C16.1519 4.25 16.5996 4.69772 16.5996 5.25V9.41874Z" fill="#805EC9"/>
</svg>
