<svg width="36" height="36" viewBox="0 0 36 36" fill="none" xmlns="http://www.w3.org/2000/svg">
<mask id="mask0_5598_13984" style="mask-type:alpha" maskUnits="userSpaceOnUse" x="0" y="0" width="36" height="36">
<rect width="36" height="36" fill="#D9D9D9"/>
</mask>
<g mask="url(#mask0_5598_13984)">
<path d="M7.59609 30.75C6.95334 30.75 6.40158 30.5196 5.94083 30.0589C5.48008 29.5981 5.24971 29.0464 5.24971 28.4036V7.59638C5.24971 6.95363 5.48008 6.40187 5.94083 5.94112C6.40158 5.48037 6.95334 5.25 7.59609 5.25H14.9461C14.9453 4.434 15.2401 3.73 15.8303 3.138C16.4208 2.546 17.144 2.25 17.9997 2.25C18.8652 2.25 19.5931 2.546 20.1833 3.138C20.7738 3.73 21.0638 4.434 21.0533 5.25H28.4033C29.0461 5.25 29.5978 5.48037 30.0586 5.94112C30.5193 6.40187 30.7497 6.95363 30.7497 7.59638V18.195C30.4445 18.054 30.1331 17.9365 29.8156 17.8425C29.4978 17.7483 29.181 17.6684 28.865 17.6029V7.59638C28.865 7.48088 28.817 7.375 28.721 7.27875C28.6247 7.18275 28.5188 7.13475 28.4033 7.13475H7.59609C7.48059 7.13475 7.37471 7.18275 7.27846 7.27875C7.18246 7.375 7.13446 7.48088 7.13446 7.59638V28.4036C7.13446 28.5191 7.18246 28.625 7.27846 28.7213C7.37471 28.8173 7.48059 28.8652 7.59609 28.8652H17.6056C17.6716 29.2062 17.7502 29.5345 17.8415 29.85C17.933 30.1653 18.047 30.4653 18.1835 30.75H7.59609ZM7.13446 28.8652V7.13475V17.6029V17.475V28.8652ZM10.8747 24.9517H17.7736C17.8558 24.6255 17.9521 24.3061 18.0623 23.9936C18.1726 23.6811 18.3036 23.3724 18.4553 23.0674H10.8747V24.9517ZM10.8747 18.9424H22.2121C22.6353 18.6751 23.0533 18.4503 23.4661 18.2677C23.8788 18.0855 24.326 17.935 24.8075 17.8162V17.0576H10.8747V18.9424ZM10.8747 12.9326H25.1247V11.0482H10.8747V12.9326ZM17.9978 6.39225C18.3316 6.39225 18.6188 6.27413 18.8596 6.03788C19.1003 5.80163 19.2207 5.51438 19.2207 5.17613C19.2207 4.83763 19.1003 4.55025 18.8596 4.314C18.6188 4.07775 18.3316 3.95963 17.9978 3.95963C17.6638 3.95963 17.3787 4.07775 17.1425 4.314C16.9062 4.55025 16.7881 4.83763 16.7881 5.17613C16.7881 5.51438 16.9062 5.80163 17.1425 6.03788C17.3787 6.27413 17.6638 6.39225 17.9978 6.39225ZM27.2303 33.8213C25.4263 33.8213 23.8888 33.1809 22.6178 31.9001C21.3468 30.6194 20.7113 29.0886 20.7113 27.3079C20.7113 25.4864 21.3467 23.9394 22.6175 22.6669C23.8885 21.3941 25.4302 20.7577 27.2427 20.7577C29.0385 20.7577 30.5745 21.3941 31.8507 22.6669C33.127 23.9394 33.7651 25.4864 33.7651 27.3079C33.7651 29.0886 33.127 30.6194 31.8507 31.9001C30.5745 33.1809 29.0343 33.8213 27.2303 33.8213ZM26.6611 31.8499H27.8611V27.9173H31.7941V26.7173H27.8611V22.7846H26.6611V26.7173H22.7285V27.9173H26.6611V31.8499Z" fill="#805EC9"/>
</g>
</svg>
