<svg width="65" height="32" viewBox="0 0 65 32" fill="none" xmlns="http://www.w3.org/2000/svg">
<mask id="mask0_5206_13373" style="mask-type:alpha" maskUnits="userSpaceOnUse" x="18" y="6" width="29" height="28">
<rect x="18.75" y="6" width="28" height="28" fill="#D9D9D9"/>
</mask>
<g mask="url(#mask0_5206_13373)">
<path d="M29.595 22.2885L32.7493 20.3749L35.9037 22.2885L35.0669 18.701L37.8646 16.2892L34.1829 15.9795L32.7493 12.5964L31.3158 15.9795L27.6341 16.2892L30.4318 18.701L29.595 22.2885ZM21.666 30.545V11.0258C21.666 10.4364 21.8702 9.93758 22.2785 9.52925C22.6868 9.12091 23.1857 8.91675 23.7751 8.91675H41.7236C42.313 8.91675 42.8119 9.12091 43.2202 9.52925C43.6285 9.93758 43.8327 10.4364 43.8327 11.0258V24.3077C43.8327 24.8971 43.6285 25.3959 43.2202 25.8042C42.8119 26.2126 42.313 26.4167 41.7236 26.4167H25.7943L21.666 30.545ZM25.0493 24.6667H41.7236C41.8135 24.6667 41.8957 24.6293 41.9704 24.5545C42.0453 24.4798 42.0827 24.3975 42.0827 24.3077V11.0258C42.0827 10.936 42.0453 10.8537 41.9704 10.779C41.8957 10.7042 41.8135 10.6667 41.7236 10.6667H23.7751C23.6852 10.6667 23.603 10.7042 23.5283 10.779C23.4534 10.8537 23.416 10.936 23.416 11.0258V26.2823L25.0493 24.6667Z" fill="#1C1B1F"/>
</g>
</svg>
