<svg width="29" height="28" viewBox="0 0 29 28" fill="none" xmlns="http://www.w3.org/2000/svg">
<mask id="mask0_5607_5398" style="mask-type:alpha" maskUnits="userSpaceOnUse" x="0" y="0" width="29" height="28">
<rect x="0.25" width="28" height="28" fill="#D9D9D9"/>
</mask>
<g mask="url(#mask0_5607_5398)">
<path d="M11.0953 16.2883L14.2497 14.3746L17.4041 16.2883L16.5673 12.7008L19.365 10.289L15.6833 9.97921L14.2497 6.59617L12.8162 9.97921L9.13447 10.289L11.9321 12.7008L11.0953 16.2883ZM3.16638 24.5448V5.02555C3.16638 4.43618 3.37055 3.93734 3.77888 3.529C4.18722 3.12067 4.68606 2.9165 5.27542 2.9165H23.224C23.8134 2.9165 24.3122 3.12067 24.7206 3.529C25.1289 3.93734 25.333 4.43618 25.333 5.02555V18.3075C25.333 18.8968 25.1289 19.3957 24.7206 19.804C24.3122 20.2123 23.8134 20.4165 23.224 20.4165H7.29463L3.16638 24.5448ZM6.54972 18.6665H23.224C23.3138 18.6665 23.3961 18.6291 23.4708 18.5542C23.5456 18.4795 23.583 18.3973 23.583 18.3075V5.02555C23.583 4.93571 23.5456 4.85346 23.4708 4.77879C23.3961 4.70393 23.3138 4.6665 23.224 4.6665H5.27542C5.18559 4.6665 5.10334 4.70393 5.02867 4.77879C4.95381 4.85346 4.91638 4.93571 4.91638 5.02555V20.282L6.54972 18.6665Z" fill="#1C1B1F"/>
</g>
</svg>
