<svg width="65" height="32" viewBox="0 0 65 32" fill="none" xmlns="http://www.w3.org/2000/svg">
<mask id="mask0_5206_14271" style="mask-type:alpha" maskUnits="userSpaceOnUse" x="18" y="6" width="29" height="28">
<rect x="18.75" y="6" width="28" height="28" fill="#D9D9D9"/>
</mask>
<g mask="url(#mask0_5206_14271)">
<path d="M21.666 30.5448V11.0255C21.666 10.4362 21.8702 9.93734 22.2785 9.529C22.6868 9.12067 23.1857 8.9165 23.7751 8.9165H41.7236C42.313 8.9165 42.8119 9.12067 43.2202 9.529C43.6285 9.93734 43.8327 10.4362 43.8327 11.0255V24.3075C43.8327 24.8968 43.6285 25.3957 43.2202 25.804C42.8119 26.2123 42.313 26.4165 41.7236 26.4165H25.7943L21.666 30.5448ZM29.595 22.2883L32.7493 20.3746L35.9037 22.2883L35.0669 18.7008L37.8646 16.289L34.1829 15.9792L32.7493 12.5962L31.3158 15.9792L27.6341 16.289L30.4318 18.7008L29.595 22.2883Z" fill="#1C1B1F"/>
</g>
</svg>
