<svg width="65" height="32" viewBox="0 0 65 32" fill="none" xmlns="http://www.w3.org/2000/svg">
<mask id="mask0_5206_13344" style="mask-type:alpha" maskUnits="userSpaceOnUse" x="18" y="2" width="29" height="28">
<rect x="18.75" y="2" width="28" height="28" fill="#D9D9D9"/>
</mask>
<g mask="url(#mask0_5206_13344)">
<path d="M21.083 15.028V8.61129C21.083 8.08629 21.2758 7.6309 21.6614 7.24512C22.0472 6.85954 22.5025 6.66675 23.0275 6.66675H42.4718C42.9968 6.66675 43.4522 6.85954 43.838 7.24512C44.2235 7.6309 44.4163 8.08629 44.4163 8.61129V16.8167C44.0858 16.6676 43.7504 16.5558 43.4101 16.4813C43.0698 16.4069 42.7247 16.3696 42.3747 16.3696C41.9144 16.3696 41.4607 16.4344 41.0135 16.5639C40.5662 16.6936 40.145 16.8783 39.7497 17.118C39.5358 16.9819 39.3187 16.8686 39.0984 16.778C38.8779 16.6872 38.6412 16.6126 38.3885 16.5542V15.028H34.5288L32.458 10.8863C32.3738 10.7177 32.2506 10.5977 32.0885 10.5264C31.9265 10.4552 31.758 10.4196 31.583 10.4196C31.408 10.4196 31.2395 10.4552 31.0775 10.5264C30.9154 10.5977 30.7922 10.7177 30.708 10.8863L26.9163 18.4889L25.458 15.553C25.3738 15.378 25.2506 15.2467 25.0885 15.1592C24.9265 15.0717 24.758 15.028 24.583 15.028H21.083ZM23.0275 25.3334C22.5025 25.3334 22.0472 25.1406 21.6614 24.755C21.2758 24.3693 21.083 23.9139 21.083 23.3889V16.9722H23.9705L26.0413 21.1139C26.1255 21.2889 26.2487 21.4201 26.4109 21.5076C26.5729 21.5951 26.7413 21.6389 26.9163 21.6389C27.0913 21.6389 27.2598 21.5951 27.4218 21.5076C27.584 21.4201 27.7071 21.2889 27.7913 21.1139L31.583 13.5113L33.0413 16.4472C33.1255 16.6094 33.2405 16.7342 33.3864 16.8217C33.5322 16.9092 33.6894 16.9594 33.858 16.9722H34.8885C34.0201 17.3741 33.3169 17.9802 32.7788 18.7905C32.2408 19.6005 31.9718 20.5176 31.9718 21.5417C31.9718 22.3584 32.1128 23.0503 32.3947 23.6175C32.6767 24.1845 33.0964 24.7565 33.6538 25.3334H23.0275ZM37.1247 18.3334C37.6497 18.3334 38.1358 18.4501 38.583 18.6834C39.0302 18.9167 39.4191 19.257 39.7497 19.7042C40.0802 19.257 40.4691 18.9167 40.9163 18.6834C41.3636 18.4501 41.8497 18.3334 42.3747 18.3334C43.2691 18.3334 44.0275 18.6445 44.6497 19.2667C45.2719 19.889 45.583 20.6473 45.583 21.5417C45.583 22.2417 45.3302 22.9174 44.8247 23.5688C44.3191 24.2202 43.2108 25.2751 41.4997 26.7334L39.7497 28.2501L37.9997 26.7334C36.2886 25.2751 35.1802 24.2202 34.6747 23.5688C34.1691 22.9174 33.9163 22.2417 33.9163 21.5417C33.9163 20.6473 34.2275 19.889 34.8497 19.2667C35.4719 18.6445 36.2302 18.3334 37.1247 18.3334Z" fill="#5E5C6C"/>
<path d="M21.083 15.028V8.61129C21.083 8.08629 21.2758 7.6309 21.6614 7.24512C22.0472 6.85954 22.5025 6.66675 23.0275 6.66675H42.4718C42.9968 6.66675 43.4522 6.85954 43.838 7.24512C44.2235 7.6309 44.4163 8.08629 44.4163 8.61129V16.8167C44.0858 16.6676 43.7504 16.5558 43.4101 16.4813C43.0698 16.4069 42.7247 16.3696 42.3747 16.3696C41.9144 16.3696 41.4607 16.4344 41.0135 16.5639C40.5662 16.6936 40.145 16.8783 39.7497 17.118C39.5358 16.9819 39.3187 16.8686 39.0984 16.778C38.8779 16.6872 38.6412 16.6126 38.3885 16.5542V15.028H34.5288L32.458 10.8863C32.3738 10.7177 32.2506 10.5977 32.0885 10.5264C31.9265 10.4552 31.758 10.4196 31.583 10.4196C31.408 10.4196 31.2395 10.4552 31.0775 10.5264C30.9154 10.5977 30.7922 10.7177 30.708 10.8863L26.9163 18.4889L25.458 15.553C25.3738 15.378 25.2506 15.2467 25.0885 15.1592C24.9265 15.0717 24.758 15.028 24.583 15.028H21.083ZM23.0275 25.3334C22.5025 25.3334 22.0472 25.1406 21.6614 24.755C21.2758 24.3693 21.083 23.9139 21.083 23.3889V16.9722H23.9705L26.0413 21.1139C26.1255 21.2889 26.2487 21.4201 26.4109 21.5076C26.5729 21.5951 26.7413 21.6389 26.9163 21.6389C27.0913 21.6389 27.2598 21.5951 27.4218 21.5076C27.584 21.4201 27.7071 21.2889 27.7913 21.1139L31.583 13.5113L33.0413 16.4472C33.1255 16.6094 33.2405 16.7342 33.3864 16.8217C33.5322 16.9092 33.6894 16.9594 33.858 16.9722H34.8885C34.0201 17.3741 33.3169 17.9802 32.7788 18.7905C32.2408 19.6005 31.9718 20.5176 31.9718 21.5417C31.9718 22.3584 32.1128 23.0503 32.3947 23.6175C32.6767 24.1845 33.0964 24.7565 33.6538 25.3334H23.0275ZM37.1247 18.3334C37.6497 18.3334 38.1358 18.4501 38.583 18.6834C39.0302 18.9167 39.4191 19.257 39.7497 19.7042C40.0802 19.257 40.4691 18.9167 40.9163 18.6834C41.3636 18.4501 41.8497 18.3334 42.3747 18.3334C43.2691 18.3334 44.0275 18.6445 44.6497 19.2667C45.2719 19.889 45.583 20.6473 45.583 21.5417C45.583 22.2417 45.3302 22.9174 44.8247 23.5688C44.3191 24.2202 43.2108 25.2751 41.4997 26.7334L39.7497 28.2501L37.9997 26.7334C36.2886 25.2751 35.1802 24.2202 34.6747 23.5688C34.1691 22.9174 33.9163 22.2417 33.9163 21.5417C33.9163 20.6473 34.2275 19.889 34.8497 19.2667C35.4719 18.6445 36.2302 18.3334 37.1247 18.3334Z" fill="#3E3D48"/>
</g>
</svg>
