<svg width="29" height="28" viewBox="0 0 29 28" fill="none" xmlns="http://www.w3.org/2000/svg">
<mask id="mask0_5607_5391" style="mask-type:alpha" maskUnits="userSpaceOnUse" x="0" y="0" width="29" height="28">
<rect x="0.75" width="28" height="28" fill="#D9D9D9"/>
</mask>
<g mask="url(#mask0_5607_5391)">
<path d="M3.08334 11.0832V6.61105C3.08334 6.08605 3.27614 5.63066 3.66172 5.24488C4.0475 4.8593 4.50289 4.6665 5.02789 4.6665H24.4721C24.9971 4.6665 25.4525 4.8593 25.8383 5.24488C26.2239 5.63066 26.4167 6.08605 26.4167 6.61105V13.9998H24.4721V6.61105H5.02789V11.0832H3.08334ZM5.02789 23.3332C4.50289 23.3332 4.0475 23.1404 3.66172 22.7548C3.27614 22.369 3.08334 21.9136 3.08334 21.3886V16.9165H5.02789V21.3886H13.5638V23.3332H5.02789ZM21.75 26.2498L19.5821 24.4027C18.0782 23.1128 17.0914 22.1551 16.6216 21.5298C16.1517 20.9043 15.9167 20.2415 15.9167 19.5415C15.9167 18.6665 16.2278 17.913 16.85 17.2811C17.4722 16.6491 18.2306 16.3332 19.125 16.3332C19.6306 16.3332 20.1118 16.4498 20.5688 16.6832C21.0257 16.9165 21.4195 17.2568 21.75 17.704C22.0611 17.2568 22.4451 16.9165 22.9021 16.6832C23.359 16.4498 23.85 16.3332 24.375 16.3332C25.25 16.3332 26.0035 16.6491 26.6354 17.2811C27.2674 17.913 27.5833 18.6665 27.5833 19.5415C27.5833 20.2415 27.3403 20.9107 26.8542 21.549C26.3681 22.1876 25.3343 23.1777 23.7529 24.5194L21.75 26.2498ZM21.75 23.6832L22.6446 22.9152C23.8629 21.878 24.6666 21.144 25.0555 20.7131C25.4444 20.282 25.6388 19.8915 25.6388 19.5415C25.6388 19.2045 25.5124 18.9097 25.2596 18.6569C25.0069 18.4041 24.712 18.2777 24.375 18.2777C24.1652 18.2777 23.975 18.3215 23.8045 18.409C23.634 18.4965 23.4482 18.6374 23.2471 18.8319L21.75 20.2415L20.2237 18.8319C20.0227 18.6374 19.8358 18.4965 19.6631 18.409C19.4905 18.3215 19.3111 18.2777 19.125 18.2777C18.7686 18.2777 18.4689 18.4041 18.2258 18.6569C17.9827 18.9097 17.8612 19.2045 17.8612 19.5415C17.8612 19.8915 18.0961 20.3307 18.5659 20.859C19.0359 21.3871 19.7829 22.0725 20.8071 22.9152L21.75 23.6832ZM8.91551 19.6386C8.72184 19.6386 8.54889 19.5949 8.39664 19.5074C8.24419 19.4199 8.11936 19.2886 8.02214 19.1136L5.97084 14.972H3.08334V13.0277H6.58334C6.76048 13.0277 6.92566 13.0772 7.07889 13.1762C7.23191 13.2751 7.34868 13.4071 7.42918 13.572L8.91668 16.4985L12.7083 8.9053C12.7925 8.73691 12.9149 8.61382 13.0756 8.53605C13.236 8.45827 13.4045 8.41938 13.581 8.41938C13.7576 8.41938 13.9268 8.45827 14.0888 8.53605C14.251 8.61382 14.3741 8.73691 14.4583 8.9053L16.5 13.0277H20.3888V14.972H15.9167C15.7222 14.972 15.548 14.9282 15.394 14.8407C15.2402 14.7532 15.1228 14.622 15.0417 14.447L13.5638 11.5303L9.76251 19.1136C9.68182 19.2886 9.56486 19.4199 9.41163 19.5074C9.25841 19.5949 9.09304 19.6386 8.91551 19.6386Z" fill="#5E5C6C"/>
<path d="M3.08334 11.0832V6.61105C3.08334 6.08605 3.27614 5.63066 3.66172 5.24488C4.0475 4.8593 4.50289 4.6665 5.02789 4.6665H24.4721C24.9971 4.6665 25.4525 4.8593 25.8383 5.24488C26.2239 5.63066 26.4167 6.08605 26.4167 6.61105V13.9998H24.4721V6.61105H5.02789V11.0832H3.08334ZM5.02789 23.3332C4.50289 23.3332 4.0475 23.1404 3.66172 22.7548C3.27614 22.369 3.08334 21.9136 3.08334 21.3886V16.9165H5.02789V21.3886H13.5638V23.3332H5.02789ZM21.75 26.2498L19.5821 24.4027C18.0782 23.1128 17.0914 22.1551 16.6216 21.5298C16.1517 20.9043 15.9167 20.2415 15.9167 19.5415C15.9167 18.6665 16.2278 17.913 16.85 17.2811C17.4722 16.6491 18.2306 16.3332 19.125 16.3332C19.6306 16.3332 20.1118 16.4498 20.5688 16.6832C21.0257 16.9165 21.4195 17.2568 21.75 17.704C22.0611 17.2568 22.4451 16.9165 22.9021 16.6832C23.359 16.4498 23.85 16.3332 24.375 16.3332C25.25 16.3332 26.0035 16.6491 26.6354 17.2811C27.2674 17.913 27.5833 18.6665 27.5833 19.5415C27.5833 20.2415 27.3403 20.9107 26.8542 21.549C26.3681 22.1876 25.3343 23.1777 23.7529 24.5194L21.75 26.2498ZM21.75 23.6832L22.6446 22.9152C23.8629 21.878 24.6666 21.144 25.0555 20.7131C25.4444 20.282 25.6388 19.8915 25.6388 19.5415C25.6388 19.2045 25.5124 18.9097 25.2596 18.6569C25.0069 18.4041 24.712 18.2777 24.375 18.2777C24.1652 18.2777 23.975 18.3215 23.8045 18.409C23.634 18.4965 23.4482 18.6374 23.2471 18.8319L21.75 20.2415L20.2237 18.8319C20.0227 18.6374 19.8358 18.4965 19.6631 18.409C19.4905 18.3215 19.3111 18.2777 19.125 18.2777C18.7686 18.2777 18.4689 18.4041 18.2258 18.6569C17.9827 18.9097 17.8612 19.2045 17.8612 19.5415C17.8612 19.8915 18.0961 20.3307 18.5659 20.859C19.0359 21.3871 19.7829 22.0725 20.8071 22.9152L21.75 23.6832ZM8.91551 19.6386C8.72184 19.6386 8.54889 19.5949 8.39664 19.5074C8.24419 19.4199 8.11936 19.2886 8.02214 19.1136L5.97084 14.972H3.08334V13.0277H6.58334C6.76048 13.0277 6.92566 13.0772 7.07889 13.1762C7.23191 13.2751 7.34868 13.4071 7.42918 13.572L8.91668 16.4985L12.7083 8.9053C12.7925 8.73691 12.9149 8.61382 13.0756 8.53605C13.236 8.45827 13.4045 8.41938 13.581 8.41938C13.7576 8.41938 13.9268 8.45827 14.0888 8.53605C14.251 8.61382 14.3741 8.73691 14.4583 8.9053L16.5 13.0277H20.3888V14.972H15.9167C15.7222 14.972 15.548 14.9282 15.394 14.8407C15.2402 14.7532 15.1228 14.622 15.0417 14.447L13.5638 11.5303L9.76251 19.1136C9.68182 19.2886 9.56486 19.4199 9.41163 19.5074C9.25841 19.5949 9.09304 19.6386 8.91551 19.6386Z" fill="#3E3D48"/>
</g>
</svg>
