<svg width="65" height="32" viewBox="0 0 65 32" fill="none" xmlns="http://www.w3.org/2000/svg">
<mask id="mask0_5206_12158" style="mask-type:alpha" maskUnits="userSpaceOnUse" x="18" y="2" width="29" height="28">
<rect x="18.75" y="2" width="28" height="28" fill="#D9D9D9"/>
</mask>
<g mask="url(#mask0_5206_12158)">
<path d="M21.083 13.0833V8.61117C21.083 8.08617 21.2758 7.63078 21.6614 7.245C22.0472 6.85942 22.5025 6.66663 23.0275 6.66663H42.4718C42.9968 6.66663 43.4522 6.85942 43.838 7.245C44.2235 7.63078 44.4163 8.08617 44.4163 8.61117V16H42.4718V8.61117H23.0275V13.0833H21.083ZM23.0275 25.3333C22.5025 25.3333 22.0472 25.1405 21.6614 24.7549C21.2758 24.3691 21.083 23.9138 21.083 23.3888V18.9166H23.0275V23.3888H31.5635V25.3333H23.0275ZM39.7497 28.25L37.5817 26.4028C36.0779 25.1129 35.0911 24.1553 34.6213 23.5299C34.1513 22.9044 33.9163 22.2416 33.9163 21.5416C33.9163 20.6666 34.2275 19.9132 34.8497 19.2812C35.4719 18.6493 36.2302 18.3333 37.1247 18.3333C37.6302 18.3333 38.1115 18.45 38.5684 18.6833C39.0254 18.9166 39.4191 19.2569 39.7497 19.7041C40.0608 19.2569 40.4448 18.9166 40.9018 18.6833C41.3587 18.45 41.8497 18.3333 42.3747 18.3333C43.2497 18.3333 44.0031 18.6493 44.6351 19.2812C45.267 19.9132 45.583 20.6666 45.583 21.5416C45.583 22.2416 45.34 22.9108 44.8538 23.5492C44.3677 24.1877 43.334 25.1778 41.7525 26.5195L39.7497 28.25ZM39.7497 25.6833L40.6442 24.9153C41.8626 23.8782 42.6662 23.1441 43.0551 22.7133C43.444 22.2822 43.6385 21.8916 43.6385 21.5416C43.6385 21.2047 43.5121 20.9098 43.2593 20.657C43.0065 20.4042 42.7116 20.2778 42.3747 20.2778C42.1649 20.2778 41.9747 20.3216 41.8042 20.4091C41.6336 20.4966 41.4479 20.6376 41.2468 20.832L39.7497 22.2416L38.2234 20.832C38.0223 20.6376 37.8355 20.4966 37.6628 20.4091C37.4901 20.3216 37.3108 20.2778 37.1247 20.2778C36.7683 20.2778 36.4685 20.4042 36.2255 20.657C35.9824 20.9098 35.8609 21.2047 35.8609 21.5416C35.8609 21.8916 36.0958 22.3308 36.5655 22.8591C37.0355 23.3872 37.7826 24.0726 38.8067 24.9153L39.7497 25.6833ZM26.9152 21.6387C26.7215 21.6387 26.5485 21.595 26.3963 21.5075C26.2439 21.42 26.119 21.2888 26.0218 21.1138L23.9705 16.9721H21.083V15.0278H24.583C24.7601 15.0278 24.9253 15.0773 25.0785 15.1763C25.2316 15.2753 25.3483 15.4072 25.4288 15.5721L26.9163 18.4987L30.708 10.9054C30.7922 10.737 30.9146 10.6139 31.0752 10.5362C31.2356 10.4584 31.4041 10.4195 31.5807 10.4195C31.7572 10.4195 31.9265 10.4584 32.0885 10.5362C32.2506 10.6139 32.3738 10.737 32.458 10.9054L34.4997 15.0278H38.3885V16.9721H33.9163C33.7219 16.9721 33.5477 16.9283 33.3937 16.8408C33.2399 16.7533 33.1224 16.6221 33.0413 16.4471L31.5635 13.5304L27.7622 21.1138C27.6815 21.2888 27.5645 21.42 27.4113 21.5075C27.2581 21.595 27.0927 21.6387 26.9152 21.6387Z" fill="#5E5C6C"/>
<path d="M21.083 13.0833V8.61117C21.083 8.08617 21.2758 7.63078 21.6614 7.245C22.0472 6.85942 22.5025 6.66663 23.0275 6.66663H42.4718C42.9968 6.66663 43.4522 6.85942 43.838 7.245C44.2235 7.63078 44.4163 8.08617 44.4163 8.61117V16H42.4718V8.61117H23.0275V13.0833H21.083ZM23.0275 25.3333C22.5025 25.3333 22.0472 25.1405 21.6614 24.7549C21.2758 24.3691 21.083 23.9138 21.083 23.3888V18.9166H23.0275V23.3888H31.5635V25.3333H23.0275ZM39.7497 28.25L37.5817 26.4028C36.0779 25.1129 35.0911 24.1553 34.6213 23.5299C34.1513 22.9044 33.9163 22.2416 33.9163 21.5416C33.9163 20.6666 34.2275 19.9132 34.8497 19.2812C35.4719 18.6493 36.2302 18.3333 37.1247 18.3333C37.6302 18.3333 38.1115 18.45 38.5684 18.6833C39.0254 18.9166 39.4191 19.2569 39.7497 19.7041C40.0608 19.2569 40.4448 18.9166 40.9018 18.6833C41.3587 18.45 41.8497 18.3333 42.3747 18.3333C43.2497 18.3333 44.0031 18.6493 44.6351 19.2812C45.267 19.9132 45.583 20.6666 45.583 21.5416C45.583 22.2416 45.34 22.9108 44.8538 23.5492C44.3677 24.1877 43.334 25.1778 41.7525 26.5195L39.7497 28.25ZM39.7497 25.6833L40.6442 24.9153C41.8626 23.8782 42.6662 23.1441 43.0551 22.7133C43.444 22.2822 43.6385 21.8916 43.6385 21.5416C43.6385 21.2047 43.5121 20.9098 43.2593 20.657C43.0065 20.4042 42.7116 20.2778 42.3747 20.2778C42.1649 20.2778 41.9747 20.3216 41.8042 20.4091C41.6336 20.4966 41.4479 20.6376 41.2468 20.832L39.7497 22.2416L38.2234 20.832C38.0223 20.6376 37.8355 20.4966 37.6628 20.4091C37.4901 20.3216 37.3108 20.2778 37.1247 20.2778C36.7683 20.2778 36.4685 20.4042 36.2255 20.657C35.9824 20.9098 35.8609 21.2047 35.8609 21.5416C35.8609 21.8916 36.0958 22.3308 36.5655 22.8591C37.0355 23.3872 37.7826 24.0726 38.8067 24.9153L39.7497 25.6833ZM26.9152 21.6387C26.7215 21.6387 26.5485 21.595 26.3963 21.5075C26.2439 21.42 26.119 21.2888 26.0218 21.1138L23.9705 16.9721H21.083V15.0278H24.583C24.7601 15.0278 24.9253 15.0773 25.0785 15.1763C25.2316 15.2753 25.3483 15.4072 25.4288 15.5721L26.9163 18.4987L30.708 10.9054C30.7922 10.737 30.9146 10.6139 31.0752 10.5362C31.2356 10.4584 31.4041 10.4195 31.5807 10.4195C31.7572 10.4195 31.9265 10.4584 32.0885 10.5362C32.2506 10.6139 32.3738 10.737 32.458 10.9054L34.4997 15.0278H38.3885V16.9721H33.9163C33.7219 16.9721 33.5477 16.9283 33.3937 16.8408C33.2399 16.7533 33.1224 16.6221 33.0413 16.4471L31.5635 13.5304L27.7622 21.1138C27.6815 21.2888 27.5645 21.42 27.4113 21.5075C27.2581 21.595 27.0927 21.6387 26.9152 21.6387Z" fill="#3E3D48"/>
</g>
</svg>
