<svg width="33" height="33" viewBox="0 0 33 33" fill="none" xmlns="http://www.w3.org/2000/svg">
<mask id="mask0_6684_19496" style="mask-type:alpha" maskUnits="userSpaceOnUse" x="0" y="0" width="33" height="33">
<rect x="0.5" y="0.5" width="32" height="32" fill="#D9D9D9"/>
</mask>
<g mask="url(#mask0_6684_19496)">
<path d="M5.91867 27.8332C5.34556 27.8332 4.85467 27.6288 4.44601 27.2202C4.03734 26.8115 3.83301 26.3206 3.83301 25.7475V7.25217C3.83301 6.67906 4.03734 6.18817 4.44601 5.7795C4.85467 5.37084 5.34556 5.1665 5.91867 5.1665H27.0807C27.6538 5.1665 28.1447 5.37084 28.5533 5.7795C28.962 6.18817 29.1663 6.67906 29.1663 7.25217V25.7475C29.1663 26.3206 28.962 26.8115 28.5533 27.2202C28.1447 27.6288 27.6538 27.8332 27.0807 27.8332H5.91867ZM9.16134 22.5545H23.838V20.8792H9.16134V22.5545ZM9.16134 17.3015H13.9987V10.4452H9.16134V17.3015ZM17.31 17.3015H23.838V15.6265H17.31V17.3015ZM17.31 12.1205H23.838V10.4452H17.31V12.1205Z" fill="#5E5C6C"/>
<path d="M5.91867 27.8332C5.34556 27.8332 4.85467 27.6288 4.44601 27.2202C4.03734 26.8115 3.83301 26.3206 3.83301 25.7475V7.25217C3.83301 6.67906 4.03734 6.18817 4.44601 5.7795C4.85467 5.37084 5.34556 5.1665 5.91867 5.1665H27.0807C27.6538 5.1665 28.1447 5.37084 28.5533 5.7795C28.962 6.18817 29.1663 6.67906 29.1663 7.25217V25.7475C29.1663 26.3206 28.962 26.8115 28.5533 27.2202C28.1447 27.6288 27.6538 27.8332 27.0807 27.8332H5.91867ZM9.16134 22.5545H23.838V20.8792H9.16134V22.5545ZM9.16134 17.3015H13.9987V10.4452H9.16134V17.3015ZM17.31 17.3015H23.838V15.6265H17.31V17.3015ZM17.31 12.1205H23.838V10.4452H17.31V12.1205Z" fill="#3E3D48"/>
</g>
</svg>
