<svg width="29" height="28" viewBox="0 0 29 28" fill="none" xmlns="http://www.w3.org/2000/svg">
<mask id="mask0_5607_5381" style="mask-type:alpha" maskUnits="userSpaceOnUse" x="0" y="0" width="29" height="28">
<rect x="0.25" width="28" height="28" fill="#D9D9D9"/>
</mask>
<g mask="url(#mask0_5607_5381)">
<path d="M5.27571 23.9168C4.68635 23.9168 4.18751 23.7127 3.77917 23.3043C3.37084 22.896 3.16667 22.3972 3.16667 21.8078V6.19254C3.16667 5.60318 3.37084 5.10433 3.77917 4.696C4.18751 4.28766 4.68635 4.0835 5.27571 4.0835H23.2243C23.8137 4.0835 24.3125 4.28766 24.7208 4.696C25.1292 5.10433 25.3333 5.60318 25.3333 6.19254V21.8078C25.3333 22.3972 25.1292 22.896 24.7208 23.3043C24.3125 23.7127 23.8137 23.9168 23.2243 23.9168H5.27571ZM5.27571 22.1668H23.2243C23.3141 22.1668 23.3964 22.1294 23.471 22.0545C23.5459 21.9799 23.5833 21.8976 23.5833 21.8078V6.19254C23.5833 6.1027 23.5459 6.02045 23.471 5.94579C23.3964 5.87093 23.3141 5.8335 23.2243 5.8335H5.27571C5.18588 5.8335 5.10363 5.87093 5.02896 5.94579C4.9541 6.02045 4.91667 6.1027 4.91667 6.19254V21.8078C4.91667 21.8976 4.9541 21.9799 5.02896 22.0545C5.10363 22.1294 5.18588 22.1668 5.27571 22.1668ZM7.69888 19.3846H20.8011V17.6349H7.69888V19.3846ZM7.69888 14.8752H12.0065V8.61571H7.69888V14.8752ZM14.5641 14.8752H20.8011V13.1252H14.5641V14.8752ZM14.5641 10.3654H20.8011V8.61571H14.5641V10.3654Z" fill="#5E5C6C"/>
<path d="M5.27571 23.9168C4.68635 23.9168 4.18751 23.7127 3.77917 23.3043C3.37084 22.896 3.16667 22.3972 3.16667 21.8078V6.19254C3.16667 5.60318 3.37084 5.10433 3.77917 4.696C4.18751 4.28766 4.68635 4.0835 5.27571 4.0835H23.2243C23.8137 4.0835 24.3125 4.28766 24.7208 4.696C25.1292 5.10433 25.3333 5.60318 25.3333 6.19254V21.8078C25.3333 22.3972 25.1292 22.896 24.7208 23.3043C24.3125 23.7127 23.8137 23.9168 23.2243 23.9168H5.27571ZM5.27571 22.1668H23.2243C23.3141 22.1668 23.3964 22.1294 23.471 22.0545C23.5459 21.9799 23.5833 21.8976 23.5833 21.8078V6.19254C23.5833 6.1027 23.5459 6.02045 23.471 5.94579C23.3964 5.87093 23.3141 5.8335 23.2243 5.8335H5.27571C5.18588 5.8335 5.10363 5.87093 5.02896 5.94579C4.9541 6.02045 4.91667 6.1027 4.91667 6.19254V21.8078C4.91667 21.8976 4.9541 21.9799 5.02896 22.0545C5.10363 22.1294 5.18588 22.1668 5.27571 22.1668ZM7.69888 19.3846H20.8011V17.6349H7.69888V19.3846ZM7.69888 14.8752H12.0065V8.61571H7.69888V14.8752ZM14.5641 14.8752H20.8011V13.1252H14.5641V14.8752ZM14.5641 10.3654H20.8011V8.61571H14.5641V10.3654Z" fill="#3E3D48"/>
</g>
</svg>
