<svg width="36" height="36" viewBox="0 0 36 36" fill="none" xmlns="http://www.w3.org/2000/svg">
<mask id="mask0_6673_7058" style="mask-type:alpha" maskUnits="userSpaceOnUse" x="0" y="0" width="36" height="36">
<rect width="36" height="36" fill="#D9D9D9"/>
</mask>
<g mask="url(#mask0_6673_7058)">
<path d="M11.0673 5.25C12.4345 5.25 13.7101 5.58675 14.8941 6.26025C16.0781 6.9335 17.1134 7.90837 17.9999 9.18487C18.9609 7.87137 20.0224 6.88713 21.1844 6.23213C22.3466 5.57738 23.596 5.25 24.9325 5.25C27.0038 5.25 28.7411 5.95175 30.1446 7.35525C31.5481 8.75875 32.2499 10.5012 32.2499 12.5827C32.2499 12.8487 32.2369 13.1074 32.2109 13.3586C32.1849 13.6099 32.1434 13.8685 32.0864 14.1345H30.1709C30.2371 13.8685 30.286 13.6099 30.3175 13.3586C30.3493 13.1074 30.3651 12.8487 30.3651 12.5827C30.3651 11.0147 29.8518 9.71475 28.825 8.68275C27.798 7.65075 26.5005 7.13475 24.9325 7.13475C23.694 7.13475 22.5486 7.50125 21.4964 8.23425C20.4441 8.96725 19.5536 10.0309 18.8249 11.4251H17.1595C16.4313 10.0379 15.5419 8.976 14.4914 8.2395C13.4406 7.503 12.2993 7.13475 11.0673 7.13475C9.50877 7.13475 8.21377 7.65075 7.18227 8.68275C6.15052 9.71475 5.63464 11.0147 5.63464 12.5827C5.63464 12.8487 5.65052 13.1074 5.68227 13.3586C5.71377 13.6099 5.76264 13.8685 5.82889 14.1345H3.91339C3.85639 13.8685 3.81489 13.6099 3.78889 13.3586C3.76289 13.1074 3.74989 12.8487 3.74989 12.5827C3.74989 10.5012 4.45164 8.75875 5.85514 7.35525C7.25864 5.95175 8.99602 5.25 11.0673 5.25ZM8.56527 21.8655H11.0931C11.9674 22.782 12.9713 23.7795 14.1048 24.858C15.238 25.9368 16.5364 27.145 17.9999 28.4827C19.4634 27.145 20.7593 25.9384 21.8875 24.8629C23.0158 23.7876 24.017 22.7885 24.8913 21.8655H27.442C26.4735 22.9392 25.3295 24.1168 24.01 25.398C22.6905 26.6795 21.1359 28.1404 19.3461 29.7806L17.9999 30.9998L16.6536 29.7806C14.8639 28.1404 13.3105 26.6795 11.9935 25.398C10.6768 24.1168 9.53402 22.9392 8.56527 21.8655ZM16.5749 23.4424C16.7659 23.4424 16.932 23.3845 17.0733 23.2687C17.2148 23.153 17.3175 23.0022 17.3815 22.8165L19.7789 15.6577L21.6355 18.426C21.7605 18.5862 21.9041 18.7124 22.0664 18.8044C22.2284 18.8964 22.4114 18.9424 22.6154 18.9424H33.9423V17.0576H23.0058L20.2758 13.0027C20.1745 12.856 20.05 12.7501 19.9023 12.6851C19.7545 12.6201 19.5954 12.5876 19.4249 12.5876C19.2339 12.5876 19.0628 12.6455 18.9115 12.7612C18.7603 12.8767 18.6574 13.0275 18.6029 13.2135L16.2209 20.3884L14.3181 17.5646C14.1996 17.4106 14.0618 17.2876 13.9045 17.1956C13.7475 17.1036 13.5671 17.0576 13.3634 17.0576H2.05752V18.9424H12.9498L15.6846 23.0269C15.7859 23.1834 15.9169 23.2917 16.0776 23.352C16.2386 23.4123 16.4044 23.4424 16.5749 23.4424Z" fill="#805EC9"/>
</g>
</svg>
