<svg width="32" height="32" viewBox="0 0 32 32" fill="none" xmlns="http://www.w3.org/2000/svg">
<path d="M16.0176 27.2346C12.8841 27.2346 10.2254 26.1465 8.04138 23.9703C5.85738 21.794 4.76538 19.138 4.76538 16.0022C4.76538 12.858 5.85662 10.194 8.03912 8.01025C10.2216 5.8265 12.8813 4.73463 16.018 4.73463C19.1548 4.73463 21.8135 5.82575 23.9942 8.008C26.175 10.1903 27.2654 12.8535 27.2654 15.9978C27.2654 19.1335 26.1757 21.7902 23.9965 23.968C21.8172 26.1457 19.1576 27.2346 16.0176 27.2346ZM16.0559 25.3499C18.6301 25.3499 20.8228 24.4424 22.6338 22.6274C24.4445 20.8124 25.3499 18.6084 25.3499 16.0154C25.3499 15.5276 25.3094 15.0524 25.2284 14.5896C25.1474 14.1269 25.0257 13.654 24.8635 13.171C24.2352 13.2762 23.7184 13.35 23.3129 13.3923C22.9071 13.4345 22.5294 13.4556 22.1796 13.4556C20.5541 13.4556 18.9841 13.0684 17.4696 12.2939C15.9551 11.5191 14.6163 10.4381 13.453 9.05087C12.812 10.6279 11.9031 12.0001 10.7264 13.1676C9.54988 14.3354 8.18087 15.1747 6.61938 15.6857C6.62838 18.4292 7.55212 20.7259 9.39062 22.5756C11.2291 24.4251 13.4509 25.3499 16.0559 25.3499ZM7.07687 13.4414C8.14813 12.8951 9.13363 12.1279 10.0334 11.1396C10.9329 10.1511 11.5398 8.9745 11.854 7.60975C10.6525 8.17575 9.63638 8.96775 8.80562 9.98575C7.97487 11.0035 7.39862 12.1554 7.07687 13.4414ZM12.595 18.6299C12.1815 18.6299 11.8349 18.49 11.5551 18.2102C11.2754 17.9305 11.1355 17.5839 11.1355 17.1704C11.1355 16.7569 11.2754 16.4064 11.5551 16.1189C11.8349 15.8314 12.1815 15.6876 12.595 15.6876C13.0085 15.6876 13.359 15.8314 13.6465 16.1189C13.934 16.4064 14.0777 16.7569 14.0777 17.1704C14.0777 17.5839 13.934 17.9305 13.6465 18.2102C13.359 18.49 13.0085 18.6299 12.595 18.6299ZM22.3739 11.5713C22.6951 11.5713 22.9963 11.5573 23.2773 11.5293C23.5585 11.5015 23.8414 11.4555 24.1259 11.3912C23.3394 9.9235 22.2085 8.76125 20.7332 7.9045C19.258 7.04775 17.6803 6.61937 16 6.61937C15.6885 6.61937 15.4005 6.6315 15.136 6.65575C14.8715 6.68 14.5851 6.729 14.2769 6.80275C15.1686 8.365 16.348 9.55038 17.815 10.3589C19.282 11.1671 20.8016 11.5713 22.3739 11.5713ZM19.426 18.6453C19.0123 18.6453 18.663 18.5039 18.3783 18.2211C18.0935 17.9384 17.9511 17.5881 17.9511 17.1704C17.9511 16.7524 18.0924 16.3981 18.3749 16.1076C18.6576 15.8174 19.008 15.6722 19.426 15.6722C19.8395 15.6722 20.19 15.8174 20.4775 16.1076C20.765 16.3981 20.9088 16.7524 20.9088 17.1704C20.9088 17.5881 20.765 17.9384 20.4775 18.2211C20.19 18.5039 19.8395 18.6453 19.426 18.6453ZM0.25 6.85788V2.59638C0.25 1.95163 0.479875 1.39938 0.939625 0.939626C1.39938 0.479876 1.95162 0.25 2.59637 0.25H6.85788V2.13475H2.59637C2.48088 2.13475 2.375 2.18275 2.27875 2.27875C2.18275 2.375 2.13475 2.48088 2.13475 2.59638V6.85788H0.25ZM6.85788 31.75H2.59637C1.95162 31.75 1.39938 31.5201 0.939625 31.0604C0.479875 30.6006 0.25 30.0484 0.25 29.4036V25.1421H2.13475V29.4036C2.13475 29.5191 2.18275 29.625 2.27875 29.7213C2.375 29.8172 2.48088 29.8652 2.59637 29.8652H6.85788V31.75ZM25.1421 31.75V29.8652H29.4036C29.5191 29.8652 29.625 29.8172 29.7213 29.7213C29.8172 29.625 29.8652 29.5191 29.8652 29.4036V25.1421H31.75V29.4036C31.75 30.0484 31.5201 30.6006 31.0604 31.0604C30.6006 31.5201 30.0484 31.75 29.4036 31.75H25.1421ZM29.8652 6.85788V2.59638C29.8652 2.48088 29.8172 2.375 29.7213 2.27875C29.625 2.18275 29.5191 2.13475 29.4036 2.13475H25.1421V0.25H29.4036C30.0484 0.25 30.6006 0.479876 31.0604 0.939626C31.5201 1.39938 31.75 1.95163 31.75 2.59638V6.85788H29.8652Z" fill="#805EC9"/>
</svg>
