<svg width="64" height="64" viewBox="0 0 64 64" fill="none" xmlns="http://www.w3.org/2000/svg">
<path d="M26.7556 45.7849L49.5182 23.0222L47.4116 20.9369L26.7556 41.6613L16.3627 31.2684L14.3449 33.3538L26.7556 45.7849ZM32.0116 64C27.6003 64 23.4584 63.1603 19.5858 61.4809C15.7132 59.8015 12.3212 57.5076 9.40978 54.5991C6.49837 51.6907 4.20237 48.3019 2.52178 44.4329C0.840592 40.5639 0 36.4234 0 32.0116C0 27.5867 0.839703 23.4264 2.51911 19.5307C4.19852 15.6356 6.49244 12.2471 9.40089 9.36533C12.3093 6.48355 15.6981 4.20237 19.5671 2.52178C23.4361 0.840592 27.5766 0 31.9884 0C36.4133 0 40.5736 0.839706 44.4693 2.51911C48.3644 4.19852 51.7529 6.47763 54.6347 9.35645C57.5164 12.2353 59.7976 15.6207 61.4782 19.5129C63.1594 23.4044 64 27.563 64 31.9884C64 36.3997 63.1603 40.5416 61.4809 44.4142C59.8015 48.2868 57.5224 51.6788 54.6436 54.5902C51.7647 57.5016 48.3793 59.7976 44.4871 61.4782C40.5956 63.1594 36.437 64 32.0116 64ZM32 61.2649C40.141 61.2649 47.0539 58.4193 52.7387 52.728C58.4228 47.0367 61.2649 40.1274 61.2649 32C61.2649 23.859 58.4228 16.9461 52.7387 11.2613C47.0539 5.57719 40.141 2.73511 32 2.73511C23.8726 2.73511 16.9633 5.57719 11.272 11.2613C5.58074 16.9461 2.73511 23.859 2.73511 32C2.73511 40.1274 5.58074 47.0367 11.272 52.728C16.9633 58.4193 23.8726 61.2649 32 61.2649Z" fill="#805EC9"/>
</svg>
