<svg width="24" height="24" viewBox="0 0 24 24" fill="none" xmlns="http://www.w3.org/2000/svg">
<path d="M12.002 23C10.4806 23 9.05046 22.7113 7.71174 22.1339C6.37302 21.5565 5.20856 20.7729 4.21837 19.7831C3.22818 18.7933 2.44418 17.6293 1.86639 16.2912C1.2888 14.953 1 13.5233 1 12.002C1 10.4806 1.2887 9.05046 1.86611 7.71174C2.44351 6.37302 3.22711 5.20856 4.21692 4.21837C5.20673 3.22818 6.3707 2.44418 7.70884 1.86639C9.04698 1.2888 10.4767 1 11.998 1C13.5194 1 14.9495 1.2887 16.2883 1.8661C17.627 2.44351 18.7914 3.22711 19.7816 4.21692C20.7718 5.20673 21.5558 6.3707 22.1336 7.70884C22.7112 9.04698 23 10.4767 23 11.998C23 13.5194 22.7113 14.9495 22.1339 16.2883C21.5565 17.627 20.7729 18.7914 19.7831 19.7816C18.7933 20.7718 17.6293 21.5558 16.2912 22.1336C14.953 22.7112 13.5233 23 12.002 23ZM12 21.2632C14.586 21.2632 16.7763 20.3658 18.5711 18.5711C20.3658 16.7763 21.2632 14.586 21.2632 12C21.2632 9.41403 20.3658 7.22368 18.5711 5.42895C16.7763 3.63421 14.586 2.73684 12 2.73684C9.41403 2.73684 7.22368 3.63421 5.42895 5.42895C3.63421 7.22368 2.73684 9.41403 2.73684 12C2.73684 14.586 3.63421 16.7763 5.42895 18.5711C7.22368 20.3658 9.41403 21.2632 12 21.2632Z" fill="#BF0F0F"/>
</svg>
