<svg width="20" height="20" viewBox="0 0 20 20" fill="none" xmlns="http://www.w3.org/2000/svg">
<mask id="mask0_40000284_521" style="mask-type:alpha" maskUnits="userSpaceOnUse" x="0" y="0" width="20" height="20">
<rect width="20" height="20" fill="#D9D9D9"/>
</mask>
<g mask="url(#mask0_40000284_521)">
<path d="M6.93811 13.7992L9.99998 10.7371L13.0619 13.7992L13.7991 13.0619L10.7371 10L13.7991 6.93817L13.0619 6.20087L9.99998 9.26296L6.93811 6.20087L6.20081 6.93817L9.2629 10L6.20081 13.0619L6.93811 13.7992ZM10.0014 17.9167C8.91213 17.9167 7.88665 17.7089 6.92498 17.2934C5.96331 16.8778 5.1238 16.3116 4.40644 15.5946C3.68922 14.8775 3.12269 14.0384 2.70685 13.0771C2.29116 12.1159 2.08331 11.0907 2.08331 10.0015C2.08331 8.9065 2.29109 7.87726 2.70665 6.91379C3.1222 5.95032 3.68845 5.11226 4.4054 4.39962C5.12248 3.68699 5.96165 3.12275 6.9229 2.70692C7.88415 2.29122 8.90936 2.08337 9.99852 2.08337C11.0935 2.08337 12.1228 2.29115 13.0862 2.70671C14.0497 3.12226 14.8878 3.68622 15.6004 4.39858C16.313 5.11094 16.8773 5.94865 17.2931 6.91171C17.7088 7.87476 17.9166 8.90372 17.9166 9.99858C17.9166 11.0879 17.7089 12.1134 17.2933 13.075C16.8778 14.0367 16.3138 14.8762 15.6014 15.5936C14.8891 16.3108 14.0514 16.8773 13.0883 17.2932C12.1253 17.7089 11.0963 17.9167 10.0014 17.9167Z" fill="#99989F"/>
</g>
</svg>
