<svg width="24" height="24" viewBox="0 0 24 24" fill="none" xmlns="http://www.w3.org/2000/svg">
<mask id="mask0_13809_2923" style="mask-type:alpha" maskUnits="userSpaceOnUse" x="1" y="1" width="22" height="22">
<rect x="1" y="1" width="22" height="22" fill="#D9D9D9"/>
</mask>
<g mask="url(#mask0_13809_2923)">
<path d="M2.58643 21.4134L4.1977 15.9063C3.90742 15.2859 3.68383 14.65 3.52693 13.9988C3.37002 13.3476 3.29157 12.6813 3.29157 12C3.29157 10.7953 3.52013 9.66322 3.97724 8.60371C4.43435 7.54419 5.0547 6.62256 5.8383 5.83881C6.6219 5.05506 7.54338 4.43463 8.60274 3.97752C9.6621 3.52026 10.794 3.29163 11.9983 3.29163C13.2028 3.29163 14.335 3.52018 15.3948 3.97729C16.4546 4.4344 17.3765 5.05476 18.1604 5.83836C18.9443 6.62195 19.5649 7.54343 20.0223 8.60279C20.4796 9.66215 20.7082 10.794 20.7082 11.9984C20.7082 13.2029 20.4796 14.335 20.0223 15.3948C19.5652 16.4547 18.9448 17.3765 18.161 18.1604C17.3773 18.9443 16.4557 19.565 15.3962 20.0224C14.3366 20.4797 13.2046 20.7083 11.9999 20.7083C11.3185 20.7083 10.6523 20.6298 10.0011 20.4729C9.34982 20.316 8.71396 20.0924 8.09353 19.8022L2.58643 21.4134ZM4.62074 19.3791L7.55407 18.5083C7.77972 18.4472 7.99743 18.4214 8.2072 18.4308C8.41696 18.4402 8.62703 18.4965 8.8374 18.6C9.32629 18.8444 9.8381 19.0277 10.3728 19.15C10.9075 19.2722 11.4499 19.3333 11.9999 19.3333C14.0471 19.3333 15.7812 18.6229 17.202 17.202C18.6228 15.7812 19.3332 14.0472 19.3332 12C19.3332 9.95274 18.6228 8.21871 17.202 6.79788C15.7812 5.37704 14.0471 4.66663 11.9999 4.66663C9.95268 4.66663 8.21865 5.37704 6.79782 6.79788C5.37699 8.21871 4.66657 9.95274 4.66657 12C4.66657 12.55 4.72768 13.0923 4.8499 13.627C4.97213 14.1618 5.15546 14.6736 5.3999 15.1625C5.50685 15.3611 5.56559 15.5711 5.57613 15.7927C5.58668 16.0142 5.55849 16.2319 5.49157 16.4458L4.62074 19.3791ZM11.3124 15.4375H12.6874V12.6875H15.4374V11.3125H12.6874V8.56246H11.3124V11.3125H8.5624V12.6875H11.3124V15.4375Z" fill="#805EC9"/>
</g>
</svg>
