<svg width="26" height="26" viewBox="0 0 26 26" fill="none" xmlns="http://www.w3.org/2000/svg">
<mask id="mask0_13809_7272" style="mask-type:alpha" maskUnits="userSpaceOnUse" x="0" y="0" width="26" height="26">
<rect width="26" height="26" fill="#D9D9D9"/>
</mask>
<g mask="url(#mask0_13809_7272)">
<path d="M16.1249 22.4582H22.4584V21.6373C22.0416 21.2013 21.5586 20.868 21.0094 20.6374C20.4601 20.4069 19.8876 20.2916 19.2918 20.2916C18.6959 20.2916 18.1233 20.4069 17.5739 20.6374C17.0246 20.868 16.5416 21.2013 16.1249 21.6373V22.4582ZM19.2918 19.2916C19.7083 19.2916 20.0625 19.1458 20.3543 18.854C20.6459 18.5624 20.7917 18.2082 20.7917 17.7915C20.7917 17.375 20.6459 17.0208 20.3543 16.729C20.0625 16.4374 19.7083 16.2916 19.2918 16.2916C18.8751 16.2916 18.5209 16.4374 18.2293 16.729C17.9375 17.0208 17.7916 17.375 17.7916 17.7915C17.7916 18.2082 17.9375 18.5624 18.2293 18.854C18.5209 19.1458 18.8751 19.2916 19.2918 19.2916ZM13.0125 9.74992C12.1112 9.74992 11.3442 10.0663 10.7115 10.6989C10.0788 11.3316 9.7625 12.0986 9.7625 12.9999C9.7625 13.7277 9.96283 14.3646 10.3635 14.9104C10.7643 15.4562 11.289 15.845 11.9376 16.0769C11.9444 15.7728 11.9576 15.4798 11.9771 15.1977C11.9966 14.9159 12.0612 14.6597 12.1708 14.4291C11.9043 14.2915 11.7071 14.0929 11.5793 13.8333C11.4514 13.5735 11.3875 13.2957 11.3875 12.9999C11.3875 12.5485 11.5455 12.1648 11.8615 11.8489C12.1774 11.5329 12.5611 11.3749 13.0125 11.3749C13.2972 11.3749 13.5632 11.4461 13.8104 11.5883C14.0577 11.7308 14.2591 11.9228 14.4146 12.1644C14.5786 12.0812 14.7497 12.0215 14.9281 11.9854C15.1067 11.9493 15.2869 11.9312 15.4687 11.9312H16.0689C15.8549 11.2937 15.4705 10.7708 14.9156 10.3625C14.3608 9.95413 13.7264 9.74992 13.0125 9.74992ZM10.5 23.2916L10.0875 19.9915C9.79735 19.8943 9.4998 19.7583 9.19484 19.5833C8.89006 19.4082 8.61751 19.2207 8.37719 19.0208L5.32084 20.3124L2.82104 15.9791L5.46465 13.9811C5.43973 13.8201 5.42204 13.6583 5.41157 13.4958C5.40109 13.3333 5.39586 13.1714 5.39586 13.0102C5.39586 12.8562 5.40109 12.6997 5.41157 12.5406C5.42204 12.3815 5.43973 12.2076 5.46465 12.0187L2.82104 10.0208L5.32084 5.70827L8.36663 6.98959C8.62789 6.78267 8.90676 6.59345 9.20323 6.42192C9.4997 6.25039 9.79103 6.11254 10.0772 6.00836L10.5 2.70825H15.5001L15.9126 6.01865C16.2376 6.13673 16.5316 6.27459 16.7947 6.43221C17.0579 6.58984 17.3236 6.77563 17.5918 6.98959L20.6793 5.70827L23.179 10.0208L20.7938 11.8332C20.8007 11.8471 20.8041 11.861 20.8041 11.8749C20.8041 11.8888 20.8076 11.9027 20.8147 11.9166H18.8083C18.7903 11.8263 18.7739 11.7368 18.7593 11.6479C18.7449 11.5589 18.7196 11.4693 18.6835 11.379L21.0541 9.58742L19.9875 7.74575L17.2646 8.89354C16.902 8.50607 16.4677 8.16374 15.9616 7.86654C15.4553 7.56935 14.9432 7.35891 14.4252 7.23523L14.0834 4.33325H11.9335L11.5749 7.22494C11.0222 7.35548 10.5119 7.55545 10.0439 7.82483C9.57572 8.0944 9.12911 8.44161 8.70409 8.86646L6.01254 7.74575L4.946 9.58742L7.28546 11.331C7.19518 11.5882 7.13199 11.8556 7.09588 12.1333C7.05977 12.4109 7.04171 12.7033 7.04171 13.0102C7.04171 13.2922 7.05977 13.5687 7.09588 13.8395C7.13199 14.1103 7.19175 14.3777 7.27517 14.6417L4.946 16.4124L6.01254 18.2541L8.6938 17.1166C9.12713 17.5611 9.61634 17.9316 10.1614 18.2281C10.7065 18.5246 11.2916 18.7284 11.9167 18.8396V23.2916H10.5ZM15.7918 24.2915C15.3751 24.2915 15.0209 24.1457 14.7293 23.8541C14.4375 23.5623 14.2916 23.2082 14.2916 22.7916V15.7917C14.2916 15.3749 14.4375 15.0208 14.7293 14.7292C15.0209 14.4374 15.3751 14.2915 15.7918 14.2915H22.7918C23.2083 14.2915 23.5625 14.4374 23.8542 14.7292C24.1458 15.0208 24.2916 15.3749 24.2916 15.7917V22.7916C24.2916 23.2082 24.1458 23.5623 23.8542 23.8541C23.5625 24.1457 23.2083 24.2915 22.7918 24.2915H15.7918Z" fill="#805EC9"/>
</g>
</svg>
