<svg width="130" height="189" viewBox="0 0 130 189" fill="none" xmlns="http://www.w3.org/2000/svg">
<path d="M52.0576 0.00195312C52.5148 0.625335 53.1548 2.25955 52.0576 3.80859C50.6859 5.7451 45.8829 9.41811 41.3555 12.9395C36.8283 16.4607 38.458 17.9696 32.8037 23C27.1493 28.0305 30.5937 39.0976 30.5938 48.6553C30.4299 51.7994 29.8725 58.7167 28.9551 61.2324C27.8082 64.3767 28.3001 82.5806 27.8086 89.5312C27.3171 96.4815 12.8995 139.175 12.8984 141.66V151.921C12.8986 154.238 16.667 159.203 18.1416 161.52C19.6155 163.836 16.667 168.304 16.667 170.952C16.6669 173.6 14.5368 179.391 12.8984 179.392C11.26 179.392 12.8984 174.262 12.8984 172.772C12.8984 171.283 12.8979 167.477 11.751 166.649C10.6042 165.822 10.1123 168.801 10.1123 169.959C10.1123 171.117 8.80202 177.405 10.1123 179.392C11.423 181.377 14.5366 184.687 15.6836 187.335C15.6836 187.997 13.8816 188.328 12.8984 188.328C11.9154 188.328 7.16332 185.681 4.37793 182.371C1.59256 179.061 0.609375 170.786 0.609375 167.477C0.6094 164.167 1.42871 158.209 1.42871 155.562C1.42871 152.914 2.73926 145.963 2.73926 141.66C2.73938 137.356 5.52518 98.4703 6.18066 94.3311C6.83604 90.1939 7.65487 86.8837 8.80176 82.5811C9.94867 78.2784 14.0451 39.0577 14.209 35.9131C14.3728 32.7688 14.0447 25.487 15.3555 19.8604C16.6663 14.2339 23.8754 9.93098 27.1523 8.77246C30.4292 7.61405 35.0173 7.9455 38.458 6.78711C41.8988 5.62869 42.7182 4.47055 44.5205 3.80859C46.3228 3.14664 50.583 1.65684 52.0576 0.00195312Z" fill="#FFFCFC"/>
<path d="M77.6787 0.00195312C79.1533 1.65684 83.4135 3.14664 85.2158 3.80859C87.0181 4.47055 87.8376 5.62869 91.2783 6.78711C94.7191 7.9455 99.3071 7.61405 102.584 8.77246C105.861 9.93098 113.07 14.2339 114.381 19.8604C115.692 25.487 115.363 32.7688 115.527 35.9131C115.691 39.0577 119.788 78.2784 120.935 82.5811C122.081 86.8837 122.9 90.1939 123.556 94.3311C124.211 98.4703 126.997 137.356 126.997 141.66C126.997 145.963 128.308 152.914 128.308 155.562C128.308 158.209 129.127 164.167 129.127 167.477C129.127 170.786 128.144 179.061 125.358 182.371C122.573 185.681 117.821 188.328 116.838 188.328C115.855 188.328 114.053 187.997 114.053 187.335C115.2 184.687 118.313 181.377 119.624 179.392C120.934 177.405 119.624 171.117 119.624 169.959C119.624 168.801 119.132 165.822 117.985 166.649C116.838 167.477 116.838 171.283 116.838 172.772C116.838 174.262 118.476 179.392 116.838 179.392C115.2 179.391 113.069 173.6 113.069 170.952C113.069 168.304 110.121 163.836 111.595 161.52C113.069 159.203 116.838 154.238 116.838 151.921V141.66C116.837 139.175 102.419 96.4815 101.928 89.5312C101.436 82.5806 101.928 64.3767 100.781 61.2324C99.8638 58.7167 99.3064 51.7994 99.1426 48.6553C99.1427 39.0976 102.587 28.0305 96.9326 23C91.2784 17.9696 92.908 16.4607 88.3809 12.9395C83.8534 9.41811 79.0504 5.7451 77.6787 3.80859C76.5815 2.25955 77.2215 0.625335 77.6787 0.00195312Z" fill="#FFFCFC"/>
</svg>
