<svg width="128" height="438" viewBox="0 0 128 438" fill="none" xmlns="http://www.w3.org/2000/svg">
<path d="M64.3936 0.0253906C68.4113 0.347423 71.1545 3.17074 72.4727 8.94531C72.6627 8.99733 72.8721 9.06392 73.0977 9.14551C75.2 9.79175 79.0722 11.8572 81.6445 16.2998C84.8967 21.9167 87.016 28.5038 86.5869 35.3018C87.184 34.5766 88.5454 34.5129 89.4102 34.9453C90.5996 35.5406 91.139 37.0675 90.9697 40.1475C90.8003 43.2271 88.8908 45.5403 88.8906 46.9092C88.8905 48.278 87.8515 51.0694 86.3291 51.0703C85.8564 51.0703 85.5305 50.9688 85.3057 50.8301C85.1522 50.9123 85.0073 50.9904 84.8682 51.0586C84.1893 51.3924 80.9655 62.0344 74.8584 67.0234C74.81 67.9016 74.816 69.296 74.9658 70.8438C75.5277 73.1789 76.2118 75.4102 76.8652 76.1436C78.3309 77.7884 82.5651 79.2688 84.3564 79.9268C86.1477 80.5847 86.9621 81.7364 90.3818 82.8877C93.8016 84.039 98.3612 83.71 101.618 84.8613C104.875 86.0127 112.041 90.2894 113.344 95.8818C114.646 101.474 114.321 108.712 114.483 111.837C114.647 114.965 118.717 153.944 119.857 158.221C120.997 162.497 121.811 165.787 122.463 169.899C123.114 174.013 125.883 212.665 125.883 216.941C125.883 221.218 127.186 228.126 127.186 230.758C127.186 233.39 128 239.311 128 242.601C128 245.89 127.023 254.115 124.255 257.404C121.486 260.694 116.763 263.325 115.786 263.325C114.809 263.325 113.018 262.997 113.018 262.339C114.158 259.707 117.252 256.417 118.555 254.443C119.857 252.47 118.555 246.221 118.555 245.068C118.555 243.917 118.066 240.956 116.926 241.778C115.786 242.601 115.786 246.384 115.786 247.864C115.786 249.345 117.415 254.443 115.786 254.443C114.158 254.443 112.041 248.686 112.041 246.055C112.041 243.423 109.11 238.982 110.575 236.68C112.041 234.377 115.786 229.443 115.786 227.14V216.941C115.786 214.474 101.455 172.037 100.967 165.129C100.478 158.221 100.967 140.129 99.8271 137.003C98.9152 134.503 98.3611 127.627 98.1982 124.502C96.624 128.833 93.2479 138.319 92.3359 141.608C91.196 145.721 89.4051 162.826 89.8936 168.583C90.3821 174.34 90.0563 174.834 91.1963 178.781C92.3366 182.729 107.807 208.224 107.97 225.001C108.133 241.778 100.804 272.372 98.0352 285.859C95.2667 299.347 94.2898 303.624 94.7783 309.381C95.2669 315.138 99.1755 329.941 99.0127 342.936C98.8498 355.93 91.0328 392.938 90.0557 400.998C89.0786 409.057 87.9388 413.827 88.1016 417.281C88.2644 420.735 97.7096 431.098 97.2217 434.388C96.7331 437.677 92.6614 436.856 88.1016 437.185C84.4539 437.448 80.9367 436.416 79.6338 435.868C79.3624 436.307 78.5915 437.184 77.6797 437.185C76.5397 437.185 74.9111 437.349 74.9111 435.868C74.9111 434.388 73.9336 429.782 73.9336 427.809C73.9336 425.835 74.911 424.848 74.9111 423.532C74.9111 422.217 73.9338 421.558 73.9336 420.407C73.9336 419.256 75.3991 418.269 76.5391 413.17C77.679 408.071 73.7713 379.615 72.957 374.352C72.1428 369.088 69.5373 355.436 69.7002 349.186C69.8631 342.935 76.0506 329.448 73.9336 315.467C71.8166 301.486 64.3262 266.288 64.8145 262.339C65.303 258.391 66.7687 244.41 68.2344 241.778C67.6373 241.23 66.1172 240.1 64.8145 239.969H63.1855C61.8828 240.1 60.3627 241.23 59.7656 241.778C61.2313 244.41 62.697 258.391 63.1855 262.339C63.6738 266.288 56.1834 301.486 54.0664 315.467C51.9494 329.448 58.1369 342.935 58.2998 349.186C58.4627 355.436 55.8572 369.088 55.043 374.352C54.2287 379.615 50.321 408.071 51.4609 413.17C52.6009 418.269 54.0664 419.256 54.0664 420.407C54.0662 421.558 53.0889 422.216 53.0889 423.532C53.0889 424.848 54.0664 425.835 54.0664 427.809C54.0664 429.782 53.0889 434.388 53.0889 435.868C53.0889 437.349 51.4603 437.185 50.3203 437.185C49.4085 437.184 48.6376 436.307 48.3662 435.868C47.0634 436.416 43.5461 437.448 39.8984 437.185C35.3386 436.856 31.2669 437.677 30.7783 434.388C30.2904 431.098 39.7347 420.737 39.8984 417.282C40.0613 413.828 38.9214 409.058 37.9443 400.998C36.9672 392.938 29.1502 355.93 28.9873 342.936C28.8245 329.941 32.7331 315.138 33.2217 309.381C33.7102 303.624 32.7333 299.347 29.9648 285.859C27.1964 272.372 19.8674 241.778 20.0303 225.001C20.1931 208.224 35.6634 182.729 36.8037 178.781C37.9437 174.834 37.6179 174.34 38.1064 168.583C38.5949 162.826 36.804 145.721 35.6641 141.608C34.7521 138.319 31.376 128.833 29.8018 124.502C29.6389 127.627 29.0848 134.503 28.1729 137.003C27.0331 140.129 27.5217 158.221 27.0332 165.129C26.5446 172.037 12.2139 214.474 12.2139 216.941V227.14C12.2143 229.443 15.9593 234.377 17.4248 236.68C18.8901 238.982 15.9591 243.423 15.959 246.055C15.959 248.686 13.8424 254.443 12.2139 254.443C10.5854 254.443 12.2137 249.345 12.2139 247.864C12.2139 246.384 12.2138 242.601 11.0742 241.778C9.93427 240.956 9.44531 243.917 9.44531 245.068C9.44494 246.221 8.14274 252.47 9.44531 254.443C10.7481 256.417 13.8425 259.707 14.9824 262.339C14.982 262.997 13.1909 263.325 12.2139 263.325C11.2368 263.325 6.51357 260.694 3.74512 257.404C0.976736 254.115 0 245.89 0 242.601C7.55334e-06 239.311 0.814453 233.39 0.814453 230.758C0.814463 228.126 2.11716 221.218 2.11719 216.941C2.11719 212.665 4.88563 174.013 5.53711 169.899C6.18851 165.787 7.00262 162.497 8.14258 158.221C9.28251 153.944 13.3534 114.965 13.5166 111.837C13.6794 108.712 13.3535 101.474 14.6562 95.8818C15.9591 90.2894 23.1248 86.0127 26.3818 84.8613C29.6388 83.71 34.1984 84.039 37.6182 82.8877C41.0379 81.7364 41.8523 80.5847 43.6436 79.9268C45.4349 79.2688 49.6691 77.7884 51.1348 76.1436C51.7881 75.4103 52.4713 73.1788 53.0332 70.8438C53.1831 69.2959 53.19 67.9016 53.1416 67.0234C47.0341 62.0341 43.8105 51.3912 43.1318 51.0586C42.9927 50.9904 42.8478 50.9123 42.6943 50.8301C42.4694 50.9688 42.1436 51.0703 41.6709 51.0703C40.1486 51.0691 39.1095 48.2779 39.1094 46.9092C39.1092 45.5403 37.1997 43.2271 37.0303 40.1475C36.861 37.0677 37.4005 35.5407 38.5898 34.9453C39.4543 34.5129 40.8147 34.577 41.4121 35.3018C40.983 28.5038 43.1033 21.9167 46.3555 16.2998C48.9258 11.8605 52.7941 9.79438 54.8975 9.14648C55.1246 9.06423 55.3352 8.99666 55.5264 8.94434C56.8872 2.98359 59.7677 0.167963 64 0.00195312L64.3936 0.0253906Z" fill="#FFFCFC"/>
</svg>
