<svg width="72" height="69" viewBox="0 0 72 69" fill="none" xmlns="http://www.w3.org/2000/svg">
<path d="M22.8842 0.00195312C23.3286 0.720603 23.8099 2.24826 22.7808 3.7022C21.392 5.66376 16.529 9.38408 11.9457 12.9508C7.3629 16.5174 9.01285 18.0468 3.28893 23.1419C-2.43527 28.2376 1.05188 39.4482 1.05188 49.1293C1.05188 49.1293 1.04856 49.1293 1.05586 49.3542C2.65933 53.7685 6.09705 63.435 7.02596 66.7876C7.17491 67.3253 7.83553 68.0809 8 69.002H64C64.1645 68.0809 64.6006 67.3252 64.7496 66.7876C65.6372 63.5838 68.8191 54.6143 70.4988 49.9722C70.4802 49.6691 70.4615 49.3868 70.4481 49.1293C70.4481 39.4482 73.9353 28.2376 68.2111 23.1419C62.487 18.0467 64.1365 16.5175 59.5533 12.9508C54.9701 9.38416 50.108 5.66372 48.7192 3.7022C47.7828 2.37924 48.0985 0.996032 48.4974 0.215926C44.9551 2.45277 40.6195 3.77883 35.8808 3.77883C30.9915 3.77874 26.4868 2.36952 22.8842 0.00195312Z" fill="#FFFCFC"/>
</svg>
