<svg width="54" height="20" viewBox="0 0 54 20" fill="none" xmlns="http://www.w3.org/2000/svg">
<path d="M51.894 0.848585C51.1946 0.512268 50.2818 0.414137 49.4897 0.58296C49.0237 0.682394 48.5538 0.888977 48.1996 1.23042C48.3157 1.72582 48.4215 2.22695 48.517 2.73335C48.9908 5.2462 48.4916 9.98626 47.9916 12.5019C47.9895 12.5035 47.9869 12.5052 47.9848 12.5068C47.9176 15.0389 47.341 16.8673 46.4799 18.9824C46.5072 19.0065 46.5336 19.0328 46.5639 19.0556C46.9268 19.3292 47.4443 19.5018 48.1576 19.5019C48.7593 19.5015 49.3088 19.2019 49.7651 18.8125C50.2272 18.4178 50.645 17.8887 50.9936 17.33C51.3436 16.769 51.6362 16.159 51.8422 15.5869C52.0299 15.0655 52.1561 14.5449 52.1742 14.1074C52.9785 12.1424 53.7615 10.4616 53.9574 7.03804C54.0555 5.32258 53.9527 3.98659 53.6254 2.97749C53.2918 1.94942 52.7179 1.24511 51.894 0.848585Z" fill="#FFFCFC"/>
<path d="M4.99553 0.58296C4.20348 0.4141 3.29063 0.512361 2.59123 0.848585C1.76732 1.24508 1.1934 1.94947 0.859789 2.97749C0.532493 3.9866 0.429694 5.32256 0.527758 7.03804C0.723676 10.4617 1.50667 12.1423 2.31096 14.1074C2.32911 14.5449 2.45525 15.0655 2.64299 15.5869C2.84905 16.159 3.14161 16.769 3.49162 17.33C3.84021 17.8888 4.25795 18.4178 4.72014 18.8125C5.17642 19.2019 5.72584 19.5015 6.32756 19.5019C6.8356 19.5018 7.24351 19.4119 7.5678 19.2626C6.03032 15.054 5.99343 13.5548 5.9926 12.5117C5.98797 12.5083 5.98256 12.5053 5.97795 12.5019C5.5447 9.37032 5.45633 7.62779 5.49065 3.50191C5.49789 2.63172 5.58521 1.7428 5.7426 0.844679C5.50531 0.72259 5.24951 0.637184 4.99553 0.58296Z" fill="#FFFCFC"/>
<path d="M29.5815 5.50484C28.7516 4.06757 27.027 3.66345 25.6938 4.29194C25.5778 4.34663 25.4641 4.40913 25.3549 4.47944C24.9731 4.72544 24.6376 5.06773 24.3852 5.50484L22.5776 8.63569C22.566 9.19238 21.1804 11.4735 19.2309 14.5039C18.8327 15.1939 18.7435 15.9444 18.893 16.6298C19.0166 17.1962 19.3599 17.6192 19.8158 17.9316C21.9201 18.4867 24.0329 18.8804 25.9692 18.9628C26.2396 18.9687 26.5114 18.9736 26.7836 18.9736C26.9734 18.9736 27.1631 18.9706 27.352 18.9677C27.4473 18.9662 27.543 18.9641 27.6381 18.9619C27.77 18.9587 27.9022 18.9557 28.0336 18.9511C28.0849 18.9494 28.1367 18.9472 28.1879 18.9453C28.3436 18.9393 28.4996 18.9327 28.6547 18.9248C28.7337 18.9207 28.8132 18.9156 28.892 18.9111C29.0226 18.9036 29.1535 18.8955 29.2836 18.8867C29.3636 18.8812 29.4441 18.8751 29.5239 18.8691C29.6335 18.8609 29.7436 18.8529 29.853 18.8437C29.961 18.8346 30.0695 18.8254 30.1772 18.8154C30.3081 18.8032 30.4393 18.7889 30.5697 18.7753C30.6311 18.769 30.6931 18.7634 30.7543 18.7568C30.9615 18.7343 31.1687 18.7114 31.3744 18.6855L32.019 18.5986C32.2849 18.5602 32.5562 18.505 32.8217 18.4326C32.847 18.4256 32.8726 18.4174 32.8979 18.4101C33.0504 18.3663 33.2016 18.3169 33.3481 18.2607C33.393 18.2434 33.4377 18.2245 33.4819 18.206C33.5163 18.1916 33.5514 18.1772 33.5854 18.1621C33.6311 18.1416 33.6765 18.1195 33.7211 18.0976C33.7579 18.0796 33.7955 18.0619 33.8315 18.0429C33.8703 18.0224 33.908 17.9991 33.9457 17.9775C33.9829 17.9562 34.021 17.9355 34.0571 17.913C34.0949 17.8894 34.1319 17.8637 34.1684 17.8388C34.2018 17.8161 34.2358 17.7933 34.268 17.7695C34.3078 17.7401 34.3464 17.7087 34.3842 17.6777C34.4111 17.6556 34.4384 17.6333 34.4643 17.6103C34.498 17.5803 34.5301 17.548 34.5619 17.5166C34.5886 17.4902 34.6158 17.4639 34.641 17.4365C34.6688 17.4063 34.6951 17.3742 34.7211 17.3427C34.7487 17.3093 34.7758 17.2751 34.8012 17.2402C34.838 17.1897 34.8747 17.1386 34.9067 17.0849C34.9096 17.0799 34.9125 17.0743 34.9155 17.0693C34.9516 17.0074 34.9848 16.943 35.0141 16.8769C35.023 16.8568 35.0313 16.8359 35.0395 16.8154C35.1082 16.644 35.1545 16.4586 35.1723 16.2587C35.2236 15.6797 35.1052 15.0721 34.7778 14.5048L29.5815 5.50484Z" fill="#FFFCFC"/>
</svg>
