<svg width="38" height="13" viewBox="0 0 38 13" fill="none" xmlns="http://www.w3.org/2000/svg">
<path d="M10.0107 0.00488281C4.55563 0.00488688 0.132916 2.91503 0.132812 6.50488C0.132812 10.0948 4.55557 13.0049 10.0107 13.0049C10.9389 13.0049 11.837 12.9203 12.6885 12.7627C12.8864 12.7261 13.0792 12.6707 13.2646 12.5996C13.2712 12.5971 13.2776 12.5944 13.2842 12.5918C13.3706 12.558 13.4553 12.5206 13.5381 12.4795C13.5477 12.4747 13.5578 12.4707 13.5674 12.4658C13.645 12.4263 13.7202 12.3827 13.7939 12.3369C13.8208 12.3202 13.8477 12.3036 13.874 12.2861C13.8812 12.2813 13.8883 12.2763 13.8955 12.2715C13.9299 12.2481 13.9637 12.224 13.9971 12.1992C14.0077 12.1913 14.0187 12.1838 14.0293 12.1758C14.0551 12.1561 14.0803 12.1357 14.1055 12.1152C14.1264 12.0981 14.1475 12.0812 14.168 12.0635C14.1872 12.0469 14.2059 12.0298 14.2246 12.0127C14.2427 11.9963 14.2607 11.9798 14.2783 11.9629C14.3039 11.9384 14.3288 11.9132 14.3535 11.8877C14.3628 11.8781 14.3727 11.8691 14.3818 11.8594C14.4151 11.824 14.447 11.7872 14.4785 11.75C14.5195 11.7017 14.5589 11.6519 14.5967 11.6006C14.6242 11.5632 14.6511 11.5253 14.6768 11.4863L14.7637 11.3467L16.4033 8.50488C17.558 6.50488 20.4449 6.50488 21.5996 8.50488L23.1621 11.21C23.2224 11.3144 23.288 11.4146 23.3594 11.5098C23.395 11.5573 23.4325 11.6033 23.4707 11.6484C23.5471 11.7388 23.6281 11.8247 23.7139 11.9053C24.1858 12.3485 24.7923 12.642 25.4443 12.7627C26.2964 12.9205 27.1953 13.0049 28.124 13.0049C33.579 13.0047 38.001 10.0947 38.001 6.50488C38.0009 2.91512 33.5789 0.00504323 28.124 0.00488281C27.1946 0.00488351 26.2951 0.0890944 25.4424 0.24707C21.9232 0.899162 16.2096 0.899057 12.6904 0.24707C11.8384 0.0892416 10.9396 0.00489576 10.0107 0.00488281Z" fill="#F3F3F6"/>
</svg>
