<svg width="46" height="39" viewBox="0 0 46 39" fill="none" xmlns="http://www.w3.org/2000/svg">
<path d="M22.9814 0.751953C20.8609 0.836825 19.0671 1.60336 17.6386 3.11621C16.2405 4.59694 15.2073 6.77691 14.541 9.69043C12.5872 10.1641 8.36393 12.2104 5.6318 17.0205C2.15169 23.1478 -0.0117388 30.4508 0.986295 37.9316L1.01559 38.1484H1.11227C1.13992 38.1719 1.17835 38.1987 1.23044 38.2109C1.29667 38.2264 1.35956 38.2155 1.41012 38.1934C1.49563 38.1558 1.54955 38.0843 1.58102 38.0371L1.60934 37.9941L1.61911 37.9443C3.94813 25.4684 12.6864 16.2736 23.0312 16.2734C33.3964 16.2737 42.148 25.5051 44.456 38.0186L44.458 38.0283L44.4609 38.0381C44.4657 38.0558 44.4754 38.0877 44.4941 38.1201C44.5041 38.1375 44.5671 38.2456 44.707 38.252C44.8477 38.2581 44.92 38.1549 44.9306 38.1396C44.9513 38.1099 44.9629 38.0816 44.9677 38.0684C44.9865 38.0168 44.9951 37.9532 44.998 37.9316C45.996 30.4508 43.8316 23.1478 40.3515 17.0205C37.6189 12.2096 33.3947 10.1636 31.4414 9.69043C30.7751 6.77707 29.7429 4.59689 28.3447 3.11621C26.916 1.60338 25.1216 0.836718 23.0009 0.751953H22.9814Z" fill="#FFFCFC"/>
</svg>
