<svg width="44" height="67" viewBox="0 0 44 67" fill="none" xmlns="http://www.w3.org/2000/svg">
<path d="M11.187 51.5869C11.0987 54.6904 10.814 57.3596 9.97739 60.2158C9.65657 61.3111 8.82635 62.0223 8.49951 62.502C12.3529 65.4011 16.9366 67.0048 21.9891 67.0049C26.7349 67.0049 31.2663 65.3108 34.9995 62.502C34.6727 62.0225 34.3852 61.3111 34.0643 60.2158C33.7045 58.9877 33.1949 54.5877 32.9995 51.002C32.4995 51.502 32.3487 51.5656 32.0838 51.7451C29.0842 53.7313 25.4805 54.9725 21.8885 54.9727C21.6729 54.9727 21.4581 54.9679 21.244 54.96C17.9758 54.8343 13.4995 53.002 11.187 51.5869Z" fill="#FFFCFC"/>
<path fill-rule="evenodd" clip-rule="evenodd" d="M22.1004 0.00488281C10.9992 0.00520345 0.582048 12.5021 0.498872 22.502C0.464554 26.6279 0.552921 28.3703 0.986177 31.502C6.32461 35.378 13.8661 37.9823 21.7079 37.9824C29.9003 37.9824 37.593 35.6904 42.9998 31.502C43.4998 28.9863 43.999 24.2462 43.5252 21.7334C41.1738 9.26233 32.4732 0.00505077 22.1004 0.00488281ZM12.9959 16.0049C13.9246 16.0049 14.8237 16.0893 15.6756 16.2471C19.1947 16.899 24.9084 16.8991 28.4276 16.2471C29.2801 16.0891 30.18 16.0049 31.1092 16.0049C36.5641 16.005 40.9861 18.9151 40.9862 22.5049C40.9862 26.0947 36.5642 29.0047 31.1092 29.0049C30.1806 29.0049 29.2815 28.9204 28.4295 28.7627C27.6422 28.6168 26.9226 28.2174 26.4247 27.6084L29.828 33.5039C30.1555 34.0713 30.2739 34.6796 30.2225 35.2588C30.0935 36.7095 28.5108 37.3898 27.0692 37.5977C25.3572 37.8445 23.5931 37.9736 21.7918 37.9736C20.1452 37.9736 18.5298 37.8649 16.9569 37.6572C15.6321 37.4822 14.1862 36.9353 13.9012 35.6299C13.7516 34.9443 13.8407 34.1941 14.2391 33.5039C16.4901 30.0049 17.9901 27.5049 17.4901 27.5049C16.9904 27.5055 16.8569 28.5206 15.6737 28.7627C14.4904 29.0048 13.924 29.0049 12.9959 29.0049C7.541 29.0047 3.11801 26.0947 3.11801 22.5049C3.11812 18.9151 7.54106 16.0051 12.9959 16.0049Z" fill="#FFFCFC"/>
</svg>
