<svg width="46" height="83" viewBox="0 0 46 83" fill="none" xmlns="http://www.w3.org/2000/svg">
<path d="M33.9999 67.002C33.4999 67.5019 33.3487 67.5656 33.0839 67.7451C30.0842 69.7313 26.4805 70.9725 22.8885 70.9727C22.6729 70.9727 22.4581 70.9679 22.244 70.96C18.9759 70.8343 14.5 69.0019 12.1874 67.5869C12.0991 70.6904 11.814 73.3596 10.9774 76.2158C10.6566 77.311 9.82679 78.0223 9.49987 78.502C13.3532 81.401 17.9367 83.0048 22.9891 83.0049C27.7349 83.0049 32.2667 81.3108 35.9999 78.502C35.673 78.0225 35.3852 77.3111 35.0643 76.2158C34.7045 74.9877 34.1953 70.5877 33.9999 67.002Z" fill="#FFFCFC"/>
<path fill-rule="evenodd" clip-rule="evenodd" d="M22.9813 0.751953C20.8608 0.836843 19.067 1.60338 17.6385 3.11621C16.2404 4.59694 15.2072 6.77693 14.5409 9.69043C12.5871 10.1642 8.3638 12.2105 5.63171 17.0205C2.15161 23.1478 -0.0118276 30.4508 0.986201 37.9316L1.0155 38.1484H1.11218C1.13981 38.1719 1.17829 38.1987 1.23034 38.2109C1.29655 38.2264 1.35948 38.2155 1.41003 38.1934C1.44945 38.1761 1.48177 38.151 1.50866 38.125C1.50439 38.251 1.49994 38.3767 1.4989 38.502C1.46458 42.6279 1.55294 44.3703 1.9862 47.502C7.32463 51.378 14.8662 53.9823 22.7079 53.9824C30.9003 53.9824 38.5931 51.6904 43.9999 47.502C44.4691 45.1411 44.9371 40.8213 44.6014 38.2217C44.6303 38.2369 44.6646 38.25 44.7069 38.252C44.8475 38.2581 44.9198 38.155 44.9305 38.1396C44.9512 38.11 44.9628 38.0816 44.9676 38.0684C44.9864 38.0168 44.995 37.9532 44.9979 37.9316C45.9959 30.4508 43.8315 23.1478 40.3514 17.0205C37.6188 12.2096 33.3946 10.1636 31.4413 9.69043C30.775 6.77708 29.7428 4.59689 28.3446 3.11621C26.9159 1.6034 25.1215 0.836717 23.0008 0.751953H22.9813ZM13.996 32.0049C14.9246 32.0049 15.8238 32.0893 16.6757 32.2471C20.1947 32.899 25.9084 32.8991 29.4276 32.2471C30.2801 32.0891 31.18 32.0049 32.1092 32.0049C37.5641 32.0051 41.9861 34.9151 41.9862 38.5049C41.9862 42.0947 37.5642 45.0047 32.1092 45.0049C31.1807 45.0049 30.2815 44.9204 29.4296 44.7627C28.6422 44.6168 27.9226 44.2174 27.4247 43.6084L30.828 49.5039C31.1556 50.0713 31.2739 50.6796 31.2225 51.2588C31.0935 52.7095 29.5108 53.3897 28.0692 53.5977C26.3572 53.8445 24.5931 53.9736 22.7919 53.9736C21.1452 53.9736 19.5299 53.8649 17.9569 53.6572C16.6322 53.4822 15.1862 52.9353 14.9012 51.6299C14.7517 50.9443 14.8407 50.1941 15.2391 49.5039C17.4901 46.005 18.99 43.505 18.4901 43.5049C17.9905 43.5055 17.8569 44.5206 16.6737 44.7627C15.4904 45.0048 14.924 45.0049 13.996 45.0049C8.54102 45.0047 4.11804 42.0947 4.11804 38.5049C4.11814 34.9151 8.54109 32.0051 13.996 32.0049Z" fill="#FFFCFC"/>
</svg>
