<svg width="88" height="213" viewBox="0 0 88 213" fill="none" xmlns="http://www.w3.org/2000/svg">
<path d="M87.9431 0.610425C82.9119 -2.39017 70.4743 6.6114 67.9744 9.1114C65.4742 11.6115 53.9744 17.3878 51.9744 17.3878H48.2078C46.7422 20.02 45.2764 34.0008 44.7879 37.9483C44.2997 41.8974 51.791 77.0955 53.908 91.0762C56.0249 105.057 49.8366 118.545 49.6736 124.795C49.5108 131.045 52.1162 144.697 52.9304 149.961C53.7447 155.224 57.6534 183.68 56.5134 188.779C55.3735 193.878 53.908 194.865 53.908 196.017C53.9081 197.168 54.8845 197.826 54.8845 199.142C54.8845 200.457 53.908 201.444 53.908 203.418C53.908 205.392 54.8845 209.997 54.8845 211.478C54.8845 212.958 56.5132 212.794 57.6531 212.794C58.565 212.794 59.3358 211.916 59.6072 211.478C60.91 212.026 64.4281 213.057 68.0759 212.794C72.6357 212.465 76.7065 213.287 77.1951 209.997C77.6831 206.707 68.2396 196.346 68.0759 192.892C67.9131 189.438 69.0529 184.667 70.03 176.607C71.0071 168.548 78.8242 131.539 78.9871 118.545C79.1499 105.551 75.2413 90.7473 74.7527 84.9903C74.2642 79.2334 75.2411 74.9564 78.0095 61.4688C80.778 47.9811 88.106 17.3876 87.9431 0.610425ZM19.9822 9.11043C17.4822 6.61043 5.04463 -2.39115 0.0134429 0.609449C-0.149391 17.3866 7.17854 47.9801 9.94704 61.4678C12.7155 74.9555 13.6924 79.2324 13.2039 84.9893C12.7153 90.7463 8.80665 105.55 8.9695 118.544C9.13241 131.538 16.9494 168.547 17.9265 176.607C18.9036 184.666 20.0435 189.437 19.8806 192.891C19.7169 196.345 10.2735 206.706 10.7615 209.996C11.25 213.286 15.3209 212.464 19.8806 212.793C23.5285 213.056 27.0466 212.025 28.3494 211.477C28.6208 211.915 29.3916 212.793 30.3035 212.793C31.4434 212.793 33.072 212.957 33.072 211.477C33.0721 209.996 34.0486 205.391 34.0486 203.417C34.0486 201.443 33.0721 200.457 33.072 199.141C33.072 197.825 34.0484 197.167 34.0486 196.016C34.0486 194.864 32.5831 193.877 31.4431 188.778C30.3032 183.679 34.2119 155.223 35.0261 149.96C35.8404 144.697 38.4458 131.044 38.283 124.794C38.12 118.544 31.9316 105.056 34.0486 91.0753C36.1656 77.0945 43.6569 41.8964 43.1687 37.9473C42.6802 33.9998 41.2144 20.0191 39.7488 17.3868H35.9822C33.9822 17.3868 22.4824 11.6105 19.9822 9.11043Z" fill="#FFFCFC"/>
</svg>
