<svg width="138" height="449" viewBox="0 0 138 449" fill="none" xmlns="http://www.w3.org/2000/svg">
<path fill-rule="evenodd" clip-rule="evenodd" d="M68.8643 0.00390625L68.7432 0.0107422C65.4933 0.145759 62.5177 1.39124 60.1982 3.87402C58.5902 5.59544 57.4629 7.73392 56.6768 10.1006C53.7715 11.4953 50.1941 14.1779 47.667 18.6748C44.8597 23.6706 42.7516 29.5244 42.3125 35.7822L42.293 35.792C40.3797 36.7488 39.2311 38.3542 38.6299 40.041L38.5166 40.3799C38.0049 42.0196 37.9424 43.8175 38.0371 45.54C38.17 47.9516 38.9772 49.9258 39.5127 51.1436C39.8151 51.8311 39.9328 52.0741 40.0527 52.3652C40.1596 53.7947 40.6303 55.3188 41.2734 56.5596C41.6583 57.302 42.2485 58.2256 43.1289 59.0254L43.4619 59.3096C44.0489 59.7801 44.8249 60.2481 45.7764 60.5215C46.1853 61.4721 46.6882 62.6201 47.2783 63.8428C48.6586 66.7026 50.7076 70.4265 53.5352 73.4229C53.5224 73.7088 53.504 74.0096 53.4785 74.3203C53.2004 75.5983 52.8917 76.864 52.5801 77.8828C52.444 78.3275 52.3224 78.6726 52.2236 78.9238C52.1532 78.9699 52.0647 79.0267 51.9541 79.0918C51.6031 79.2984 51.108 79.5571 50.4629 79.8467C49.1947 80.4159 47.883 80.8826 46.9199 81.2363C45.4478 81.7771 44.2233 82.6047 43.665 82.9404C43.0375 83.3177 42.3099 83.7192 41.0234 84.1523C39.9428 84.5161 38.5432 84.6833 36.4209 84.9043C34.5959 85.0943 32.0097 85.3392 29.7148 86.1504C27.5223 86.9256 24.4204 88.5716 21.6396 90.8232C18.9369 93.0118 15.8089 96.3599 14.7861 100.75C14.0231 104.026 13.7671 107.62 13.6621 110.612C13.6089 112.13 13.5928 113.559 13.5801 114.762C13.5703 115.692 13.5629 116.44 13.5449 117.04L13.5234 117.579C13.4514 118.959 12.4153 129.298 11.2256 140.051C10.6365 145.374 10.0193 150.717 9.47949 154.984C8.91223 159.469 8.48685 162.279 8.31152 162.937C7.15859 167.262 6.29094 170.75 5.59863 175.12C5.22976 177.45 4.35784 188.448 3.5957 199.002C2.83493 209.537 2.12426 220.464 2.11719 222.908L2.10449 223.627C2.04649 225.342 1.79484 227.539 1.50488 229.846C1.21039 232.188 0.81446 235.037 0.814453 236.761C0.814453 237.784 0.645172 239.618 0.428711 241.979C0.231722 244.127 4.41316e-06 246.681 0 248.604C0 250.608 0.283234 253.824 0.936523 257.01C1.54322 259.968 2.66485 263.947 4.91992 266.627L4.92871 266.637L4.9375 266.647L5.25 267.009L5.26758 267.028C7.01257 268.993 9.14525 270.638 10.9316 271.796C11.8999 272.424 12.8573 272.969 13.7109 273.377C14.1335 273.579 14.5935 273.778 15.0576 273.938C15.3929 274.053 16.225 274.328 17.2139 274.328H17.2549L17.5439 274.322L17.5596 274.321H17.5762C18.4101 274.291 19.4154 274.155 20.3506 273.886C20.8569 273.74 21.6751 273.462 22.4775 272.922C23.1104 272.496 24.8292 271.142 24.9707 268.668C26.8854 278.289 28.9205 287.281 30.0674 292.868C32.9046 306.691 33.6514 310.103 33.2393 314.961C33.0172 317.578 32.0209 322.137 30.9297 328.617C29.8992 334.737 28.9002 342.045 28.9873 349.002C29.0751 355.995 31.1642 368.945 33.2363 380.689C35.3765 392.819 37.5131 403.748 37.9805 407.603C38.4791 411.716 39.0296 415.061 39.4023 417.598C39.762 420.045 39.9258 421.597 39.9082 422.747C39.8951 422.78 39.8818 422.819 39.8623 422.863C39.7457 423.128 39.5678 423.477 39.3174 423.918L39.043 424.39C38.2334 425.745 37.1558 427.317 35.9512 429.1C34.9523 430.578 33.8564 432.214 32.9639 433.752L32.5947 434.404C32.12 435.266 31.6457 436.226 31.3047 437.2C31.0012 438.067 30.593 439.512 30.832 441.124L30.835 441.145L30.8389 441.165L30.8867 441.447L30.8945 441.49C31.248 443.331 32.1914 444.988 33.7705 446.171C35.2588 447.286 36.9114 447.67 38.0713 447.844C39.2581 448.021 40.516 448.053 41.5186 448.073C42.6226 448.095 43.5637 448.104 44.5391 448.175C47.4435 448.384 50.2089 447.962 52.293 447.444C53.0842 447.848 54.1065 448.187 55.3203 448.188C55.3064 448.188 55.8632 448.205 56.375 448.188C56.9192 448.169 57.6713 448.112 58.3994 447.921C59.2338 447.702 60.506 447.207 61.5615 446.014C62.6685 444.762 63.0699 443.275 63.0869 441.959L63.0938 441.801C63.1266 441.354 63.2757 440.368 63.5195 438.789C63.7395 437.364 64.0664 435.273 64.0664 433.812V433.776L64.0615 433.495L64.0605 433.481V433.467L64.0459 433.15C63.9513 431.614 63.5447 430.444 63.2734 429.712C63.5625 429.111 63.9861 428.058 64.0566 426.777L64.0664 426.41C64.0664 425.03 63.611 423.959 63.3535 423.404C63.1996 423.073 62.7469 422.204 62.6719 422.053C62.3235 421.349 61.8153 420.204 61.3408 418.082C61.3399 418.077 61.3145 417.941 61.292 417.611C61.2703 417.293 61.2542 416.847 61.2539 416.254C61.2533 415.125 61.3091 413.69 61.415 412.012C61.6265 408.66 62.0238 404.551 62.4883 400.379C63.4167 392.039 64.5882 383.68 64.9844 381.119C65.3154 378.979 66.2936 373.444 66.9814 368.889C67.7059 364.091 68.3925 358.691 68.2979 355.059C68.2415 352.896 67.6923 350.395 67.1328 348.076C66.5225 345.547 65.8516 343.053 65.2109 340.15C63.9543 334.458 63.0887 328.302 64.0098 322.219C64.9661 315.903 67.0444 305.14 69 294.797C70.9556 305.14 73.0339 315.903 73.9902 322.219C74.9113 328.302 74.0457 334.458 72.7891 340.15C72.1484 343.053 71.4775 345.547 70.8672 348.076C70.3077 350.395 69.7585 352.896 69.7021 355.059C69.6075 358.691 70.2941 364.091 71.0186 368.889C71.7064 373.444 72.6846 378.979 73.0156 381.119C73.4118 383.68 74.5833 392.039 75.5117 400.379C75.9762 404.551 76.3735 408.66 76.585 412.012C76.6909 413.69 76.7467 415.125 76.7461 416.254C76.7458 416.847 76.7297 417.293 76.708 417.611C76.6855 417.941 76.6601 418.077 76.6592 418.082C76.1845 420.205 75.6764 421.35 75.3281 422.054C75.2541 422.203 74.8 423.074 74.6465 423.404C74.3887 423.959 73.9336 425.032 73.9336 426.412C73.9341 427.856 74.4094 429.053 74.7256 429.71C74.4155 430.547 73.9336 431.946 73.9336 433.812C73.9336 435.273 74.2605 437.364 74.4805 438.789C74.6168 439.672 74.7276 440.392 74.8047 440.946C74.8432 441.223 74.8715 441.444 74.8896 441.614C74.8987 441.699 74.9048 441.764 74.9082 441.812C74.9106 441.847 74.9109 441.865 74.9111 441.871C74.9111 443.209 75.3068 444.734 76.4385 446.014C77.494 447.207 78.7662 447.702 79.6006 447.921C80.3288 448.112 81.0806 448.169 81.625 448.188C82.1372 448.205 82.6954 448.188 82.6816 448.188C83.895 448.187 84.9149 447.847 85.7051 447.444C87.7895 447.962 90.5557 448.384 93.4609 448.175C94.4363 448.104 95.3774 448.095 96.4814 448.073C97.4841 448.053 98.7419 448.021 99.9287 447.844C101.089 447.67 102.741 447.286 104.229 446.171C105.918 444.906 106.874 443.105 107.168 441.125L107.203 440.843L107.206 440.82C107.356 439.335 106.981 438.016 106.695 437.2C106.44 436.47 106.109 435.747 105.76 435.067L105.405 434.403C104.459 432.684 103.19 430.788 102.049 429.099C100.843 427.315 99.7655 425.744 98.9561 424.389C98.5572 423.721 98.2935 423.217 98.1377 422.862C98.1178 422.817 98.1033 422.777 98.0898 422.744C98.0726 421.594 98.2381 420.043 98.5977 417.597C98.9703 415.061 99.5209 411.715 100.02 407.603C100.487 403.748 102.623 392.819 104.764 380.689C106.836 368.945 108.925 355.994 109.013 349.001C109.1 342.044 108.101 334.737 107.07 328.617C105.979 322.137 104.983 317.578 104.761 314.961C104.349 310.103 105.095 306.691 107.933 292.868C109.079 287.281 111.114 278.289 113.028 268.668C113.17 271.143 114.89 272.496 115.522 272.922C116.325 273.462 117.144 273.74 117.65 273.886C118.712 274.192 119.875 274.328 120.786 274.328C121.775 274.328 122.607 274.053 122.942 273.938C123.406 273.778 123.866 273.579 124.289 273.377C125.143 272.969 126.1 272.424 127.068 271.796C128.97 270.563 131.274 268.773 133.08 266.627L133.089 266.616L133.097 266.606L133.273 266.391L133.295 266.363C135.402 263.699 136.474 259.885 137.063 257.01C137.717 253.824 138 250.608 138 248.604V248.576L137.99 247.868V247.855L137.989 247.843C137.942 246.052 137.744 243.867 137.571 241.979C137.355 239.618 137.186 237.784 137.186 236.761V236.734L137.185 236.708L137.168 236.073V236.053L137.167 236.032L137.126 235.366C137.006 233.742 136.723 231.661 136.495 229.846C136.241 227.828 136.017 225.893 135.926 224.292L135.896 223.627L135.882 222.908C135.875 220.464 135.165 209.537 134.404 199.002C133.642 188.448 132.77 177.45 132.401 175.12C131.709 170.75 130.841 167.262 129.688 162.937C129.513 162.279 129.088 159.469 128.521 154.984C127.981 150.717 127.363 145.374 126.774 140.051C125.867 131.846 125.043 123.834 124.674 119.891L124.545 118.461L124.476 117.559C124.442 116.908 124.433 116.001 124.42 114.762C124.407 113.559 124.391 112.13 124.338 110.612C124.233 107.62 123.977 104.026 123.214 100.75C122.191 96.3599 119.063 93.0118 116.36 90.8232C113.58 88.5716 110.478 86.9256 108.285 86.1504C105.99 85.3392 103.404 85.0943 101.579 84.9043C99.4568 84.6833 98.0572 84.5161 96.9766 84.1523C95.6901 83.7192 94.9625 83.3177 94.335 82.9404C93.7767 82.6047 92.5522 81.7771 91.0801 81.2363C90.117 80.8826 88.8053 80.4159 87.5371 79.8467C86.8907 79.5565 86.3953 79.2976 86.0439 79.0908C85.9338 79.026 85.8455 78.9696 85.7754 78.9238C85.656 78.6205 85.5103 78.1937 85.3477 77.6436C85.0124 76.5094 84.685 75.1275 84.4043 73.791C84.3967 73.6658 84.3904 73.5433 84.3848 73.4238C87.2134 70.4271 89.2639 66.7031 90.6445 63.8428C91.2327 62.6242 91.7323 61.4786 92.1396 60.5303C93.3002 60.2042 94.2027 59.5881 94.8223 59.0254L95.1387 58.7197C95.8466 57.997 96.341 57.2092 96.6777 56.5596C97.3209 55.3189 97.7894 53.7959 97.8965 52.3682C98.0169 52.0756 98.135 51.8336 98.4385 51.1436C98.974 49.9258 99.7812 47.9506 99.9141 45.5391C100.003 43.9243 99.9535 42.2442 99.5254 40.6895L99.4346 40.3799C98.9065 38.688 97.8473 37.0334 96.0244 35.9883L96 35.9746L95.9756 35.9619L95.71 35.8193L95.665 35.7949L95.6191 35.7734L95.6045 35.7666C95.1638 29.5155 93.0613 23.6673 90.2559 18.6748C87.7282 14.1769 84.1496 11.495 81.2441 10.1006C80.4583 7.7346 79.3329 5.59559 77.7246 3.87402C75.4047 1.39104 72.4279 0.145504 69.1777 0.0107422L69.1787 0.00976562L69.0576 0.00390625L68.9609 0L68.8643 0.00390625ZM114.512 260.908C114.801 261.446 115.125 261.978 115.486 262.469C115.527 262.524 115.573 262.58 115.617 262.638C114.862 263.699 114.087 264.906 113.527 266.136C113.691 265.291 113.854 264.443 114.015 263.595C114.183 262.703 114.348 261.807 114.512 260.908ZM23.9854 263.595C24.1456 264.443 24.3076 265.291 24.4717 266.136C23.9117 264.906 23.1372 263.698 22.3818 262.638C22.4266 262.579 22.4726 262.525 22.5137 262.469C22.8747 261.978 23.1978 261.446 23.4873 260.908C23.6511 261.807 23.817 262.703 23.9854 263.595ZM100.679 158.996C100.728 163.702 100.771 168.537 100.979 171.485C101.073 172.808 101.447 174.592 101.883 176.408C102.344 178.327 102.962 180.634 103.677 183.157C104.929 187.579 106.506 192.789 108.103 197.973C106.519 194.596 104.989 191.545 103.742 189.066C102.926 187.443 102.252 186.107 101.744 185.05C101.475 184.489 101.286 184.076 101.16 183.786C101.021 183.465 100.991 183.367 101 183.397C100.171 180.525 100.335 180.424 100.035 176.209L100.034 176.195L99.877 174.177L99.876 174.163L99.8438 173.686C99.7104 171.136 99.9816 166.165 100.481 160.96C100.545 160.294 100.611 159.638 100.679 158.996ZM37.5186 160.96C38.0163 166.142 38.2914 171.13 38.1553 173.706L38.124 174.163C37.6193 180.111 37.9154 180.107 37.165 182.816L37 183.397C36.9901 183.424 36.9469 183.539 36.8398 183.786C36.7143 184.076 36.5252 184.489 36.2559 185.05C35.7477 186.107 35.0741 187.443 34.2578 189.066C33.0113 191.545 31.4803 194.596 29.8965 197.973C31.4928 192.789 33.0713 187.579 34.3232 183.157C35.0376 180.634 35.6563 178.327 36.1172 176.408C36.5533 174.592 36.9268 172.807 37.0205 171.484C37.229 168.536 37.2706 163.702 37.3203 158.996C37.3883 159.638 37.4546 160.294 37.5186 160.96Z" fill="#DEBFFF"/>
</svg>
